<svg width="32" height="31" viewBox="0 0 32 31" fill="none" xmlns="http://www.w3.org/2000/svg">
<g clip-path="url(#clip0_121_576)">
<path d="M23.7501 20.6663H10.0843C7.38468 20.6663 4.98218 18.6901 4.72385 16.0034C4.65315 15.2859 4.73349 14.5615 4.95969 13.877C5.18589 13.1924 5.55294 12.5627 6.0372 12.0286C6.52147 11.4944 7.11222 11.0676 7.77143 10.7756C8.43063 10.4835 9.14369 10.3328 9.86468 10.333H25.8297C27.5218 10.333 29.0588 11.5472 29.2268 13.2263C29.2739 13.6767 29.2257 14.1319 29.0855 14.5624C28.9452 14.9929 28.716 15.3891 28.4127 15.7253C28.1094 16.0614 27.7388 16.3301 27.325 16.5138C26.9111 16.6974 26.4633 16.792 26.0105 16.7913H12.448C11.7376 16.7913 11.1563 16.2101 11.1563 15.4997C11.1563 14.7893 11.7376 14.208 12.448 14.208H23.7501C24.2797 14.208 24.7188 13.7688 24.7188 13.2393C24.7188 12.7097 24.2797 12.2705 23.7501 12.2705H12.6288C10.9368 12.2705 9.39968 13.4847 9.23176 15.1638C9.18467 15.6142 9.23281 16.0694 9.37305 16.4999C9.51329 16.9304 9.7425 17.3266 10.0458 17.6628C10.3491 17.9989 10.7197 18.2676 11.1335 18.4513C11.5474 18.6349 11.9952 18.7295 12.448 18.7288H25.7909C28.4905 18.7288 30.893 16.7526 31.1513 14.0659C31.2231 13.3482 31.1434 12.6234 30.9176 11.9384C30.6918 11.2534 30.3248 10.6233 29.8403 10.0889C29.3559 9.55457 28.7647 9.12775 28.105 8.83606C27.4453 8.54437 26.7318 8.39429 26.0105 8.39552H10.1618C6.45468 8.39552 3.1351 11.108 2.78635 14.8022C2.68992 15.7897 2.80122 16.7864 3.11308 17.7283C3.42494 18.6701 3.93047 19.5363 4.59714 20.2711C5.26382 21.0059 6.0769 21.5931 6.98409 21.9948C7.89128 22.3966 8.87251 22.604 9.86468 22.6038H23.7501C24.2797 22.6038 24.7188 22.1647 24.7188 21.6351C24.7188 21.1055 24.2797 20.6663 23.7501 20.6663Z" fill="#303030"/>
</g>
<defs>
<clipPath id="clip0_121_576">
<rect width="31" height="31" fill="white" transform="translate(0.822998)"/>
</clipPath>
</defs>
</svg>
