<svg width="21" height="26" viewBox="0 0 21 26" fill="none" xmlns="http://www.w3.org/2000/svg">
<path d="M10.3333 12.6667C10.975 12.6667 11.5245 12.438 11.9818 11.9807C12.4384 11.5241 12.6667 10.975 12.6667 10.3333C12.6667 9.69167 12.4384 9.14217 11.9818 8.68483C11.5245 8.22828 10.975 8 10.3333 8C9.69167 8 9.14256 8.22828 8.686 8.68483C8.22867 9.14217 8 9.69167 8 10.3333C8 10.975 8.22867 11.5241 8.686 11.9807C9.14256 12.438 9.69167 12.6667 10.3333 12.6667ZM10.3333 24.3333C7.20278 21.6694 4.86478 19.1949 3.31933 16.9098C1.77311 14.6255 1 12.5111 1 10.5667C1 7.65 1.93839 5.32639 3.81517 3.59583C5.69117 1.86528 7.86389 1 10.3333 1C12.8028 1 14.9755 1.86528 16.8515 3.59583C18.7283 5.32639 19.6667 7.65 19.6667 10.5667C19.6667 12.5111 18.8939 14.6255 17.3485 16.9098C15.8023 19.1949 13.4639 21.6694 10.3333 24.3333Z" fill="#E52F35"/>
</svg>
