<svg width="25" height="24" viewBox="0 0 25 24" fill="none" xmlns="http://www.w3.org/2000/svg">
<path d="M9.8584 9.44629H11.1828V17.4593H9.8584V9.44629ZM13.8315 9.44629H15.1559V17.4593H13.8315V9.44629Z" fill="#E52F35"/>
<path d="M4.56152 5.44003V6.77553H5.88589V20.1305C5.88589 20.4847 6.02542 20.8244 6.27379 21.0748C6.52215 21.3253 6.85901 21.466 7.21026 21.466H17.8052C18.1564 21.466 18.4933 21.3253 18.7417 21.0748C18.99 20.8244 19.1295 20.4847 19.1295 20.1305V6.77553H20.4539V5.44003H4.56152ZM7.21026 20.1305V6.77553H17.8052V20.1305H7.21026ZM9.85899 2.76904H15.1565V4.10454H9.85899V2.76904Z" fill="#E52F35"/>
</svg>
