<svg width="51" height="51" viewBox="0 0 51 51" fill="none" xmlns="http://www.w3.org/2000/svg">
<path d="M0 6C0 2.68629 2.68629 0 6 0H45C48.3137 0 51 2.68629 51 6V45C51 48.3137 48.3137 51 45 51H6C2.68629 51 0 48.3137 0 45V6Z" fill="#F12D3B"/>
<path d="M35.6145 18.1531L34.3277 25.4703C34.2216 26.0748 33.9143 26.6215 33.4595 27.0152C33.0047 27.4089 32.4311 27.6247 31.8387 27.625H19.6043L20.0684 30.25H31.4062C31.9069 30.25 32.3963 30.404 32.8125 30.6924C33.2288 30.9808 33.5532 31.3908 33.7448 31.8705C33.9364 32.3501 33.9865 32.8779 33.8889 33.3871C33.7912 33.8963 33.5501 34.364 33.1961 34.7312C32.8421 35.0983 32.3911 35.3483 31.9001 35.4496C31.4091 35.5508 30.9001 35.4989 30.4376 35.3002C29.9751 35.1015 29.5797 34.7651 29.3016 34.3334C29.0235 33.9017 28.875 33.3942 28.875 32.875C28.8751 32.5767 28.925 32.2806 29.0227 32H22.8211C22.9187 32.2806 22.9687 32.5767 22.9688 32.875C22.9695 33.2985 22.8714 33.716 22.6829 34.0917C22.4944 34.4674 22.221 34.7902 21.8861 35.0325C21.5512 35.2749 21.1647 35.4297 20.7596 35.4836C20.3545 35.5375 19.9429 35.4889 19.5598 35.342C19.1768 35.1952 18.8337 34.9544 18.5598 34.6402C18.2859 34.326 18.0894 33.9478 17.987 33.5378C17.8847 33.1278 17.8795 32.6982 17.972 32.2857C18.0644 31.8731 18.2517 31.4899 18.518 31.1688L15.5965 14.5H13.6875C13.4637 14.5 13.2491 14.4078 13.0909 14.2437C12.9326 14.0796 12.8438 13.8571 12.8438 13.625C12.8438 13.3929 12.9326 13.1704 13.0909 13.0063C13.2491 12.8422 13.4637 12.75 13.6875 12.75H15.5965C15.9903 12.7509 16.3715 12.8946 16.6739 13.1563C16.9763 13.418 17.181 13.7811 17.2523 14.1828L17.7691 17.125H34.7812C34.9044 17.1253 35.026 17.1538 35.1373 17.2087C35.2485 17.2635 35.3466 17.3433 35.4246 17.4422C35.5062 17.538 35.5657 17.6518 35.5986 17.775C35.6315 17.8981 35.6369 18.0275 35.6145 18.1531Z" fill="white"/>
</svg>
