<svg width="62" height="63" viewBox="0 0 62 63" fill="none" xmlns="http://www.w3.org/2000/svg">
<circle cx="31.2143" cy="31.2143" r="30.2143" fill="#F12D3B"/>
<path d="M43.6663 31.8521V31.583C43.6678 29.8888 43.3295 28.2116 42.6714 26.6505C42.0132 25.0895 41.0486 23.6763 39.8346 22.4946C38.4173 21.1155 36.6911 20.095 34.7996 19.518H34.7204C33.3943 19.1002 32.0099 18.897 30.6196 18.9163C27.3079 19.0981 24.1909 20.5388 21.9068 22.9437C19.6226 25.3485 18.3441 28.5354 18.3329 31.8521C17.2747 32.2244 16.3824 32.9591 15.8141 33.9262C15.2457 34.8933 15.0379 36.0304 15.2276 37.136C15.4172 38.2416 15.992 39.2444 16.8502 39.9668C17.7084 40.6892 18.7945 41.0846 19.9163 41.083H42.0829C43.2047 41.0846 44.2908 40.6892 45.149 39.9668C46.0072 39.2444 46.582 38.2416 46.7716 37.136C46.9613 36.0304 46.7535 34.8933 46.1851 33.9262C45.6168 32.9591 44.7245 32.2244 43.6663 31.8521ZM42.0829 37.9163H19.9163C19.4963 37.9163 19.0936 37.7495 18.7967 37.4525C18.4997 37.1556 18.3329 36.7529 18.3329 36.333C18.3329 35.913 18.4997 35.5103 18.7967 35.2134C19.0936 34.9164 19.4963 34.7496 19.9163 34.7496H23.0829C23.5029 34.7496 23.9056 34.5828 24.2025 34.2859C24.4995 33.9889 24.6663 33.5862 24.6663 33.1663C24.6663 32.7464 24.4995 32.3436 24.2025 32.0467C23.9056 31.7498 23.5029 31.583 23.0829 31.583H21.4996C21.5718 29.9407 22.0418 28.3406 22.8692 26.9202C23.6967 25.4998 24.8567 24.3017 26.2496 23.4288V28.4163C26.2496 28.8362 26.4164 29.2389 26.7133 29.5359C27.0103 29.8328 27.413 29.9996 27.8329 29.9996C28.2529 29.9996 28.6556 29.8328 28.9525 29.5359C29.2495 29.2389 29.4163 28.8362 29.4163 28.4163V22.2255C29.846 22.1537 30.2795 22.1061 30.7146 22.083H30.9996C31.5311 22.0878 32.061 22.1408 32.5829 22.2413V28.4163C32.5829 28.8362 32.7497 29.2389 33.0467 29.5359C33.3436 29.8328 33.7463 29.9996 34.1663 29.9996C34.5862 29.9996 34.9889 29.8328 35.2859 29.5359C35.5828 29.2389 35.7496 28.8362 35.7496 28.4163V23.3813C36.4212 23.7702 37.0478 24.2322 37.6179 24.7588C38.5308 25.6453 39.2563 26.7062 39.7513 27.8784C40.2463 29.0507 40.5008 30.3105 40.4996 31.583H38.9163C38.4963 31.583 38.0936 31.7498 37.7967 32.0467C37.4997 32.3436 37.3329 32.7464 37.3329 33.1663C37.3329 33.5862 37.4997 33.9889 37.7967 34.2859C38.0936 34.5828 38.4963 34.7496 38.9163 34.7496H42.0829C42.5029 34.7496 42.9056 34.9164 43.2025 35.2134C43.4995 35.5103 43.6663 35.913 43.6663 36.333C43.6663 36.7529 43.4995 37.1556 43.2025 37.4525C42.9056 37.7495 42.5029 37.9163 42.0829 37.9163Z" fill="white"/>
</svg>
