<svg width="62" height="63" viewBox="0 0 62 63" fill="none" xmlns="http://www.w3.org/2000/svg">
<circle cx="31.2143" cy="31.2143" r="30.2143" fill="#F12D3B"/>
<path d="M41.5 22H37V17.5C37 17.1022 36.842 16.7206 36.5607 16.4393C36.2794 16.158 35.8978 16 35.5 16C35.1022 16 34.7206 16.158 34.4393 16.4393C34.158 16.7206 34 17.1022 34 17.5V22H28V17.5C28 17.1022 27.842 16.7206 27.5607 16.4393C27.2794 16.158 26.8978 16 26.5 16C26.1022 16 25.7206 16.158 25.4393 16.4393C25.158 16.7206 25 17.1022 25 17.5V22H20.5C20.1022 22 19.7206 22.158 19.4393 22.4393C19.158 22.7206 19 23.1022 19 23.5C19 23.8978 19.158 24.2794 19.4393 24.5607C19.7206 24.842 20.1022 25 20.5 25H22V32.5C21.9989 32.6974 22.0367 32.8931 22.1113 33.0759C22.186 33.2586 22.296 33.4248 22.435 33.565L26.5 37.615V44.5C26.5 44.8978 26.658 45.2794 26.9393 45.5607C27.2206 45.842 27.6022 46 28 46C28.3978 46 28.7794 45.842 29.0607 45.5607C29.342 45.2794 29.5 44.8978 29.5 44.5V38.5H32.5V44.5C32.5 44.8978 32.658 45.2794 32.9393 45.5607C33.2206 45.842 33.6022 46 34 46C34.3978 46 34.7794 45.842 35.0607 45.5607C35.342 45.2794 35.5 44.8978 35.5 44.5V37.615L39.565 33.565C39.704 33.4248 39.814 33.2586 39.8887 33.0759C39.9633 32.8931 40.0011 32.6974 40 32.5V25H41.5C41.8978 25 42.2794 24.842 42.5607 24.5607C42.842 24.2794 43 23.8978 43 23.5C43 23.1022 42.842 22.7206 42.5607 22.4393C42.2794 22.158 41.8978 22 41.5 22ZM37 31.885L33.385 35.5H28.615L25 31.885V25H37V31.885ZM29.5 32.5H32.5C32.8978 32.5 33.2794 32.342 33.5607 32.0607C33.842 31.7794 34 31.3978 34 31C34 30.6022 33.842 30.2206 33.5607 29.9393C33.2794 29.658 32.8978 29.5 32.5 29.5H29.5C29.1022 29.5 28.7206 29.658 28.4393 29.9393C28.158 30.2206 28 30.6022 28 31C28 31.3978 28.158 31.7794 28.4393 32.0607C28.7206 32.342 29.1022 32.5 29.5 32.5Z" fill="white"/>
</svg>
