<svg width="62" height="62" viewBox="0 0 62 62" fill="none" xmlns="http://www.w3.org/2000/svg">
<ellipse cx="31.2927" cy="31.2143" rx="30.2927" ry="30.2143" fill="#F6F6F8"/>
<path d="M28.8899 35.5103C29.0255 35.6469 29.1868 35.7554 29.3645 35.8295C29.5422 35.9035 29.7328 35.9416 29.9253 35.9416C30.1178 35.9416 30.3085 35.9035 30.4862 35.8295C30.6639 35.7554 30.8252 35.6469 30.9607 35.5103L36.9107 29.5603C37.1854 29.2856 37.3396 28.9132 37.3396 28.5248C37.3396 28.1365 37.1854 27.764 36.9107 27.4894C36.6361 27.2148 36.2637 27.0605 35.8753 27.0605C35.487 27.0605 35.1145 27.2148 34.8399 27.4894L29.9253 32.4186L28.1607 30.6394C27.8861 30.3648 27.5137 30.2105 27.1253 30.2105C26.737 30.2105 26.3645 30.3648 26.0899 30.6394C25.8153 30.914 25.661 31.2865 25.661 31.6748C25.661 32.0632 25.8153 32.4356 26.0899 32.7103L28.8899 35.5103ZM44.6253 16.9165H18.3753C17.9886 16.9165 17.6176 17.0701 17.3441 17.3436C17.0706 17.6171 16.917 17.9881 16.917 18.3748V44.6248C16.917 45.0116 17.0706 45.3825 17.3441 45.656C17.6176 45.9295 17.9886 46.0832 18.3753 46.0832H44.6253C45.0121 46.0832 45.383 45.9295 45.6565 45.656C45.93 45.3825 46.0837 45.0116 46.0837 44.6248V18.3748C46.0837 17.9881 45.93 17.6171 45.6565 17.3436C45.383 17.0701 45.0121 16.9165 44.6253 16.9165ZM43.167 43.1665H19.8337V19.8332H43.167V43.1665Z" fill="#E52F35"/>
</svg>
