<svg width="64" height="65" viewBox="0 0 64 65" fill="none" xmlns="http://www.w3.org/2000/svg">
<circle cx="32.2143" cy="33.2143" r="30.2143" fill="#E52F35"/>
<path d="M49.542 34.2293V41.521C49.542 41.9078 49.3883 42.2787 49.1149 42.5522C48.8414 42.8257 48.4704 42.9793 48.0837 42.9793H46.6253C46.6253 44.1397 46.1644 45.2525 45.3439 46.0729C44.5234 46.8934 43.4106 47.3543 42.2503 47.3543C41.09 47.3543 39.9772 46.8934 39.1567 46.0729C38.3363 45.2525 37.8753 44.1397 37.8753 42.9793H29.1253C29.1253 44.1397 28.6644 45.2525 27.8439 46.0729C27.0234 46.8934 25.9106 47.3543 24.7503 47.3543C23.59 47.3543 22.4772 46.8934 21.6567 46.0729C20.8363 45.2525 20.3753 44.1397 20.3753 42.9793H18.917C18.5302 42.9793 18.1593 42.8257 17.8858 42.5522C17.6123 42.2787 17.4587 41.9078 17.4587 41.521V24.021C17.4587 22.8607 17.9196 21.7479 18.7401 20.9274C19.5605 20.1069 20.6733 19.646 21.8337 19.646H34.9587C36.119 19.646 37.2318 20.1069 38.0523 20.9274C38.8727 21.7479 39.3337 22.8607 39.3337 24.021V26.9377H42.2503C42.9295 26.9377 43.5994 27.0958 44.2069 27.3995C44.8144 27.7033 45.3428 28.1443 45.7503 28.6877L49.2503 33.3543C49.293 33.4177 49.3273 33.4863 49.3524 33.5585L49.4399 33.7189C49.5043 33.8816 49.5388 34.0544 49.542 34.2293ZM26.2087 42.9793C26.2087 42.6909 26.1231 42.4089 25.9629 42.1691C25.8026 41.9293 25.5749 41.7424 25.3084 41.632C25.0419 41.5216 24.7487 41.4927 24.4658 41.549C24.1829 41.6053 23.9231 41.7442 23.7191 41.9481C23.5152 42.1521 23.3763 42.4119 23.32 42.6948C23.2637 42.9777 23.2926 43.2709 23.403 43.5374C23.5134 43.8039 23.7003 44.0316 23.9401 44.1919C24.1799 44.3521 24.4619 44.4377 24.7503 44.4377C25.1371 44.4377 25.508 44.284 25.7815 44.0105C26.055 43.737 26.2087 43.3661 26.2087 42.9793ZM36.417 24.021C36.417 23.6342 36.2633 23.2633 35.9899 22.9898C35.7164 22.7163 35.3454 22.5627 34.9587 22.5627H21.8337C21.4469 22.5627 21.076 22.7163 20.8025 22.9898C20.529 23.2633 20.3753 23.6342 20.3753 24.021V40.0627H21.5128C21.9229 39.6115 22.4227 39.2511 22.9802 39.0044C23.5378 38.7577 24.1407 38.6303 24.7503 38.6303C25.36 38.6303 25.9629 38.7577 26.5204 39.0044C27.078 39.2511 27.5778 39.6115 27.9878 40.0627H36.417V24.021ZM39.3337 32.771H45.167L43.417 30.4377C43.2812 30.2565 43.105 30.1095 42.9025 30.0083C42.7 29.907 42.4767 29.8543 42.2503 29.8543H39.3337V32.771ZM43.7087 42.9793C43.7087 42.6909 43.6231 42.4089 43.4629 42.1691C43.3026 41.9293 43.0749 41.7424 42.8084 41.632C42.5419 41.5216 42.2487 41.4927 41.9658 41.549C41.6829 41.6053 41.4231 41.7442 41.2191 41.9481C41.0152 42.1521 40.8763 42.4119 40.82 42.6948C40.7637 42.9777 40.7926 43.2709 40.903 43.5374C41.0134 43.8039 41.2003 44.0316 41.4401 44.1919C41.6799 44.3521 41.9619 44.4377 42.2503 44.4377C42.6371 44.4377 43.008 44.284 43.2815 44.0105C43.555 43.737 43.7087 43.3661 43.7087 42.9793ZM46.6253 35.6877H39.3337V39.7418C40.1943 38.9726 41.3241 38.5747 42.4768 38.6348C43.6295 38.6949 44.7118 39.2081 45.4878 40.0627H46.6253V35.6877Z" fill="white"/>
</svg>
