<svg width="21" height="21" viewBox="0 0 21 21" fill="none" xmlns="http://www.w3.org/2000/svg">
<g clip-path="url(#clip0_121_1621)">
<path d="M1.15527 3.8335V8.8335H6.15527" stroke="white" stroke-width="1.5" stroke-linecap="round" stroke-linejoin="round"/>
<path d="M19.4893 17.1665V12.1665H14.4893" stroke="white" stroke-width="1.5" stroke-linecap="round" stroke-linejoin="round"/>
<path d="M17.3969 7.99998C16.9743 6.80564 16.256 5.73782 15.3091 4.89616C14.3621 4.05451 13.2174 3.46645 11.9817 3.18686C10.746 2.90727 9.45965 2.94527 8.24261 3.29729C7.02558 3.64932 5.91756 4.30391 5.02194 5.19998L1.15527 8.83331M19.4886 12.1666L15.6219 15.8C14.7263 16.6961 13.6183 17.3506 12.4013 17.7027C11.1842 18.0547 9.89786 18.0927 8.66218 17.8131C7.42649 17.5335 6.28177 16.9455 5.33483 16.1038C4.38788 15.2621 3.66958 14.1943 3.24694 13" stroke="white" stroke-width="1.5" stroke-linecap="round" stroke-linejoin="round"/>
</g>
<defs>
<clipPath id="clip0_121_1621">
<rect width="20" height="20" fill="white" transform="translate(0.322266 0.5)"/>
</clipPath>
</defs>
</svg>
