<svg width="62" height="62" viewBox="0 0 62 62" fill="none" xmlns="http://www.w3.org/2000/svg">
<circle cx="31.2154" cy="31.2144" r="30.2143" transform="rotate(180 31.2154 31.2144)" fill="#9197AE"/>
<path d="M42.9792 29.6281C43.5206 28.9127 43.8203 28.0361 43.8203 27.1241C43.8203 25.6771 43.0114 24.3075 41.7095 23.5437C41.3743 23.3471 40.9927 23.2437 40.6041 23.244H32.8762L33.0695 19.2834C33.1146 18.3262 32.7763 17.4175 32.1188 16.7246C31.7962 16.3831 31.407 16.1114 30.9752 15.9262C30.5434 15.7411 30.0782 15.6465 29.6084 15.6482C27.9326 15.6482 26.4502 16.7761 26.0055 18.3907L23.2372 28.4132H19.0703C18.4999 28.4132 18.0391 28.874 18.0391 29.4444V41.1749C18.0391 41.7453 18.4999 42.2061 19.0703 42.2061H38.4481C38.7446 42.2061 39.0347 42.1481 39.3021 42.0321C40.8361 41.3779 41.8255 39.8794 41.8255 38.2165C41.8255 37.8104 41.7675 37.4108 41.6515 37.0241C42.1929 36.3087 42.4926 35.4321 42.4926 34.5201C42.4926 34.114 42.4346 33.7144 42.3186 33.3277C42.86 32.6123 43.1597 31.7357 43.1597 30.8237C43.1532 30.4177 43.0952 30.0148 42.9792 29.6281ZM20.3594 39.8858V30.7335H22.9697V39.8858H20.3594ZM40.8684 28.5098L40.1626 29.1221L40.6105 29.9407C40.7581 30.2103 40.8346 30.5131 40.8329 30.8205C40.8329 31.3522 40.6009 31.8582 40.2013 32.2062L39.4955 32.8185L39.9435 33.6371C40.091 33.9067 40.1676 34.2095 40.1658 34.5169C40.1658 35.0486 39.9338 35.5546 39.5342 35.9026L38.8284 36.5149L39.2764 37.3335C39.4239 37.6031 39.5005 37.9059 39.4987 38.2133C39.4987 38.9351 39.0733 39.5861 38.4159 39.8826H25.0322V30.6303L28.2388 19.0127C28.3215 18.7149 28.4989 18.4522 28.7444 18.2644C28.9898 18.0765 29.2897 17.9738 29.5987 17.9718C29.8437 17.9718 30.0854 18.0427 30.2787 18.1877C30.5978 18.4261 30.7686 18.7871 30.7492 19.1706L30.4398 25.5643L40.5719 25.5643C41.1455 25.9156 41.5 26.5086 41.5 27.1241C41.5 27.6558 41.268 28.1586 40.8684 28.5098Z" fill="white"/>
</svg>
