<svg width="62" height="63" viewBox="0 0 62 63" fill="none" xmlns="http://www.w3.org/2000/svg">
<ellipse cx="31.2927" cy="31.2143" rx="30.2927" ry="30.2143" fill="#F12D3B"/>
<path d="M24.9899 29.2405C25.8305 29.2405 26.6522 28.9913 27.3511 28.5243C28.05 28.0573 28.5947 27.3935 28.9164 26.6169C29.2381 25.8403 29.3222 24.9858 29.1582 24.1614C28.9943 23.337 28.5895 22.5797 27.9951 21.9853C27.4007 21.3909 26.6435 20.9862 25.819 20.8222C24.9946 20.6582 24.1401 20.7424 23.3635 21.064C22.5869 21.3857 21.9232 21.9304 21.4562 22.6293C20.9892 23.3283 20.7399 24.1499 20.7399 24.9905C20.7411 26.1173 21.1893 27.1976 21.9861 27.9944C22.7828 28.7911 23.8631 29.2393 24.9899 29.2405ZM24.9899 23.5739C25.2701 23.5739 25.544 23.6569 25.777 23.8126C26.0099 23.9683 26.1915 24.1895 26.2987 24.4484C26.406 24.7072 26.434 24.9921 26.3794 25.2669C26.3247 25.5417 26.1898 25.7941 25.9916 25.9923C25.7935 26.1904 25.5411 26.3253 25.2663 26.38C24.9915 26.4346 24.7066 26.4066 24.4478 26.2993C24.1889 26.1921 23.9677 26.0105 23.812 25.7776C23.6563 25.5446 23.5732 25.2707 23.5732 24.9905C23.5735 24.6149 23.7228 24.2547 23.9885 23.9891C24.2541 23.7234 24.6143 23.5741 24.9899 23.5739ZM37.0094 32.7601C36.1689 32.7601 35.3472 33.0093 34.6483 33.4763C33.9494 33.9433 33.4046 34.6071 33.083 35.3837C32.7613 36.1602 32.6771 37.0148 32.8411 37.8392C33.0051 38.6636 33.4099 39.4209 34.0042 40.0153C34.5986 40.6096 35.3559 41.0144 36.1803 41.1784C37.0047 41.3424 37.8593 41.2582 38.6359 40.9365C39.4124 40.6149 40.0762 40.0701 40.5432 39.3712C41.0102 38.6723 41.2594 37.8506 41.2594 37.0101C41.2582 35.8833 40.8101 34.803 40.0133 34.0062C39.2165 33.2094 38.1362 32.7613 37.0094 32.7601ZM37.0094 38.4267C36.7293 38.4267 36.4554 38.3436 36.2224 38.188C35.9894 38.0323 35.8078 37.8111 35.7006 37.5522C35.5934 37.2933 35.5653 37.0085 35.62 36.7337C35.6747 36.4589 35.8096 36.2064 36.0077 36.0083C36.2058 35.8102 36.4583 35.6753 36.7331 35.6206C37.0079 35.566 37.2927 35.594 37.5516 35.7012C37.8104 35.8085 38.0317 35.99 38.1874 36.223C38.343 36.456 38.4261 36.7299 38.4261 37.0101C38.4259 37.3857 38.2765 37.7459 38.0109 38.0115C37.7453 38.2771 37.3851 38.4265 37.0094 38.4267ZM41.9179 20.082C41.7864 19.9505 41.6303 19.8461 41.4584 19.7749C41.2865 19.7036 41.1023 19.667 40.9163 19.667C40.7303 19.667 40.5461 19.7036 40.3742 19.7749C40.2023 19.8461 40.0462 19.9505 39.9147 20.082L20.0813 39.9154C19.9485 40.0466 19.8428 40.2028 19.7705 40.375C19.6983 40.5473 19.6607 40.7321 19.6602 40.9188C19.6596 41.1056 19.6959 41.2906 19.7671 41.4633C19.8383 41.636 19.943 41.7928 20.0751 41.9249C20.2071 42.057 20.364 42.1616 20.5367 42.2328C20.7093 42.304 20.8944 42.3404 21.0812 42.3398C21.2679 42.3392 21.4527 42.3016 21.6249 42.2294C21.7972 42.1571 21.9534 42.0514 22.0846 41.9185L41.9179 22.0852C42.0495 21.9537 42.1539 21.7976 42.2251 21.6257C42.2963 21.4538 42.3329 21.2696 42.3329 21.0836C42.3329 20.8976 42.2963 20.7134 42.2251 20.5415C42.1539 20.3697 42.0495 20.2135 41.9179 20.082Z" fill="white"/>
</svg>
