<svg width="79" height="48" viewBox="0 0 79 48" fill="none" xmlns="http://www.w3.org/2000/svg">
<path d="M1.62161 39.1787H0.479392L3.78304 30.1816H4.90768L8.21132 39.1787H7.06911L4.3805 31.6049H4.31021L1.62161 39.1787ZM2.04335 35.6642H6.64737V36.6307H2.04335V35.6642ZM43.1983 39.1787V30.1816H48.6282V31.148H44.2878V33.9597H46.5723C47.2166 33.9597 47.7599 34.0651 48.2021 34.276C48.6473 34.4868 48.9841 34.7841 49.2125 35.1678C49.4439 35.5514 49.5596 36.0039 49.5596 36.5253C49.5596 37.0466 49.4439 37.5064 49.2125 37.9047C48.9841 38.303 48.6473 38.6149 48.2021 38.8404C47.7599 39.066 47.2166 39.1787 46.5723 39.1787H43.1983ZM44.2878 38.2298H46.5723C46.9823 38.2298 47.3293 38.1478 47.6134 37.9838C47.9004 37.8168 48.1172 37.603 48.2636 37.3424C48.413 37.0788 48.4877 36.8006 48.4877 36.5077C48.4877 36.0772 48.3222 35.7067 47.9912 35.3962C47.6603 35.0828 47.1873 34.9261 46.5723 34.9261H44.2878V38.2298Z" fill="#E6340D"/>
<path d="M9.08556 33.3973V32.4308H14.5682V33.3973H12.3541V39.1787H11.3173V33.3973H9.08556ZM14.9153 39.1787V38.2122H15.1613C15.3634 38.2122 15.5318 38.1727 15.6665 38.0936C15.8012 38.0116 15.9096 37.8696 15.9916 37.6675C16.0765 37.4625 16.1409 37.1784 16.1849 36.8152C16.2317 36.4491 16.2654 35.9834 16.2859 35.4182L16.4089 32.4308H20.9075V39.1787H19.8707V33.3973H17.393L17.2876 35.8048C17.2641 36.3583 17.2143 36.846 17.1382 37.2677C17.065 37.6865 16.9522 38.038 16.7999 38.322C16.6506 38.6061 16.4514 38.8199 16.2025 38.9634C15.9535 39.107 15.6416 39.1787 15.2667 39.1787H14.9153ZM24.7954 39.3369C24.3678 39.3369 23.9798 39.2563 23.6313 39.0952C23.2827 38.9312 23.006 38.6955 22.801 38.3879C22.5959 38.0775 22.4934 37.7026 22.4934 37.2633C22.4934 36.8767 22.5696 36.5633 22.7219 36.3232C22.8742 36.0801 23.0777 35.8897 23.3325 35.7521C23.5873 35.6144 23.8685 35.5119 24.176 35.4445C24.4865 35.3742 24.7984 35.3186 25.1117 35.2776C25.5218 35.2249 25.8542 35.1853 26.109 35.159C26.3667 35.1297 26.5542 35.0814 26.6713 35.014C26.7914 34.9466 26.8514 34.8295 26.8514 34.6626V34.6274C26.8514 34.194 26.7328 33.8571 26.4956 33.617C26.2613 33.3768 25.9054 33.2568 25.4281 33.2568C24.9331 33.2568 24.545 33.3651 24.2639 33.5818C23.9827 33.7986 23.785 34.0299 23.6708 34.276L22.6867 33.9245C22.8625 33.5145 23.0968 33.1952 23.3896 32.9668C23.6854 32.7354 24.0076 32.5744 24.3561 32.4836C24.7076 32.3898 25.0532 32.343 25.3929 32.343C25.6096 32.343 25.8586 32.3693 26.1397 32.4221C26.4238 32.4718 26.6977 32.5758 26.9613 32.734C27.2278 32.8921 27.4489 33.1308 27.6246 33.4501C27.8004 33.7693 27.8882 34.1969 27.8882 34.7328V39.1787H26.8514V38.2649H26.7987C26.7284 38.4114 26.6113 38.5681 26.4473 38.735C26.2833 38.9019 26.0651 39.044 25.7927 39.1611C25.5203 39.2783 25.1879 39.3369 24.7954 39.3369ZM24.9536 38.4055C25.3636 38.4055 25.7092 38.325 25.9904 38.1639C26.2745 38.0028 26.4883 37.7949 26.6318 37.5401C26.7782 37.2853 26.8514 37.0173 26.8514 36.7361V35.7872C26.8075 35.8399 26.7109 35.8882 26.5615 35.9322C26.415 35.9732 26.2452 36.0098 26.0519 36.042C25.8615 36.0713 25.6755 36.0977 25.494 36.1211C25.3153 36.1416 25.1703 36.1592 25.059 36.1738C24.7896 36.2089 24.5377 36.2661 24.3034 36.3451C24.072 36.4213 23.8846 36.537 23.7411 36.6922C23.6005 36.8445 23.5302 37.0524 23.5302 37.316C23.5302 37.6763 23.6635 37.9486 23.93 38.1331C24.1994 38.3147 24.5406 38.4055 24.9536 38.4055ZM34.2967 35.3303V36.2968H30.5713V35.3303H34.2967ZM30.8173 32.4308V39.1787H29.7806V32.4308H30.8173ZM35.0875 32.4308V39.1787H34.0507V32.4308H35.0875ZM36.0628 33.3973V32.4308H41.5454V33.3973H39.3313V39.1787H38.2945V33.3973H36.0628ZM54.0417 39.3193C53.3915 39.3193 52.8307 39.1758 52.3591 38.8888C51.8905 38.5988 51.5288 38.1946 51.274 37.6763C51.0221 37.1549 50.8962 36.5487 50.8962 35.8575C50.8962 35.1663 51.0221 34.5571 51.274 34.0299C51.5288 33.4998 51.8832 33.0869 52.3372 32.7911C52.794 32.4923 53.3271 32.343 53.9363 32.343C54.2877 32.343 54.6348 32.4016 54.9774 32.5187C55.3201 32.6359 55.632 32.8262 55.9132 33.0898C56.1943 33.3505 56.4184 33.6961 56.5853 34.1266C56.7523 34.5571 56.8357 35.0872 56.8357 35.7169V36.1562H51.6343V35.26H55.7814C55.7814 34.8793 55.7052 34.5396 55.5529 34.2408C55.4036 33.9421 55.1898 33.7063 54.9115 33.5335C54.6362 33.3607 54.3111 33.2743 53.9363 33.2743C53.5233 33.2743 53.166 33.3768 52.8643 33.5818C52.5656 33.7839 52.3357 34.0475 52.1746 34.3726C52.0135 34.6977 51.933 35.0462 51.933 35.4182V36.0156C51.933 36.5253 52.0208 36.9572 52.1966 37.3116C52.3752 37.6631 52.6227 37.9311 52.939 38.1156C53.2553 38.2972 53.6229 38.3879 54.0417 38.3879C54.3141 38.3879 54.5601 38.3499 54.7797 38.2737C55.0023 38.1946 55.1942 38.0775 55.3552 37.9223C55.5163 37.7641 55.6408 37.5679 55.7287 37.3336L56.7303 37.6148C56.6249 37.9545 56.4477 38.2532 56.1987 38.511C55.9498 38.7658 55.6423 38.9649 55.2762 39.1084C54.9101 39.249 54.4986 39.3193 54.0417 39.3193ZM57.7847 33.3973V32.4308H63.2673V33.3973H61.0532V39.1787H60.0164V33.3973H57.7847ZM67.1706 39.3193C66.5614 39.3193 66.0269 39.1743 65.5671 38.8844C65.1102 38.5944 64.7529 38.1888 64.4952 37.6675C64.2404 37.1461 64.113 36.537 64.113 35.8399C64.113 35.137 64.2404 34.5234 64.4952 33.9992C64.7529 33.4749 65.1102 33.0678 65.5671 32.7779C66.0269 32.488 66.5614 32.343 67.1706 32.343C67.7798 32.343 68.3128 32.488 68.7697 32.7779C69.2295 33.0678 69.5868 33.4749 69.8416 33.9992C70.0994 34.5234 70.2282 35.137 70.2282 35.8399C70.2282 36.537 70.0994 37.1461 69.8416 37.6675C69.5868 38.1888 69.2295 38.5944 68.7697 38.8844C68.3128 39.1743 67.7798 39.3193 67.1706 39.3193ZM67.1706 38.3879C67.6334 38.3879 68.0141 38.2693 68.3128 38.0321C68.6116 37.7949 68.8327 37.483 68.9762 37.0964C69.1197 36.7098 69.1915 36.291 69.1915 35.8399C69.1915 35.3889 69.1197 34.9686 68.9762 34.5791C68.8327 34.1896 68.6116 33.8747 68.3128 33.6346C68.0141 33.3944 67.6334 33.2743 67.1706 33.2743C66.7079 33.2743 66.3271 33.3944 66.0284 33.6346C65.7297 33.8747 65.5085 34.1896 65.365 34.5791C65.2215 34.9686 65.1498 35.3889 65.1498 35.8399C65.1498 36.291 65.2215 36.7098 65.365 37.0964C65.5085 37.483 65.7297 37.7949 66.0284 38.0321C66.3271 38.2693 66.7079 38.3879 67.1706 38.3879ZM76.327 35.3303V36.2968H72.6016V35.3303H76.327ZM72.8476 32.4308V39.1787H71.8109V32.4308H72.8476ZM77.1178 32.4308V39.1787H76.081V32.4308H77.1178Z" fill="#010005"/>
<path fill-rule="evenodd" clip-rule="evenodd" d="M34.3573 29.6377L27.8553 29.6235L15.5835 20.9567L3.47617 29.6235H0.0643837L0.0322266 27.9057H2.39726L5.22672 25.8769L5.16241 20.9355L6.85938 20.939L6.94869 24.6433L15.5478 18.486L28.8949 27.9128L32.7175 27.9057L32.7211 3.70073L18.956 13.5552L18.9525 18.4436L17.1626 17.1817V12.2863L34.4073 0L34.3573 29.6377Z" fill="#E6340D"/>
<path d="M17.8199 27.5273H16.0693V29.2593H17.8199V27.5273Z" fill="black"/>
<path d="M15.1871 27.5273H13.4365V29.2593H15.1871V27.5273Z" fill="black"/>
<path d="M17.7838 25.0605H16.0332V26.7925H17.7838V25.0605Z" fill="black"/>
<path d="M15.1519 25.0605H13.4014V26.7925H15.1519V25.0605Z" fill="black"/>
<path fill-rule="evenodd" clip-rule="evenodd" d="M36.2434 29.6308L45.2248 29.6591L45.2284 27.8989L38.0119 27.9024V9.88652L50.2872 18.5569L50.4193 28.4361L52.1735 29.6732L52.0056 17.3233L36.2256 6.17871L36.2434 29.6308Z" fill="#010005"/>
<path fill-rule="evenodd" clip-rule="evenodd" d="M51.9733 14.8556L51.9411 12.3849L36.1611 1.24023L36.1933 3.70739L51.9733 14.8556Z" fill="#E6340D"/>
<path fill-rule="evenodd" clip-rule="evenodd" d="M69.5076 27.8984L69.5433 29.7081L66.0672 29.701L53.7919 21.0306L53.7598 18.5635L66.9818 27.9019L69.5076 27.8984Z" fill="#010005"/>
<path fill-rule="evenodd" clip-rule="evenodd" d="M69.4759 24.7667C66.6786 17.2274 60.2051 12.4133 50.1555 8.67366L43.1426 3.72168C59.3584 7.98442 67.2502 15.2233 69.4759 24.7667Z" fill="#010005"/>
<path d="M55.8287 27.75H54.0781V29.482H55.8287V27.75Z" fill="black"/>
<path d="M55.8287 25.248H54.0781V26.98H55.8287V25.248Z" fill="black"/>
<path fill-rule="evenodd" clip-rule="evenodd" d="M0 24.6293C2.79731 17.09 8.83492 12.3465 18.8809 8.60692L25.7617 3.67969C14.3652 6.67703 2.89734 12.2087 0 24.6293Z" fill="#E6340D"/>
<path fill-rule="evenodd" clip-rule="evenodd" d="M20.6377 13.852L31.0338 6.51062V8.95657L20.6377 16.298V13.852Z" fill="#010005"/>
<path d="M1.62161 39.1787H0.479392L3.78304 30.1816H4.90768L8.21132 39.1787H7.06911L4.3805 31.6049H4.31021L1.62161 39.1787ZM2.04335 35.6642H6.64737V36.6307H2.04335V35.6642ZM43.1983 39.1787V30.1816H48.6282V31.148H44.2878V33.9597H46.5723C47.2166 33.9597 47.7599 34.0651 48.2021 34.276C48.6473 34.4868 48.9841 34.7841 49.2125 35.1678C49.4439 35.5514 49.5596 36.0039 49.5596 36.5253C49.5596 37.0466 49.4439 37.5064 49.2125 37.9047C48.9841 38.303 48.6473 38.6149 48.2021 38.8404C47.7599 39.066 47.2166 39.1787 46.5723 39.1787H43.1983ZM44.2878 38.2298H46.5723C46.9823 38.2298 47.3293 38.1478 47.6134 37.9838C47.9004 37.8168 48.1172 37.603 48.2636 37.3424C48.413 37.0788 48.4877 36.8006 48.4877 36.5077C48.4877 36.0772 48.3222 35.7067 47.9912 35.3962C47.6603 35.0828 47.1873 34.9261 46.5723 34.9261H44.2878V38.2298Z" fill="#DD0327"/>
<path d="M9.08556 33.3973V32.4308H14.5682V33.3973H12.3541V39.1787H11.3173V33.3973H9.08556ZM14.9153 39.1787V38.2122H15.1613C15.3634 38.2122 15.5318 38.1727 15.6665 38.0936C15.8012 38.0116 15.9096 37.8696 15.9916 37.6675C16.0765 37.4625 16.1409 37.1784 16.1849 36.8152C16.2317 36.4491 16.2654 35.9834 16.2859 35.4182L16.4089 32.4308H20.9075V39.1787H19.8707V33.3973H17.393L17.2876 35.8048C17.2641 36.3583 17.2143 36.846 17.1382 37.2677C17.065 37.6865 16.9522 38.038 16.7999 38.322C16.6506 38.6061 16.4514 38.8199 16.2025 38.9634C15.9535 39.107 15.6416 39.1787 15.2667 39.1787H14.9153ZM24.7954 39.3369C24.3678 39.3369 23.9798 39.2563 23.6313 39.0952C23.2827 38.9312 23.006 38.6955 22.801 38.3879C22.5959 38.0775 22.4934 37.7026 22.4934 37.2633C22.4934 36.8767 22.5696 36.5633 22.7219 36.3232C22.8742 36.0801 23.0777 35.8897 23.3325 35.7521C23.5873 35.6144 23.8685 35.5119 24.176 35.4445C24.4865 35.3742 24.7984 35.3186 25.1117 35.2776C25.5218 35.2249 25.8542 35.1853 26.109 35.159C26.3667 35.1297 26.5542 35.0814 26.6713 35.014C26.7914 34.9466 26.8514 34.8295 26.8514 34.6626V34.6274C26.8514 34.194 26.7328 33.8571 26.4956 33.617C26.2613 33.3768 25.9054 33.2568 25.4281 33.2568C24.9331 33.2568 24.545 33.3651 24.2639 33.5818C23.9827 33.7986 23.785 34.0299 23.6708 34.276L22.6867 33.9245C22.8625 33.5145 23.0968 33.1952 23.3896 32.9668C23.6854 32.7354 24.0076 32.5744 24.3561 32.4836C24.7076 32.3898 25.0532 32.343 25.3929 32.343C25.6096 32.343 25.8586 32.3693 26.1397 32.4221C26.4238 32.4718 26.6977 32.5758 26.9613 32.734C27.2278 32.8921 27.4489 33.1308 27.6246 33.4501C27.8004 33.7693 27.8882 34.1969 27.8882 34.7328V39.1787H26.8514V38.2649H26.7987C26.7284 38.4114 26.6113 38.5681 26.4473 38.735C26.2833 38.9019 26.0651 39.044 25.7927 39.1611C25.5203 39.2783 25.1879 39.3369 24.7954 39.3369ZM24.9536 38.4055C25.3636 38.4055 25.7092 38.325 25.9904 38.1639C26.2745 38.0028 26.4883 37.7949 26.6318 37.5401C26.7782 37.2853 26.8514 37.0173 26.8514 36.7361V35.7872C26.8075 35.8399 26.7109 35.8882 26.5615 35.9322C26.415 35.9732 26.2452 36.0098 26.0519 36.042C25.8615 36.0713 25.6755 36.0977 25.494 36.1211C25.3153 36.1416 25.1703 36.1592 25.059 36.1738C24.7896 36.2089 24.5377 36.2661 24.3034 36.3451C24.072 36.4213 23.8846 36.537 23.7411 36.6922C23.6005 36.8445 23.5302 37.0524 23.5302 37.316C23.5302 37.6763 23.6635 37.9486 23.93 38.1331C24.1994 38.3147 24.5406 38.4055 24.9536 38.4055ZM34.2967 35.3303V36.2968H30.5713V35.3303H34.2967ZM30.8173 32.4308V39.1787H29.7806V32.4308H30.8173ZM35.0875 32.4308V39.1787H34.0507V32.4308H35.0875ZM36.0628 33.3973V32.4308H41.5454V33.3973H39.3313V39.1787H38.2945V33.3973H36.0628ZM54.0417 39.3193C53.3915 39.3193 52.8307 39.1758 52.3591 38.8888C51.8905 38.5988 51.5288 38.1946 51.274 37.6763C51.0221 37.1549 50.8962 36.5487 50.8962 35.8575C50.8962 35.1663 51.0221 34.5571 51.274 34.0299C51.5288 33.4998 51.8832 33.0869 52.3372 32.7911C52.794 32.4923 53.3271 32.343 53.9363 32.343C54.2877 32.343 54.6348 32.4016 54.9774 32.5187C55.3201 32.6359 55.632 32.8262 55.9132 33.0898C56.1943 33.3505 56.4184 33.6961 56.5853 34.1266C56.7523 34.5571 56.8357 35.0872 56.8357 35.7169V36.1562H51.6343V35.26H55.7814C55.7814 34.8793 55.7052 34.5396 55.5529 34.2408C55.4036 33.9421 55.1898 33.7063 54.9115 33.5335C54.6362 33.3607 54.3111 33.2743 53.9363 33.2743C53.5233 33.2743 53.166 33.3768 52.8643 33.5818C52.5656 33.7839 52.3357 34.0475 52.1746 34.3726C52.0135 34.6977 51.933 35.0462 51.933 35.4182V36.0156C51.933 36.5253 52.0208 36.9572 52.1966 37.3116C52.3752 37.6631 52.6227 37.9311 52.939 38.1156C53.2553 38.2972 53.6229 38.3879 54.0417 38.3879C54.3141 38.3879 54.5601 38.3499 54.7797 38.2737C55.0023 38.1946 55.1942 38.0775 55.3552 37.9223C55.5163 37.7641 55.6408 37.5679 55.7287 37.3336L56.7303 37.6148C56.6249 37.9545 56.4477 38.2532 56.1987 38.511C55.9498 38.7658 55.6423 38.9649 55.2762 39.1084C54.9101 39.249 54.4986 39.3193 54.0417 39.3193ZM57.7847 33.3973V32.4308H63.2673V33.3973H61.0532V39.1787H60.0164V33.3973H57.7847ZM67.1706 39.3193C66.5614 39.3193 66.0269 39.1743 65.5671 38.8844C65.1102 38.5944 64.7529 38.1888 64.4952 37.6675C64.2404 37.1461 64.113 36.537 64.113 35.8399C64.113 35.137 64.2404 34.5234 64.4952 33.9992C64.7529 33.4749 65.1102 33.0678 65.5671 32.7779C66.0269 32.488 66.5614 32.343 67.1706 32.343C67.7798 32.343 68.3128 32.488 68.7697 32.7779C69.2295 33.0678 69.5868 33.4749 69.8416 33.9992C70.0994 34.5234 70.2282 35.137 70.2282 35.8399C70.2282 36.537 70.0994 37.1461 69.8416 37.6675C69.5868 38.1888 69.2295 38.5944 68.7697 38.8844C68.3128 39.1743 67.7798 39.3193 67.1706 39.3193ZM67.1706 38.3879C67.6334 38.3879 68.0141 38.2693 68.3128 38.0321C68.6116 37.7949 68.8327 37.483 68.9762 37.0964C69.1197 36.7098 69.1915 36.291 69.1915 35.8399C69.1915 35.3889 69.1197 34.9686 68.9762 34.5791C68.8327 34.1896 68.6116 33.8747 68.3128 33.6346C68.0141 33.3944 67.6334 33.2743 67.1706 33.2743C66.7079 33.2743 66.3271 33.3944 66.0284 33.6346C65.7297 33.8747 65.5085 34.1896 65.365 34.5791C65.2215 34.9686 65.1498 35.3889 65.1498 35.8399C65.1498 36.291 65.2215 36.7098 65.365 37.0964C65.5085 37.483 65.7297 37.7949 66.0284 38.0321C66.3271 38.2693 66.7079 38.3879 67.1706 38.3879ZM76.327 35.3303V36.2968H72.6016V35.3303H76.327ZM72.8476 32.4308V39.1787H71.8109V32.4308H72.8476ZM77.1178 32.4308V39.1787H76.081V32.4308H77.1178Z" fill="#273043"/>
<path fill-rule="evenodd" clip-rule="evenodd" d="M34.3573 29.6377L27.8553 29.6235L15.5835 20.9567L3.47617 29.6235H0.0643837L0.0322266 27.9057H2.39726L5.22672 25.8769L5.16241 20.9355L6.85938 20.939L6.94869 24.6433L15.5478 18.486L28.8949 27.9128L32.7175 27.9057L32.7211 3.70073L18.956 13.5552L18.9525 18.4436L17.1626 17.1817V12.2863L34.4073 0L34.3573 29.6377Z" fill="#DD0327"/>
<path d="M17.8199 27.5273H16.0693V29.2593H17.8199V27.5273Z" fill="#273043"/>
<path d="M15.1871 27.5273H13.4365V29.2593H15.1871V27.5273Z" fill="#273043"/>
<path d="M17.7838 25.0605H16.0332V26.7925H17.7838V25.0605Z" fill="#273043"/>
<path d="M15.1519 25.0605H13.4014V26.7925H15.1519V25.0605Z" fill="#273043"/>
<path fill-rule="evenodd" clip-rule="evenodd" d="M36.2434 29.6308L45.2248 29.6591L45.2284 27.8989L38.0119 27.9024V9.88652L50.2872 18.5569L50.4193 28.4361L52.1735 29.6732L52.0056 17.3233L36.2256 6.17871L36.2434 29.6308Z" fill="#273043"/>
<path fill-rule="evenodd" clip-rule="evenodd" d="M51.9733 14.8556L51.9411 12.3849L36.1611 1.24023L36.1933 3.70739L51.9733 14.8556Z" fill="#DD0327"/>
<path fill-rule="evenodd" clip-rule="evenodd" d="M69.5076 27.8984L69.5433 29.7081L66.0672 29.701L53.7919 21.0306L53.7598 18.5635L66.9818 27.9019L69.5076 27.8984Z" fill="#273043"/>
<path fill-rule="evenodd" clip-rule="evenodd" d="M69.4759 24.7667C66.6786 17.2274 60.2051 12.4133 50.1555 8.67366L43.1426 3.72168C59.3584 7.98442 67.2502 15.2233 69.4759 24.7667Z" fill="#273043"/>
<path d="M55.8287 27.75H54.0781V29.482H55.8287V27.75Z" fill="#273043"/>
<path d="M55.8287 25.248H54.0781V26.98H55.8287V25.248Z" fill="#273043"/>
<path fill-rule="evenodd" clip-rule="evenodd" d="M0 24.6293C2.79731 17.09 8.83492 12.3465 18.8809 8.60692L25.7617 3.67969C14.3652 6.67703 2.89734 12.2087 0 24.6293Z" fill="#DD0327"/>
<path fill-rule="evenodd" clip-rule="evenodd" d="M20.6377 13.8521L31.0338 6.51074V8.9567L20.6377 16.2981V13.8521Z" fill="#273043"/>
<path fill-rule="evenodd" clip-rule="evenodd" d="M34.4033 4.13147L34.4069 4.12793L34.4033 4.35414V4.13147Z" fill="#010005"/>
</svg>
