<svg width="75" height="50" viewBox="0 0 75 50" fill="none" xmlns="http://www.w3.org/2000/svg">
<g clip-path="url(#clip0_971_238)">
<path fill-rule="evenodd" clip-rule="evenodd" d="M5.31445 48.9999L10.7602 34.7736H12.6597L18.1641 48.9999H15.4969L14.0798 45.3306H9.43626L7.97873 48.9999H5.31445ZM10.0675 43.0406H13.2602L11.7306 38.6017L11.672 38.0744L11.6163 38.6017L10.0685 43.0406H10.0675ZM20.8284 48.9999V37.3246H18.4226V34.7705H25.6967V37.3246H23.2534V48.9999H20.8284ZM31.646 38.9431L31.5902 38.4398L31.5307 38.9431L28.6214 48.9999H25.9388L30.8062 34.7736H32.7057L37.6327 48.9999H34.7608L31.646 38.9431ZM37.8719 48.9999L43.3177 34.7736H45.2172L50.7225 48.9999H48.0553L46.6382 45.3306H41.9947L40.5371 48.9999H37.8729H37.8719ZM42.6249 43.0406H45.8177L44.2881 38.6017L44.2295 38.0744L44.1737 38.6017L42.6259 43.0406H42.6249ZM52.0619 48.9999V34.7736H54.4859V40.4666H59.1487V34.7736H61.592V48.9999H59.1487V43.0406H54.4859V48.9999H52.0619ZM65.4342 48.9999V37.3246H63.0283V34.7705H70.3025V37.3246H67.8592V48.9999H65.4342Z" fill="#F12D3B"/>
<path fill-rule="evenodd" clip-rule="evenodd" d="M8.71362 25.5848H1.43945L37.8987 1L74.3589 25.5848H67.0847C67.6544 24.1897 67.1856 23.1706 66.0201 22.4031C56.6466 15.9112 47.2731 9.41942 37.8987 2.9276C28.5252 9.41942 19.1517 15.9112 9.77722 22.4031C8.61178 23.1695 8.14291 24.1887 8.71266 25.5848H8.71362Z" fill="#F12D3B"/>
<path fill-rule="evenodd" clip-rule="evenodd" d="M37.8978 2.92871L9.77734 22.4031L37.8978 5.14556L66.0193 22.4031L37.8978 2.92871Z" fill="#F12D3B"/>
<path fill-rule="evenodd" clip-rule="evenodd" d="M44.8182 17.0045H46.7696V19.1253H44.8182V17.0045ZM38.1282 11.8921C39.0083 11.9485 39.8087 12.3307 40.4284 12.9279L38.1282 15.4278V11.8921ZM40.7531 13.2809L38.2233 16.0303H41.7129C41.7129 14.9756 41.3498 14.0129 40.7531 13.2809ZM37.5738 16.0303H34.0842C34.0842 14.9662 34.4532 13.9972 35.0585 13.2631L37.5748 16.0292H37.5738V16.0303ZM35.3842 12.9144L37.669 15.4257V11.8942C36.7956 11.9506 36.002 12.3265 35.3842 12.9144ZM34.0842 23.1768H36.0356V25.2976H34.0842V23.1768ZM34.0842 20.0912H36.0356V22.212H34.0842V20.0912ZM34.0842 17.0056H36.0356V19.1263H34.0842V17.0056ZM36.8782 23.1758H38.8296V25.2965H36.8782V23.1758ZM36.8782 20.0901H38.8296V22.2109H36.8782V20.0901ZM36.8782 17.0045H38.8296V19.1253H36.8782V17.0045ZM39.6722 23.1747H41.6236V25.2955H39.6722V23.1747ZM39.6722 20.0891H41.6236V22.2099H39.6722V20.0891ZM39.6722 17.0035H41.6236V19.1243H39.6722V17.0035ZM29.0266 23.1737H30.978V25.2945H29.0266V23.1737ZM29.0266 20.0881H30.978V22.2088H29.0266V20.0881ZM26.3652 23.1737H28.3166V25.2945H26.3652V23.1737ZM26.3652 20.0881H28.3166V22.2088H26.3652V20.0881ZM29.0266 17.0024H30.978V19.1232H29.0266V17.0024ZM26.3652 17.0024H28.3166V19.1232H26.3652V17.0024ZM47.4787 23.1726H49.43V25.2934H47.4787V23.1726ZM47.4787 20.087H49.43V22.2078H47.4787V20.087ZM44.8173 23.1726H46.7686V25.2934H44.8173V23.1726ZM44.8173 20.087H46.7686V22.2078H44.8173V20.087ZM47.4787 17.0014H49.43V19.1222H47.4787V17.0014Z" fill="#F12D3B"/>
<path d="M2.1664 31.8165C1.95599 31.8165 1.75999 31.7549 1.5784 31.6306C1.40449 31.5126 1.26422 31.3487 1.15949 31.1409C1.05284 30.9289 1 30.7002 1 30.4538C1 30.2074 1.05284 29.9797 1.15949 29.7688C1.26326 29.5641 1.40353 29.4023 1.5784 29.2843C1.75903 29.1621 1.95407 29.1016 2.1664 29.1016C2.29323 29.1016 2.41621 29.1256 2.53727 29.1726C2.63623 29.2133 2.73231 29.2718 2.82551 29.348C2.84472 29.3657 2.85433 29.3856 2.85433 29.4086C2.85433 29.4211 2.85145 29.4326 2.84664 29.442L2.58243 29.8837C2.57186 29.9014 2.55841 29.9098 2.54015 29.9098C2.52286 29.9098 2.50556 29.9014 2.48827 29.8847C2.39315 29.796 2.28554 29.7521 2.1664 29.7521C1.99923 29.7521 1.85895 29.82 1.74558 29.9547C1.63412 30.0883 1.5784 30.2544 1.5784 30.4538C1.5784 30.6533 1.63412 30.8193 1.74558 30.9561C1.85991 31.0929 2.00019 31.1618 2.1664 31.1618C2.27401 31.1618 2.3797 31.119 2.48346 31.0344C2.50845 31.0135 2.52958 31.002 2.54592 31.002C2.56417 31.002 2.57954 31.0125 2.59107 31.0344L2.83992 31.4625C2.85337 31.4813 2.8601 31.4991 2.8601 31.5137C2.8601 31.5346 2.84664 31.5554 2.81878 31.5753C2.72655 31.6515 2.63239 31.7079 2.53439 31.7455C2.41909 31.7925 2.29611 31.8165 2.16544 31.8165H2.1664Z" fill="#F12D3B"/>
<path d="M4.15174 31.7768H3.71458C3.67038 31.7768 3.64732 31.7506 3.64732 31.6984V29.7479H3.1112C3.067 29.7479 3.04395 29.7218 3.04395 29.6695V29.2185C3.04395 29.1662 3.06604 29.1401 3.1112 29.1401H4.75896C4.80316 29.1401 4.82622 29.1662 4.82622 29.2185V29.6695C4.82622 29.7218 4.80412 29.7479 4.75896 29.7479H4.21996V31.6984C4.21996 31.7506 4.1969 31.7768 4.15174 31.7768Z" fill="#F12D3B"/>
<path d="M5.63024 31.7767H5.17962C5.13735 31.7767 5.11621 31.7506 5.11621 31.6984V29.2194C5.11621 29.1944 5.12198 29.1756 5.13351 29.162C5.14503 29.1484 5.16041 29.1411 5.17962 29.1411H6.15483C6.28742 29.1411 6.4104 29.1829 6.52377 29.2675C6.62562 29.3458 6.70825 29.4523 6.76974 29.5891C6.82834 29.7186 6.85813 29.8564 6.85813 30.0047C6.85813 30.1112 6.8418 30.2156 6.80817 30.3169C6.77454 30.4182 6.72746 30.5101 6.66693 30.5905C6.53146 30.768 6.36428 30.8567 6.1654 30.8567H5.70037V31.6994C5.70037 31.7516 5.67731 31.7777 5.63024 31.7777V31.7767ZM5.70037 30.297H6.028C6.09814 30.297 6.15483 30.2668 6.19999 30.2052C6.24034 30.1456 6.26052 30.0778 6.26052 30.0015C6.26052 29.9253 6.24034 29.8595 6.19999 29.799C6.15483 29.7363 6.09718 29.705 6.028 29.705H5.70037V30.2981V30.297Z" fill="#F12D3B"/>
<path d="M8.16163 31.8164C7.9493 31.8164 7.75329 31.7548 7.57555 31.6316C7.40164 31.5105 7.26233 31.3486 7.15952 31.145C7.05384 30.9403 7.00195 30.7127 7.00195 30.4621C7.00195 30.2115 7.0548 29.9859 7.15952 29.775C7.26233 29.5683 7.40164 29.4054 7.57555 29.2874C7.75714 29.1641 7.95218 29.1025 8.16163 29.1025C8.37108 29.1025 8.56612 29.1641 8.74771 29.2874C8.92738 29.4116 9.06574 29.5745 9.16566 29.775C9.27135 29.988 9.32323 30.2167 9.32323 30.4621C9.32323 30.7075 9.27039 30.9383 9.16566 31.145C9.0667 31.3465 8.92738 31.5084 8.74771 31.6316C8.57285 31.7548 8.37685 31.8164 8.16163 31.8164ZM8.16163 31.1617C8.32785 31.1617 8.4662 31.0938 8.57573 30.9581C8.68334 30.8255 8.73715 30.6605 8.73715 30.4611C8.73715 30.2616 8.68334 30.0945 8.57573 29.9619C8.46428 29.8251 8.32593 29.7562 8.16163 29.7562C7.99733 29.7562 7.85898 29.8251 7.75041 29.9619C7.64184 30.0956 7.58804 30.2616 7.58804 30.4611C7.58804 30.6605 7.64184 30.8244 7.75041 30.9581C7.85898 31.0938 7.99637 31.1617 8.16163 31.1617Z" fill="#F12D3B"/>
<path d="M10.1419 31.7767H9.69703C9.64707 31.7767 9.62305 31.7506 9.62305 31.6984V29.2194C9.62305 29.1985 9.63073 29.1797 9.64611 29.1641C9.66148 29.1484 9.67877 29.1411 9.69703 29.1411H10.1188C10.14 29.1411 10.1572 29.1484 10.1688 29.163C10.1813 29.1777 10.187 29.1965 10.187 29.2194V30.6583L10.948 29.2194C10.9778 29.1672 11.0133 29.1411 11.0556 29.1411H11.5475C11.5677 29.1411 11.584 29.1484 11.5956 29.163C11.6071 29.1777 11.6128 29.1965 11.6128 29.2194V31.6984C11.6128 31.7506 11.5908 31.7767 11.5475 31.7767H11.1238C11.0738 31.7767 11.0498 31.7506 11.0498 31.6984V30.1634L10.2514 31.6984C10.2245 31.7506 10.188 31.7767 10.1419 31.7767Z" fill="#F12D3B"/>
<path d="M13.0248 31.7768H12.5876C12.5434 31.7768 12.5204 31.7506 12.5204 31.6984V29.7479H11.9842C11.9401 29.7479 11.917 29.7218 11.917 29.6695V29.2185C11.917 29.1662 11.9391 29.1401 11.9842 29.1401H13.632C13.6762 29.1401 13.6993 29.1662 13.6993 29.2185V29.6695C13.6993 29.7218 13.6772 29.7479 13.632 29.7479H13.093V31.6984C13.093 31.7506 13.0699 31.7768 13.0248 31.7768Z" fill="#F12D3B"/>
<path d="M15.5928 31.7767H14.0526C14.0084 31.7767 13.9854 31.7506 13.9854 31.6984V29.2194C13.9854 29.1672 14.0075 29.1411 14.0526 29.1411H15.5639C15.6081 29.1411 15.6312 29.1672 15.6312 29.2194V29.6757C15.6312 29.7269 15.6091 29.752 15.5639 29.752H14.5734V30.1905H15.3247C15.3747 30.1905 15.3987 30.2177 15.3987 30.272V30.6375C15.3987 30.6897 15.3737 30.7158 15.3247 30.7158H14.5734V31.1679H15.5928C15.637 31.1679 15.66 31.194 15.66 31.2462V31.6984C15.66 31.7506 15.6379 31.7767 15.5928 31.7767Z" fill="#F12D3B"/>
<path d="M15.8417 31.8101C15.7975 31.8101 15.7744 31.7809 15.7744 31.7213V31.2421C15.7744 31.1909 15.7946 31.1658 15.834 31.1658C15.8801 31.1658 15.9233 31.146 15.9618 31.1073C15.9983 31.0708 16.0165 31.0238 16.0165 30.9674V29.2299C16.0165 29.2048 16.0223 29.1839 16.0348 29.1672C16.0473 29.1505 16.0627 29.1411 16.0838 29.1411H17.7978C17.8209 29.1411 17.8392 29.1474 17.8536 29.161C17.867 29.1735 17.8737 29.1923 17.8737 29.2163V31.6994C17.8737 31.7245 17.867 31.7433 17.8545 31.7568C17.842 31.7704 17.8247 31.7777 17.8017 31.7777H17.352C17.3069 31.7777 17.2838 31.7516 17.2838 31.6994V29.7739H16.6045V30.9685C16.6045 31.2013 16.5325 31.3997 16.3874 31.5626C16.3173 31.642 16.2356 31.7036 16.1414 31.7464C16.0473 31.7892 15.9474 31.8111 15.8407 31.8111L15.8417 31.8101Z" fill="#F12D3B"/>
<path d="M19.3277 31.7767H18.3525C18.3333 31.7767 18.3179 31.7694 18.3064 31.7558C18.2948 31.7422 18.2891 31.7234 18.2891 31.6984V29.2194C18.2891 29.1672 18.3102 29.1411 18.3525 29.1411H18.8031C18.8492 29.1411 18.8732 29.1672 18.8732 29.2194V30.0621H19.3382C19.5381 30.0621 19.7043 30.1498 19.8398 30.3263C19.9003 30.4056 19.9474 30.4965 19.981 30.5999C20.0146 30.7032 20.031 30.8077 20.031 30.9142C20.031 31.1376 19.9666 31.335 19.8369 31.5073C19.7725 31.5929 19.6957 31.6587 19.6082 31.7057C19.5208 31.7527 19.4276 31.7767 19.3277 31.7767ZM18.8732 31.2139H19.2009C19.271 31.2139 19.3277 31.1815 19.3728 31.1178C19.4132 31.0583 19.4334 30.9914 19.4334 30.9173C19.4334 30.8432 19.4132 30.7722 19.3728 30.7137C19.3286 30.6521 19.271 30.6218 19.2009 30.6218H18.8732V31.2149V31.2139Z" fill="#F12D3B"/>
<path d="M20.8363 31.7767H20.3896C20.3463 31.7767 20.3242 31.7506 20.3242 31.6984V29.2194C20.3242 29.1965 20.33 29.1787 20.3415 29.163C20.353 29.1484 20.3694 29.1411 20.3896 29.1411H20.845C20.8872 29.1411 20.9084 29.1662 20.9084 29.2153V30.0621H21.6703V29.2194C21.6703 29.1965 21.6761 29.1787 21.6885 29.163C21.701 29.1474 21.7164 29.1411 21.7375 29.1411H22.193C22.2343 29.1411 22.2554 29.1662 22.2554 29.2153V31.6984C22.2554 31.7506 22.2314 31.7767 22.1843 31.7767H21.7375C21.6933 31.7767 21.6703 31.7506 21.6703 31.6984V30.6907H20.9084V31.6984C20.9084 31.7506 20.8844 31.7767 20.8354 31.7767H20.8363Z" fill="#F12D3B"/>
<path d="M23.7378 31.8164C23.5255 31.8164 23.3295 31.7548 23.1517 31.6316C22.9778 31.5105 22.8385 31.3486 22.7357 31.145C22.63 30.9403 22.5781 30.7127 22.5781 30.4621C22.5781 30.2115 22.631 29.9859 22.7357 29.775C22.8385 29.5683 22.9778 29.4054 23.1517 29.2874C23.3333 29.1641 23.5284 29.1025 23.7378 29.1025C23.9473 29.1025 24.1423 29.1641 24.3239 29.2874C24.5036 29.4116 24.6419 29.5745 24.7418 29.775C24.8475 29.988 24.8994 30.2167 24.8994 30.4621C24.8994 30.7075 24.8466 30.9383 24.7418 31.145C24.6429 31.3465 24.5036 31.5084 24.3239 31.6316C24.149 31.7548 23.953 31.8164 23.7378 31.8164ZM23.7378 31.1617C23.904 31.1617 24.0424 31.0938 24.1519 30.9581C24.2595 30.8255 24.3133 30.6605 24.3133 30.4611C24.3133 30.2616 24.2595 30.0945 24.1519 29.9619C24.0405 29.8251 23.9021 29.7562 23.7378 29.7562C23.5735 29.7562 23.4352 29.8251 23.3266 29.9619C23.218 30.0956 23.1642 30.2616 23.1642 30.4611C23.1642 30.6605 23.218 30.8244 23.3266 30.9581C23.4352 31.0938 23.5725 31.1617 23.7378 31.1617Z" fill="#F12D3B"/>
<path d="M26.3042 31.0051H25.2684C25.2242 31.0051 25.2012 30.977 25.2012 30.9195V30.5593C25.2012 30.5071 25.2233 30.481 25.2684 30.481H26.3042C26.3234 30.481 26.3397 30.4883 26.3522 30.5018C26.3647 30.5165 26.3714 30.5353 26.3714 30.5582V30.9185C26.3714 30.9394 26.3647 30.9592 26.3512 30.977C26.3378 30.9947 26.3224 31.0041 26.3042 31.0041V31.0051Z" fill="#F12D3B"/>
<path d="M27.0834 32.3291H26.6828C26.6491 32.3291 26.6328 32.3113 26.6328 32.2758V31.2097C26.6328 31.1575 26.6549 31.1314 26.7001 31.1314H26.923C27.0018 30.9549 27.0584 30.8098 27.0911 30.6949C27.1353 30.531 27.167 30.343 27.1853 30.1342C27.2054 29.894 27.217 29.5839 27.2189 29.2038C27.2189 29.162 27.2352 29.1411 27.2689 29.1411H28.6265C28.6409 29.1411 28.6534 29.1463 28.6639 29.1578C28.6745 29.1693 28.6803 29.1829 28.6803 29.1996V31.1303H28.8686C28.8878 31.1303 28.9041 31.1376 28.9166 31.1512C28.9291 31.1658 28.9358 31.1846 28.9358 31.2076V32.2706C28.9358 32.3082 28.9185 32.327 28.883 32.327H28.4487C28.416 32.327 28.3997 32.3082 28.3997 32.2706V31.7756H27.1382V32.2748C27.1382 32.3103 27.1209 32.328 27.0853 32.328L27.0834 32.3291ZM27.5379 31.1314H28.0903V29.7823H27.7579C27.7579 29.989 27.7387 30.2114 27.7022 30.4474C27.6628 30.6876 27.608 30.9152 27.5379 31.1303V31.1314Z" fill="#F12D3B"/>
<path d="M30.8369 31.7767H29.2967C29.2526 31.7767 29.2295 31.7506 29.2295 31.6984V29.2194C29.2295 29.1672 29.2516 29.1411 29.2967 29.1411H30.8081C30.8523 29.1411 30.8753 29.1672 30.8753 29.2194V29.6757C30.8753 29.7269 30.8532 29.752 30.8081 29.752H29.8175V30.1905H30.5688C30.6188 30.1905 30.6428 30.2177 30.6428 30.272V30.6375C30.6428 30.6897 30.6178 30.7158 30.5688 30.7158H29.8175V31.1679H30.8369C30.8811 31.1679 30.9042 31.194 30.9042 31.2462V31.6984C30.9042 31.7506 30.8821 31.7767 30.8369 31.7767Z" fill="#F12D3B"/>
<path d="M32.3637 31.7767H31.2675C31.2233 31.7767 31.2002 31.7506 31.2002 31.6984V29.2194C31.2002 29.1672 31.2223 29.1411 31.2675 29.1411H32.2763C32.455 29.1411 32.6087 29.2153 32.7346 29.3625C32.8624 29.5118 32.9258 29.6925 32.9258 29.9055C32.9258 30.0851 32.8806 30.2365 32.7893 30.3576C32.8633 30.437 32.921 30.5309 32.9633 30.6406C33.0055 30.7502 33.0267 30.863 33.0267 30.9789C33.0267 31.193 32.9613 31.3799 32.8307 31.5376C32.7692 31.6117 32.6971 31.6702 32.6164 31.7119C32.5357 31.7537 32.4512 31.7746 32.3647 31.7746L32.3637 31.7767ZM31.7882 30.1791H32.1101C32.1792 30.1791 32.2359 30.155 32.2801 30.106C32.3234 30.059 32.3455 29.9974 32.3455 29.9211C32.3455 29.8501 32.3243 29.7896 32.282 29.7405C32.2379 29.6893 32.1821 29.6643 32.1149 29.6643H31.7882V30.1791ZM31.7882 31.2494H32.1956C32.26 31.2494 32.3147 31.2201 32.3599 31.1606C32.406 31.098 32.43 31.029 32.43 30.9528C32.43 30.8766 32.4079 30.8098 32.3628 30.7502C32.3147 30.6876 32.26 30.6563 32.1956 30.6563H31.7882V31.2494Z" fill="#F12D3B"/>
<path d="M34.8447 31.7767H33.3046C33.2604 31.7767 33.2373 31.7506 33.2373 31.6984V29.2194C33.2373 29.1672 33.2594 29.1411 33.3046 29.1411H34.8159C34.8601 29.1411 34.8831 29.1672 34.8831 29.2194V29.6757C34.8831 29.7269 34.861 29.752 34.8159 29.752H33.8253V30.1905H34.5767C34.6266 30.1905 34.6506 30.2177 34.6506 30.272V30.6375C34.6506 30.6897 34.6257 30.7158 34.5767 30.7158H33.8253V31.1679H34.8447C34.8889 31.1679 34.912 31.194 34.912 31.2462V31.6984C34.912 31.7506 34.8899 31.7767 34.8447 31.7767Z" fill="#F12D3B"/>
<path d="M35.0946 31.8101C35.0504 31.8101 35.0273 31.7809 35.0273 31.7213V31.2421C35.0273 31.1909 35.0475 31.1658 35.0869 31.1658C35.133 31.1658 35.1763 31.146 35.2147 31.1073C35.2512 31.0708 35.2695 31.0238 35.2695 30.9674V29.2299C35.2695 29.2048 35.2752 29.1839 35.2877 29.1672C35.3002 29.1505 35.3156 29.1411 35.3367 29.1411H37.0508C37.0738 29.1411 37.0921 29.1474 37.1065 29.161C37.12 29.1735 37.1267 29.1923 37.1267 29.2163V31.6994C37.1267 31.7245 37.12 31.7433 37.1075 31.7568C37.095 31.7704 37.0777 31.7777 37.0546 31.7777H36.605C36.5598 31.7777 36.5367 31.7516 36.5367 31.6994V29.7739H35.8575V30.9685C35.8575 31.2013 35.7854 31.3997 35.6403 31.5626C35.5702 31.642 35.4885 31.7036 35.3944 31.7464C35.3002 31.7892 35.2003 31.8111 35.0936 31.8111L35.0946 31.8101Z" fill="#F12D3B"/>
<path d="M38.5962 31.8164C38.3839 31.8164 38.1879 31.7548 38.0101 31.6316C37.8362 31.5105 37.6969 31.3486 37.5941 31.145C37.4884 30.9403 37.4365 30.7127 37.4365 30.4621C37.4365 30.2115 37.4894 29.9859 37.5941 29.775C37.6969 29.5683 37.8362 29.4054 38.0101 29.2874C38.1917 29.1641 38.3867 29.1025 38.5962 29.1025C38.8057 29.1025 39.0007 29.1641 39.1823 29.2874C39.362 29.4116 39.5003 29.5745 39.6002 29.775C39.7059 29.988 39.7578 30.2167 39.7578 30.4621C39.7578 30.7075 39.705 30.9383 39.6002 31.145C39.5013 31.3465 39.362 31.5084 39.1823 31.6316C39.0074 31.7548 38.8114 31.8164 38.5962 31.8164ZM38.5962 31.1617C38.7624 31.1617 38.9008 31.0938 39.0103 30.9581C39.1179 30.8255 39.1717 30.6605 39.1717 30.4611C39.1717 30.2616 39.1179 30.0945 39.0103 29.9619C38.8988 29.8251 38.7605 29.7562 38.5962 29.7562C38.4319 29.7562 38.2935 29.8251 38.185 29.9619C38.0764 30.0956 38.0226 30.2616 38.0226 30.4611C38.0226 30.6605 38.0764 30.8244 38.185 30.9581C38.2935 31.0938 38.4309 31.1617 38.5962 31.1617Z" fill="#F12D3B"/>
<path d="M40.5626 31.7766H40.1024C40.0582 31.7766 40.0352 31.7516 40.0352 31.7025V29.2235C40.0352 29.1692 40.0573 29.1421 40.1024 29.1421H41.8578C41.876 29.1421 41.8924 29.1494 41.9068 29.1651C41.9212 29.1807 41.9289 29.1985 41.9289 29.2204V31.6993C41.9289 31.7516 41.9049 31.7777 41.8578 31.7777H41.3976C41.3534 31.7777 41.3303 31.7516 41.3303 31.6993V29.7707H40.6328V31.7035C40.6328 31.7536 40.6088 31.7777 40.5617 31.7777L40.5626 31.7766Z" fill="#F12D3B"/>
<path d="M43.9599 31.7767H42.4198C42.3756 31.7767 42.3525 31.7506 42.3525 31.6984V29.2194C42.3525 29.1672 42.3746 29.1411 42.4198 29.1411H43.9311C43.9753 29.1411 43.9984 29.1672 43.9984 29.2194V29.6757C43.9984 29.7269 43.9763 29.752 43.9311 29.752H42.9405V30.1905H43.6919C43.7418 30.1905 43.7659 30.2177 43.7659 30.272V30.6375C43.7659 30.6897 43.7409 30.7158 43.6919 30.7158H42.9405V31.1679H43.9599C44.0041 31.1679 44.0272 31.194 44.0272 31.2462V31.6984C44.0272 31.7506 44.0051 31.7767 43.9599 31.7767Z" fill="#F12D3B"/>
<path d="M44.8451 31.7767H44.3945C44.3522 31.7767 44.3311 31.7506 44.3311 31.6984V29.2194C44.3311 29.1944 44.3368 29.1756 44.3484 29.162C44.3599 29.1484 44.3753 29.1411 44.3945 29.1411H45.3697C45.5023 29.1411 45.6252 29.1829 45.7386 29.2675C45.8405 29.3458 45.9231 29.4523 45.9846 29.5891C46.0432 29.7186 46.073 29.8564 46.073 30.0047C46.073 30.1112 46.0566 30.2156 46.023 30.3169C45.9894 30.4182 45.9423 30.5101 45.8818 30.5905C45.7463 30.768 45.5791 30.8567 45.3802 30.8567H44.9152V31.6994C44.9152 31.7516 44.8922 31.7777 44.8451 31.7777V31.7767ZM44.9152 30.297H45.2428C45.313 30.297 45.3697 30.2668 45.4148 30.2052C45.4552 30.1456 45.4754 30.0778 45.4754 30.0015C45.4754 29.9253 45.4552 29.8595 45.4148 29.799C45.3697 29.7363 45.312 29.705 45.2428 29.705H44.9152V30.2981V30.297Z" fill="#F12D3B"/>
<path d="M47.3676 31.8165C47.1572 31.8165 46.9612 31.7549 46.7796 31.6306C46.6057 31.5126 46.4654 31.3487 46.3607 31.1409C46.254 30.9289 46.2012 30.7002 46.2012 30.4538C46.2012 30.2074 46.254 29.9797 46.3607 29.7688C46.4644 29.5641 46.6047 29.4023 46.7796 29.2843C46.9602 29.1621 47.1552 29.1016 47.3676 29.1016C47.4944 29.1016 47.6174 29.1256 47.7384 29.1726C47.8374 29.2133 47.9335 29.2718 48.0267 29.348C48.0459 29.3657 48.0555 29.3856 48.0555 29.4086C48.0555 29.4211 48.0526 29.4326 48.0478 29.442L47.7836 29.8837C47.773 29.9014 47.7596 29.9098 47.7413 29.9098C47.724 29.9098 47.7067 29.9014 47.6894 29.8847C47.5943 29.796 47.4867 29.7521 47.3676 29.7521C47.2004 29.7521 47.0601 29.82 46.9467 29.9547C46.8353 30.0883 46.7796 30.2544 46.7796 30.4538C46.7796 30.6533 46.8353 30.8193 46.9467 30.9561C47.0611 31.0929 47.2014 31.1618 47.3676 31.1618C47.4752 31.1618 47.5809 31.119 47.6846 31.0344C47.7096 31.0135 47.7308 31.002 47.7471 31.002C47.7653 31.002 47.7807 31.0125 47.7922 31.0344L48.0411 31.4625C48.0545 31.4813 48.0613 31.4991 48.0613 31.5137C48.0613 31.5346 48.0478 31.5554 48.02 31.5753C47.9277 31.6515 47.8336 31.7079 47.7356 31.7455C47.6203 31.7925 47.4973 31.8165 47.3666 31.8165H47.3676Z" fill="#F12D3B"/>
<path d="M48.8965 31.7769H48.4305C48.4171 31.7769 48.4046 31.7738 48.3921 31.7664C48.3729 31.7581 48.3633 31.7383 48.3633 31.708V29.2196C48.3633 29.1674 48.3854 29.1413 48.4286 29.1413H48.8946C48.933 29.1413 48.9522 29.1685 48.9522 29.2217V30.1657C48.9753 30.1657 49.0041 30.1417 49.0387 30.0947C49.0599 30.0686 49.0916 30.0226 49.1329 29.9558L49.1694 29.8942L49.1905 29.8566L49.3452 29.5674C49.4326 29.4045 49.5556 29.2865 49.7142 29.2144C49.8237 29.1632 49.9476 29.1382 50.086 29.1382C50.1014 29.1382 50.1129 29.1413 50.1206 29.1486C50.1359 29.1612 50.1436 29.182 50.1436 29.2092V29.678C50.1436 29.7282 50.1225 29.7522 50.0802 29.7522C50.0283 29.7522 49.9717 29.7793 49.9082 29.8336C49.8496 29.8848 49.8006 29.9433 49.7622 30.009L49.5037 30.4382L50.356 31.6913C50.3637 31.7038 50.3685 31.7163 50.3685 31.7289C50.3685 31.7372 50.3665 31.7435 50.3637 31.7487C50.3569 31.7675 50.3444 31.7769 50.3291 31.7769H49.7612C49.7363 31.7769 49.7161 31.7717 49.7017 31.7623C49.6873 31.7529 49.6719 31.7362 49.6555 31.7111L49.1137 30.8768C49.0829 30.8998 49.0483 30.9144 49.0089 30.9227C48.9955 30.9259 48.984 30.9279 48.9724 30.9279L48.9522 30.93V31.7111C48.9522 31.7278 48.9474 31.7424 48.9369 31.756C48.9263 31.7696 48.9129 31.7769 48.8956 31.7769H48.8965Z" fill="#F12D3B"/>
<path d="M50.8843 31.7767H50.4318C50.3982 31.7767 50.3818 31.7631 50.3818 31.736C50.3818 31.7287 50.3847 31.7161 50.3895 31.6984L51.2129 29.2194C51.2312 29.1672 51.2629 29.1411 51.3071 29.1411H51.6789C51.7221 29.1411 51.7529 29.1672 51.7702 29.2194L52.5993 31.6984C52.6042 31.7161 52.607 31.7287 52.607 31.736C52.607 31.7631 52.5907 31.7767 52.5571 31.7767H52.1045C52.0603 31.7767 52.0306 31.7506 52.0152 31.6984L51.9085 31.3507H51.0794L50.9766 31.6984C50.9612 31.7506 50.9314 31.7767 50.8853 31.7767H50.8843ZM51.2485 30.7816H51.7327L51.4887 29.9744L51.2485 30.7816Z" fill="#F12D3B"/>
<path d="M53.211 31.7767H52.6643C52.6335 31.7767 52.6191 31.761 52.6191 31.7307C52.6191 31.7234 52.622 31.713 52.6268 31.6984L53.0611 30.7523C52.9477 30.6657 52.8584 30.5591 52.794 30.4328C52.7248 30.3023 52.6912 30.1676 52.6912 30.0266C52.6912 29.9159 52.7085 29.8063 52.744 29.6998C52.7796 29.5933 52.8286 29.4982 52.892 29.4157C53.0332 29.232 53.2071 29.1411 53.4118 29.1411H54.4206C54.4398 29.1411 54.4552 29.1484 54.4677 29.1641C54.4802 29.1797 54.486 29.1975 54.486 29.2194V31.6984C54.486 31.7506 54.4639 31.7767 54.4206 31.7767H53.9662C53.922 31.7767 53.8989 31.7506 53.8989 31.6984V30.8996H53.6549L53.2946 31.7015C53.2811 31.7307 53.2696 31.7506 53.259 31.761C53.2485 31.7715 53.2331 31.7756 53.2129 31.7756L53.211 31.7767ZM53.5607 30.3326H53.898V29.6904H53.5607C53.4848 29.6904 53.4204 29.7248 53.3666 29.7937C53.3157 29.8585 53.2907 29.9326 53.2907 30.0141C53.2907 30.0955 53.3157 30.1728 53.3666 30.2344C53.4185 30.3002 53.4829 30.3336 53.5607 30.3336V30.3326Z" fill="#F12D3B"/>
<path d="M56.3077 31.7769H55.8417C55.8282 31.7769 55.8157 31.7738 55.8032 31.7664C55.784 31.7581 55.7744 31.7383 55.7744 31.708V29.2196C55.7744 29.1674 55.7965 29.1413 55.8398 29.1413H56.3057C56.3442 29.1413 56.3634 29.1685 56.3634 29.2217V30.1657C56.3864 30.1657 56.4153 30.1417 56.4499 30.0947C56.471 30.0686 56.5027 30.0226 56.544 29.9558L56.5805 29.8942L56.6017 29.8566L56.7563 29.5674C56.8438 29.4045 56.9668 29.2865 57.1253 29.2144C57.2348 29.1632 57.3588 29.1382 57.4971 29.1382C57.5125 29.1382 57.524 29.1413 57.5317 29.1486C57.5471 29.1612 57.5548 29.182 57.5548 29.2092V29.678C57.5548 29.7282 57.5336 29.7522 57.4914 29.7522C57.4395 29.7522 57.3828 29.7793 57.3194 29.8336C57.2608 29.8848 57.2118 29.9433 57.1733 30.009L56.9149 30.4382L57.7671 31.6913C57.7748 31.7038 57.7796 31.7163 57.7796 31.7289C57.7796 31.7372 57.7777 31.7435 57.7748 31.7487C57.7681 31.7675 57.7556 31.7769 57.7402 31.7769H57.1724C57.1474 31.7769 57.1272 31.7717 57.1128 31.7623C57.0984 31.7529 57.083 31.7362 57.0667 31.7111L56.5248 30.8768C56.494 30.8998 56.4595 30.9144 56.4201 30.9227C56.4066 30.9259 56.3951 30.9279 56.3836 30.9279L56.3634 30.93V31.7111C56.3634 31.7278 56.3586 31.7424 56.348 31.756C56.3374 31.7696 56.324 31.7769 56.3067 31.7769H56.3077Z" fill="#F12D3B"/>
<path d="M58.8823 31.8164C58.67 31.8164 58.474 31.7548 58.2963 31.6316C58.1223 31.5105 57.983 31.3486 57.8802 31.145C57.7745 30.9403 57.7227 30.7127 57.7227 30.4621C57.7227 30.2115 57.7755 29.9859 57.8802 29.775C57.983 29.5683 58.1223 29.4054 58.2963 29.2874C58.4778 29.1641 58.6729 29.1025 58.8823 29.1025C59.0918 29.1025 59.2868 29.1641 59.4684 29.2874C59.6481 29.4116 59.7864 29.5745 59.8864 29.775C59.9921 29.988 60.0439 30.2167 60.0439 30.4621C60.0439 30.7075 59.9911 30.9383 59.8864 31.145C59.7874 31.3465 59.6481 31.5084 59.4684 31.6316C59.2936 31.7548 59.0976 31.8164 58.8823 31.8164ZM58.8823 31.1617C59.0486 31.1617 59.1869 31.0938 59.2964 30.9581C59.404 30.8255 59.4578 30.6605 59.4578 30.4611C59.4578 30.2616 59.404 30.0945 59.2964 29.9619C59.185 29.8251 59.0466 29.7562 58.8823 29.7562C58.718 29.7562 58.5797 29.8251 58.4711 29.9619C58.3625 30.0956 58.3087 30.2616 58.3087 30.4611C58.3087 30.6605 58.3625 30.8244 58.4711 30.9581C58.5797 31.0938 58.7171 31.1617 58.8823 31.1617Z" fill="#F12D3B"/>
<path d="M60.7481 31.7767H60.3167C60.2946 31.7767 60.2773 31.7694 60.2648 31.7558C60.2523 31.7422 60.2475 31.7234 60.2494 31.6984L60.4762 29.2194C60.481 29.1672 60.5031 29.1411 60.5434 29.1411H61.0748C61.094 29.1411 61.1074 29.1453 61.1151 29.1547C61.1228 29.1641 61.1314 29.185 61.142 29.2194L61.5571 30.8129L61.9702 29.2194C61.9808 29.185 61.9894 29.163 61.9971 29.1547C62.0048 29.1463 62.0183 29.1411 62.0375 29.1411H62.5688C62.6082 29.1411 62.6303 29.1672 62.636 29.2194L62.8628 31.6984C62.8647 31.7234 62.8599 31.7422 62.8474 31.7558C62.8349 31.7694 62.8176 31.7767 62.7955 31.7767H62.3641C62.3247 31.7767 62.3026 31.7506 62.2969 31.6984L62.1739 30.3075L61.8184 31.6952C61.8107 31.7297 61.8021 31.7516 61.7925 31.7621C61.7829 31.7725 61.7675 31.7767 61.7435 31.7767H61.3688C61.3457 31.7767 61.3294 31.7715 61.3198 31.761C61.3101 31.7506 61.3015 31.7287 61.2948 31.6952L60.9441 30.272L60.8163 31.6984C60.8115 31.7506 60.7894 31.7767 60.749 31.7767H60.7481Z" fill="#F12D3B"/>
<path d="M63.6876 31.7766H63.2274C63.1832 31.7766 63.1602 31.7516 63.1602 31.7025V29.2235C63.1602 29.1692 63.1823 29.1421 63.2274 29.1421H64.9828C65.001 29.1421 65.0174 29.1494 65.0318 29.1651C65.0462 29.1807 65.0539 29.1985 65.0539 29.2204V31.6993C65.0539 31.7516 65.0299 31.7777 64.9828 31.7777H64.5226C64.4784 31.7777 64.4553 31.7516 64.4553 31.6993V29.7707H63.7578V31.7035C63.7578 31.7536 63.7338 31.7777 63.6867 31.7777L63.6876 31.7766Z" fill="#F12D3B"/>
<path d="M65.7974 31.7767H65.3449C65.3113 31.7767 65.2949 31.7631 65.2949 31.736C65.2949 31.7287 65.2978 31.7161 65.3026 31.6984L66.126 29.2194C66.1443 29.1672 66.176 29.1411 66.2202 29.1411H66.592C66.6352 29.1411 66.666 29.1672 66.6833 29.2194L67.5124 31.6984C67.5172 31.7161 67.5201 31.7287 67.5201 31.736C67.5201 31.7631 67.5038 31.7767 67.4702 31.7767H67.0176C66.9734 31.7767 66.9436 31.7506 66.9283 31.6984L66.8216 31.3507H65.9925L65.8897 31.6984C65.8743 31.7506 65.8445 31.7767 65.7984 31.7767H65.7974ZM66.1616 30.7816H66.6458L66.4018 29.9744L66.1616 30.7816Z" fill="#F12D3B"/>
<path d="M68.2435 31.7767H67.7968C67.7535 31.7767 67.7314 31.7506 67.7314 31.6984V29.2194C67.7314 29.1965 67.7372 29.1787 67.7487 29.163C67.7603 29.1474 67.7766 29.1411 67.7968 29.1411H68.2522C68.2945 29.1411 68.3156 29.1662 68.3156 29.2153V30.0621H69.0775V29.2194C69.0775 29.1965 69.0833 29.1787 69.0958 29.163C69.1083 29.1484 69.1246 29.1411 69.1448 29.1411H69.6002C69.6415 29.1411 69.6626 29.1662 69.6626 29.2153V31.6984C69.6626 31.7506 69.6386 31.7767 69.5915 31.7767H69.1448C69.1006 31.7767 69.0775 31.7506 69.0775 31.6984V30.6907H68.3156V31.6984C68.3156 31.7506 68.2916 31.7767 68.2426 31.7767H68.2435Z" fill="#F12D3B"/>
<path d="M70.6145 31.7767H70.1697C70.1197 31.7767 70.0947 31.7506 70.0947 31.6984V29.2194C70.0947 29.1985 70.1024 29.1797 70.1187 29.1641C70.1341 29.1484 70.1514 29.1411 70.1697 29.1411H70.5915C70.6126 29.1411 70.6299 29.1484 70.6414 29.163C70.6539 29.1777 70.6597 29.1965 70.6597 29.2194V30.6583L71.4206 29.2194C71.4504 29.1672 71.486 29.1411 71.5282 29.1411H72.0202C72.0403 29.1411 72.0567 29.1484 72.0682 29.163C72.0797 29.1777 72.0855 29.1965 72.0855 29.2194V31.6984C72.0855 31.7506 72.0634 31.7767 72.0202 31.7767H71.5964C71.5465 31.7767 71.5225 31.7506 71.5225 31.6984V30.1634L70.724 31.6984C70.6971 31.7506 70.6606 31.7767 70.6145 31.7767Z" fill="#F12D3B"/>
<path d="M72.9092 31.7767H72.3625C72.3318 31.7767 72.3174 31.761 72.3174 31.7307C72.3174 31.7234 72.3203 31.713 72.3251 31.6984L72.7593 30.7523C72.646 30.6657 72.5566 30.5591 72.4922 30.4328C72.4231 30.3023 72.3894 30.1676 72.3894 30.0266C72.3894 29.9159 72.4067 29.8063 72.4423 29.6998C72.4778 29.5933 72.5268 29.4982 72.5902 29.4157C72.7324 29.232 72.9054 29.1411 73.11 29.1411H74.1189C74.1381 29.1411 74.1535 29.1484 74.1659 29.1641C74.1784 29.1797 74.1842 29.1975 74.1842 29.2194V31.6984C74.1842 31.7506 74.1621 31.7767 74.1189 31.7767H73.6644C73.6202 31.7767 73.5972 31.7506 73.5972 31.6984V30.8996H73.3531L72.9928 31.7015C72.9794 31.7307 72.9678 31.7506 72.9573 31.761C72.9467 31.7715 72.9313 31.7756 72.9112 31.7756L72.9092 31.7767ZM73.259 30.3326H73.5962V29.6904H73.259C73.1831 29.6904 73.1187 29.7248 73.0649 29.7937C73.014 29.8585 72.989 29.9326 72.989 30.0141C72.989 30.0955 73.014 30.1728 73.0649 30.2344C73.1168 30.3002 73.1811 30.3336 73.259 30.3336V30.3326Z" fill="#F12D3B"/>
</g>
<defs>
<clipPath id="clip0_971_238">
<rect width="73.3585" height="48" fill="white" transform="translate(1 1)"/>
</clipPath>
</defs>
</svg>
