<?xml version="1.0" encoding="UTF-8"?>
<svg id="_Слой_1" data-name="Слой 1" xmlns="http://www.w3.org/2000/svg" viewBox="0 0 194.66 112.32">
  <defs>
    <style>
      .cls-1 {
        stroke: #e30011;
        stroke-miterlimit: 5;
        stroke-width: .22px;
      }

      .cls-1, .cls-2, .cls-3 {
        fill: #dd0327;
      }

      .cls-4, .cls-5 {
        fill: #273043;
      }

      .cls-4, .cls-3, .cls-6, .cls-7 {
        fill-rule: evenodd;
      }

      .cls-6 {
        fill: #e6340d;
      }

      .cls-7 {
        fill: #000003;
      }
    </style>
  </defs>
  <polygon class="cls-6" points="96.17 83.85 77.97 83.81 43.62 59.29 9.73 83.81 .18 83.81 .09 78.94 6.71 78.95 14.63 73.2 14.45 59.23 19.2 59.24 19.45 69.72 43.52 52.3 80.88 78.97 91.59 78.95 91.59 10.47 53.06 38.34 53.05 52.18 48.04 48.6 48.04 34.76 96.31 0 96.17 83.85"/>
  <rect x="44.98" y="77.88" width="4.9" height="4.9"/>
  <rect x="37.61" y="77.88" width="4.9" height="4.9"/>
  <rect x="44.89" y="70.89" width="4.9" height="4.9"/>
  <rect x="37.52" y="70.89" width="4.9" height="4.9"/>
  <polygon class="cls-7" points="101.45 83.83 126.59 83.91 126.6 78.92 106.4 78.93 106.4 27.97 140.76 52.49 141.13 80.44 146.04 83.95 145.57 49.01 101.4 17.48 101.45 83.83"/>
  <polygon class="cls-6" points="145.48 42.02 145.39 35.04 101.22 3.5 101.31 10.49 145.48 42.02"/>
  <polygon class="cls-7" points="194.56 78.92 194.66 84.05 184.93 84.03 150.58 59.5 150.48 52.51 187.49 78.93 194.56 78.92"/>
  <path class="cls-7" d="m194.47,70.07c-7.83-21.33-25.95-34.95-54.08-45.53l-19.63-14.01c45.4,12.06,67.48,32.54,73.71,59.54Z"/>
  <rect x="151.37" y="78.51" width="4.9" height="4.9"/>
  <rect x="151.37" y="71.43" width="4.9" height="4.9"/>
  <path class="cls-6" d="m0,69.68c7.83-21.33,24.73-34.75,52.85-45.33l19.26-13.94C40.21,18.89,8.11,34.53,0,69.68Z"/>
  <path class="cls-7" d="m57.78,39.19l29.1-20.77v6.92l-29.1,20.77v-6.92h0Zm33.81-24.14h0s0,6.92,0,6.92h0s0-6.92,0-6.92h0Zm4.71-3.37h0s0,.63,0,.63v-.63Z"/>
  <g>
    <path class="cls-2" d="m21.08,111.89h-4.5l-1.8-5.67H6.56l-1.7,5.67H.46l8-25.05h4.39l8.23,25.05Zm-7.63-9.91l-2.84-9.3-2.78,9.3h5.62Z"/>
    <path class="cls-5" d="m21.48,97.52v-3.78h13.48v3.78h-4.77v14.37h-3.95v-14.37h-4.77Z"/>
    <path class="cls-5" d="m47.62,111.89v-14.37h-5.31v8.28c0,1.33-.09,2.43-.27,3.28-.18.85-.49,1.53-.93,2.04-.44.51-.87.81-1.3.92-.43.11-1.02.16-1.77.16-.46,0-1.28-.1-2.46-.31v-3.54c.32.02.86.03,1.62.03.47,0,.77-.16.92-.49.15-.33.22-1.06.22-2.2v-11.96h13.23v18.15h-3.95Z"/>
    <path class="cls-5" d="m58.48,99.26l-3.57-.79c.43-1.83,1.15-3.15,2.14-3.96,1-.8,2.43-1.2,4.3-1.2,1.66,0,2.93.23,3.81.7.88.47,1.5,1.1,1.88,1.91s.56,2.27.56,4.39l-.03,5.61c0,1.57.06,2.75.19,3.52.12.77.36,1.59.7,2.45h-3.9l-.51-1.98c-.67.8-1.39,1.4-2.16,1.8-.77.4-1.59.61-2.45.61-1.45,0-2.63-.49-3.55-1.46-.92-.98-1.38-2.27-1.38-3.89,0-1.03.19-1.92.56-2.69.38-.76.91-1.38,1.59-1.83.68-.46,1.78-.86,3.28-1.21,1.82-.42,3.09-.82,3.81-1.18,0-1.01-.07-1.67-.21-1.99-.14-.32-.4-.57-.79-.77-.38-.2-.92-.3-1.61-.3s-1.26.16-1.67.48c-.4.32-.73.92-.98,1.79Zm5.26,3.91c-.5.21-1.28.45-2.34.72-1.22.32-2.02.67-2.39,1.06-.38.39-.56.89-.56,1.51,0,.7.21,1.28.62,1.76.42.47.94.71,1.56.71.56,0,1.11-.19,1.66-.57.55-.38.93-.84,1.14-1.36.21-.53.32-1.48.32-2.86v-.96Z"/>
    <path class="cls-5" d="m71.33,111.89v-18.15h3.95v6.61h5.64v-6.61h3.95v18.15h-3.95v-7.64h-5.64v7.64h-3.95Z"/>
    <path class="cls-5" d="m87.07,97.52v-3.78h13.48v3.78h-4.77v14.37h-3.95v-14.37h-4.77Z"/>
    <path class="cls-1" d="m110.98,111.89v-25.05h15.36v4.24h-11.23v5.73h5.88c2.22,0,3.96.69,5.23,2.08,1.26,1.38,1.9,3.22,1.9,5.49,0,1.98-.54,3.73-1.62,5.25-1.08,1.51-2.91,2.27-5.51,2.27h-10.01Zm4.14-10.85v6.61h4.37c1.14,0,1.96-.08,2.46-.23.51-.15.95-.51,1.33-1.07.38-.56.57-1.21.57-1.95,0-2.24-1.4-3.37-4.2-3.37h-4.54Z"/>
    <path class="cls-5" d="m140.16,106.13l3.91.8c-.52,1.82-1.34,3.18-2.45,4.06-1.11.88-2.45,1.32-4.04,1.32-2.2,0-3.9-.74-5.1-2.21-1.41-1.71-2.12-4.11-2.12-7.19s.71-5.47,2.14-7.29c1.21-1.54,2.77-2.31,4.68-2.31,2.13,0,3.8.79,5.01,2.36,1.39,1.8,2.08,4.46,2.08,7.98l-.02.55h-9.86c.02,1.44.35,2.56.97,3.35.62.79,1.37,1.18,2.25,1.18,1.27,0,2.11-.87,2.54-2.6Zm.2-4.87c-.03-1.42-.34-2.49-.91-3.2-.57-.71-1.25-1.07-2.03-1.07-.83,0-1.53.37-2.1,1.12-.58.75-.87,1.81-.85,3.16h5.9Z"/>
    <path class="cls-5" d="m145.72,97.52v-3.78h13.48v3.78h-4.77v14.37h-3.95v-14.37h-4.77Z"/>
    <path class="cls-5" d="m160.62,102.56c0-1.78.35-3.4,1.06-4.86.71-1.46,1.63-2.56,2.77-3.29,1.14-.73,2.42-1.1,3.85-1.1,2.39,0,4.27.94,5.64,2.82,1.37,1.88,2.05,4.07,2.05,6.58,0,1.87-.36,3.56-1.07,5.07s-1.65,2.64-2.8,3.4c-1.16.76-2.42,1.14-3.8,1.14-2.21,0-4.04-.84-5.5-2.53-1.46-1.69-2.19-4.1-2.19-7.23Zm4.03.26c0,1.84.36,3.23,1.08,4.17.72.94,1.59,1.41,2.6,1.41s1.84-.47,2.55-1.42c.71-.95,1.06-2.35,1.06-4.2s-.36-3.18-1.08-4.13c-.72-.95-1.58-1.42-2.59-1.42s-1.85.47-2.56,1.42c-.71.95-1.07,2.34-1.07,4.17Z"/>
    <path class="cls-5" d="m178.91,111.89v-18.15h3.95v6.61h5.64v-6.61h3.95v18.15h-3.95v-7.64h-5.64v7.64h-3.95Z"/>
  </g>
  <polygon class="cls-3" points="96.17 83.85 77.97 83.81 43.62 59.29 9.73 83.81 .18 83.81 .09 78.94 6.71 78.95 14.63 73.2 14.45 59.23 19.2 59.24 19.45 69.72 43.52 52.3 80.88 78.97 91.59 78.95 91.59 10.47 53.06 38.34 53.05 52.18 48.04 48.6 48.04 34.76 96.31 0 96.17 83.85"/>
  <rect class="cls-5" x="44.98" y="77.88" width="4.9" height="4.9"/>
  <rect class="cls-5" x="37.61" y="77.88" width="4.9" height="4.9"/>
  <rect class="cls-5" x="44.89" y="70.89" width="4.9" height="4.9"/>
  <rect class="cls-5" x="37.52" y="70.89" width="4.9" height="4.9"/>
  <polygon class="cls-4" points="101.45 83.83 126.59 83.91 126.6 78.92 106.4 78.93 106.4 27.97 140.76 52.49 141.13 80.44 146.04 83.95 145.57 49.01 101.4 17.48 101.45 83.83"/>
  <polygon class="cls-3" points="145.48 42.02 145.39 35.04 101.22 3.5 101.31 10.49 145.48 42.02"/>
  <polygon class="cls-4" points="194.56 78.92 194.66 84.05 184.93 84.03 150.58 59.5 150.48 52.51 187.49 78.93 194.56 78.92"/>
  <path class="cls-4" d="m194.47,70.07c-7.83-21.33-25.95-34.95-54.08-45.53l-19.63-14.01c45.4,12.06,67.48,32.54,73.71,59.54Z"/>
  <rect class="cls-5" x="151.37" y="78.51" width="4.9" height="4.9"/>
  <rect class="cls-5" x="151.37" y="71.43" width="4.9" height="4.9"/>
  <path class="cls-3" d="m0,69.68c7.83-21.33,24.73-34.75,52.85-45.33l19.26-13.94C40.21,18.89,8.11,34.53,0,69.68Z"/>
  <polygon class="cls-4" points="57.78 39.19 86.87 18.42 86.87 25.34 57.78 46.11 57.78 39.19 57.78 39.19"/>
  <polygon class="cls-7" points="96.3 11.68 96.31 11.68 96.3 12.32 96.3 11.68"/>
</svg>