<svg width="145" height="94" viewBox="0 0 145 94" fill="none" xmlns="http://www.w3.org/2000/svg">
<g clip-path="url(#clip0_121_1321)">
<path fill-rule="evenodd" clip-rule="evenodd" d="M8.8916 94.0001L19.5815 66.1404H23.3101L34.115 94.0001H28.8794L26.0976 86.8144H16.9825L14.1215 94.0001H8.8916ZM18.2217 82.3299H24.4888L21.4863 73.637L21.3713 72.6043L21.2619 73.637L18.2235 82.3299H18.2217ZM39.3449 94.0001V71.1361H34.6223V66.1343H48.9012V71.1361H44.1051V94.0001H39.3449ZM60.5794 74.3057L60.47 73.3201L60.353 74.3057L54.6422 94.0001H49.3765L58.931 66.1404H62.6596L72.331 94.0001H66.6938L60.5794 74.3057ZM72.8007 94.0001L83.4905 66.1404H87.2191L98.0259 94.0001H92.7904L90.0085 86.8144H80.8935L78.0324 94.0001H72.8025H72.8007ZM82.1307 82.3299H88.3979L85.3954 73.637L85.2803 72.6043L85.1709 73.637L82.1326 82.3299H82.1307ZM100.655 94.0001V66.1404H105.413V77.2892H114.566V66.1404H119.362V94.0001H114.566V82.3299H105.413V94.0001H100.655ZM126.904 94.0001V71.1361H122.182V66.1343H136.461V71.1361H131.665V94.0001H126.904Z" fill="#F12D3B"/>
<path fill-rule="evenodd" clip-rule="evenodd" d="M15.5621 48.1451H1.2832L72.8513 0L144.421 48.1451H130.142C131.261 45.4132 130.34 43.4173 128.053 41.9143C109.653 29.2012 91.253 16.488 72.8513 3.77489C54.4515 16.488 36.0516 29.2012 17.6499 41.9143C15.3622 43.4153 14.4418 45.4111 15.5602 48.1451H15.5621Z" fill="#F12D3B"/>
<path fill-rule="evenodd" clip-rule="evenodd" d="M72.8518 3.7771L17.6523 41.9145L72.8518 8.11842L128.053 41.9145L72.8518 3.7771Z" fill="#F12D3B"/>
<path fill-rule="evenodd" clip-rule="evenodd" d="M86.4345 31.3422H90.2649V35.4954H86.4345V31.3422ZM73.3022 21.3303C75.0298 21.4407 76.6008 22.1892 77.8173 23.3589L73.3022 28.2544V21.3303ZM78.4548 24.05L73.4889 29.4343H80.3389C80.3389 27.3689 79.626 25.4835 78.4548 24.05ZM72.214 29.4343H65.3641C65.3641 27.3505 66.0883 25.4528 67.2765 24.0153L72.2159 29.4322H72.214V29.4343ZM67.9158 23.3323L72.4007 28.2503V21.3344C70.6863 21.4448 69.1285 22.181 67.9158 23.3323ZM65.3641 43.4296H69.1945V47.5828H65.3641V43.4296ZM65.3641 37.3869H69.1945V41.5401H65.3641V37.3869ZM65.3641 31.3442H69.1945V35.4974H65.3641V31.3442ZM70.8485 43.4275H74.679V47.5807H70.8485V43.4275ZM70.8485 37.3848H74.679V41.538H70.8485V37.3848ZM70.8485 31.3422H74.679V35.4954H70.8485V31.3422ZM76.333 43.4255H80.1635V47.5787H76.333V43.4255ZM76.333 37.3828H80.1635V41.536H76.333V37.3828ZM76.333 31.3401H80.1635V35.4933H76.333V31.3401ZM55.4361 43.4234H59.2666V47.5766H55.4361V43.4234ZM55.4361 37.3808H59.2666V41.5339H55.4361V37.3808ZM50.2119 43.4234H54.0424V47.5766H50.2119V43.4234ZM50.2119 37.3808H54.0424V41.5339H50.2119V37.3808ZM55.4361 31.3381H59.2666V35.4913H55.4361V31.3381ZM50.2119 31.3381H54.0424V35.4913H50.2119V31.3381ZM91.6568 43.4214H95.4873V47.5746H91.6568V43.4214ZM91.6568 37.3787H95.4873V41.5319H91.6568V37.3787ZM86.4326 43.4214H90.263V47.5746H86.4326V43.4214ZM86.4326 37.3787H90.263V41.5319H86.4326V37.3787ZM91.6568 31.336H95.4873V35.4892H91.6568V31.336Z" fill="#F12D3B"/>
<path d="M2.71148 60.3492C2.29845 60.3492 1.9137 60.2286 1.55725 59.9852C1.21588 59.7541 0.940525 59.4331 0.734951 59.0262C0.525605 58.611 0.421875 58.1632 0.421875 57.6806C0.421875 57.198 0.525605 56.7522 0.734951 56.3392C0.938639 55.9384 1.214 55.6214 1.55725 55.3903C1.91182 55.1511 2.29467 55.0325 2.71148 55.0325C2.96043 55.0325 3.20184 55.0795 3.43948 55.1715C3.63374 55.2513 3.82234 55.3658 4.00528 55.5151C4.043 55.5498 4.06186 55.5887 4.06186 55.6337C4.06186 55.6582 4.0562 55.6807 4.04677 55.6991L3.52812 56.5641C3.50737 56.5989 3.48097 56.6152 3.44514 56.6152C3.41119 56.6152 3.37724 56.5989 3.34329 56.5661C3.15658 56.3923 2.94535 56.3064 2.71148 56.3064C2.38332 56.3064 2.10796 56.4394 1.88541 56.7032C1.66664 56.9649 1.55725 57.29 1.55725 57.6806C1.55725 58.0712 1.66664 58.3963 1.88541 58.6642C2.10985 58.9321 2.3852 59.0671 2.71148 59.0671C2.92271 59.0671 3.13017 58.9832 3.33386 58.8176C3.3829 58.7767 3.42439 58.7542 3.45645 58.7542C3.49229 58.7542 3.52246 58.7746 3.54509 58.8176L4.03357 59.656C4.05997 59.6928 4.07317 59.7276 4.07317 59.7562C4.07317 59.7971 4.04677 59.838 3.99208 59.8768C3.81102 60.0261 3.62619 60.1365 3.43382 60.2102C3.2075 60.3022 2.96609 60.3492 2.70959 60.3492H2.71148Z" fill="#F12D3B"/>
<path d="M6.60815 60.2713H5.75002C5.66327 60.2713 5.618 60.2202 5.618 60.1179V56.298H4.56561C4.47886 56.298 4.43359 56.2469 4.43359 56.1447V55.2613C4.43359 55.159 4.47697 55.1079 4.56561 55.1079H7.80011C7.88686 55.1079 7.93213 55.159 7.93213 55.2613V56.1447C7.93213 56.2469 7.88875 56.298 7.80011 56.298H6.74206V60.1179C6.74206 60.2202 6.6968 60.2713 6.60815 60.2713Z" fill="#F12D3B"/>
<path d="M9.50999 60.2714H8.62545C8.54247 60.2714 8.50098 60.2203 8.50098 60.1181V55.2635C8.50098 55.2144 8.51229 55.1776 8.53492 55.151C8.55756 55.1244 8.58773 55.1101 8.62545 55.1101H10.5397C10.8 55.1101 11.0414 55.1919 11.264 55.3575C11.4639 55.5109 11.6261 55.7195 11.7468 55.9874C11.8618 56.2409 11.9203 56.5109 11.9203 56.8012C11.9203 57.0098 11.8882 57.2143 11.8222 57.4127C11.7562 57.611 11.6638 57.791 11.545 57.9484C11.2791 58.2961 10.9509 58.4699 10.5605 58.4699H9.64767V60.1201C9.64767 60.2224 9.6024 60.2735 9.50999 60.2735V60.2714ZM9.64767 57.3738H10.2908C10.4285 57.3738 10.5397 57.3145 10.6284 57.1939C10.7076 57.0773 10.7472 56.9444 10.7472 56.7951C10.7472 56.6458 10.7076 56.517 10.6284 56.3984C10.5397 56.2757 10.4266 56.2144 10.2908 56.2144H9.64767V57.3759V57.3738Z" fill="#F12D3B"/>
<path d="M14.4795 60.3494C14.0627 60.3494 13.678 60.2287 13.3291 59.9874C12.9877 59.7502 12.7142 59.4332 12.5124 59.0345C12.305 58.6337 12.2031 58.1879 12.2031 57.6971C12.2031 57.2064 12.3069 56.7647 12.5124 56.3516C12.7142 55.9467 12.9877 55.6277 13.3291 55.3966C13.6855 55.1553 14.0684 55.0347 14.4795 55.0347C14.8907 55.0347 15.2735 55.1553 15.63 55.3966C15.9827 55.64 16.2543 55.959 16.4504 56.3516C16.6579 56.7687 16.7597 57.2166 16.7597 57.6971C16.7597 58.1777 16.656 58.6296 16.4504 59.0345C16.2561 59.4292 15.9827 59.7461 15.63 59.9874C15.2867 60.2287 14.902 60.3494 14.4795 60.3494ZM14.4795 59.0672C14.8058 59.0672 15.0774 58.9343 15.2924 58.6685C15.5036 58.4088 15.6092 58.0857 15.6092 57.6951C15.6092 57.3045 15.5036 56.9773 15.2924 56.7176C15.0736 56.4497 14.802 56.3148 14.4795 56.3148C14.157 56.3148 13.8854 56.4497 13.6723 56.7176C13.4592 56.9794 13.3536 57.3045 13.3536 57.6951C13.3536 58.0857 13.4592 58.4067 13.6723 58.6685C13.8854 58.9343 14.1551 59.0672 14.4795 59.0672Z" fill="#F12D3B"/>
<path d="M18.3671 60.2714H17.4939C17.3958 60.2714 17.3486 60.2203 17.3486 60.1181V55.2635C17.3486 55.2226 17.3637 55.1858 17.3939 55.1551C17.4241 55.1244 17.458 55.1101 17.4939 55.1101H18.3218C18.3633 55.1101 18.3972 55.1244 18.4199 55.153C18.4444 55.1817 18.4557 55.2185 18.4557 55.2635V58.0813L19.9494 55.2635C20.0079 55.1612 20.0777 55.1101 20.1607 55.1101H21.1263C21.1659 55.1101 21.198 55.1244 21.2206 55.153C21.2432 55.1817 21.2545 55.2185 21.2545 55.2635V60.1181C21.2545 60.2203 21.2112 60.2714 21.1263 60.2714H20.2946C20.1965 60.2714 20.1493 60.2203 20.1493 60.1181V57.1121L18.5821 60.1181C18.5293 60.2203 18.4576 60.2714 18.3671 60.2714Z" fill="#F12D3B"/>
<path d="M24.0251 60.2715H23.167C23.0803 60.2715 23.035 60.2204 23.035 60.1182V56.2983H21.9826C21.8958 56.2983 21.8506 56.2472 21.8506 56.1449V55.2615C21.8506 55.1593 21.894 55.1082 21.9826 55.1082H25.2171C25.3039 55.1082 25.3491 55.1593 25.3491 55.2615V56.1449C25.3491 56.2472 25.3057 56.2983 25.2171 56.2983H24.1591V60.1182C24.1591 60.2204 24.1138 60.2715 24.0251 60.2715Z" fill="#F12D3B"/>
<path d="M29.0664 60.2714H26.0432C25.9564 60.2714 25.9111 60.2203 25.9111 60.1181V55.2635C25.9111 55.1612 25.9545 55.1101 26.0432 55.1101H29.0098C29.0966 55.1101 29.1419 55.1612 29.1419 55.2635V56.1571C29.1419 56.2573 29.0985 56.3064 29.0098 56.3064H27.0654V57.1652H28.5402C28.6383 57.1652 28.6854 57.2184 28.6854 57.3247V58.0404C28.6854 58.1427 28.6364 58.1938 28.5402 58.1938H27.0654V59.0793H29.0664C29.1532 59.0793 29.1984 59.1304 29.1984 59.2326V60.1181C29.1984 60.2203 29.1551 60.2714 29.0664 60.2714Z" fill="#F12D3B"/>
<path d="M29.5549 60.3369C29.4681 60.3369 29.4229 60.2796 29.4229 60.1631V59.2244C29.4229 59.1242 29.4625 59.0752 29.5398 59.0752C29.6303 59.0752 29.7152 59.0363 29.7906 58.9607C29.8623 58.8891 29.8981 58.7971 29.8981 58.6866V55.2839C29.8981 55.2348 29.9094 55.1939 29.934 55.1612C29.9585 55.1285 29.9887 55.1101 30.0301 55.1101H33.3948C33.44 55.1101 33.4759 55.1224 33.5042 55.149C33.5306 55.1735 33.5438 55.2103 33.5438 55.2573V60.1201C33.5438 60.1692 33.5306 60.206 33.506 60.2326C33.4815 60.2592 33.4476 60.2735 33.4023 60.2735H32.5197C32.431 60.2735 32.3858 60.2224 32.3858 60.1201V56.3493H31.0524V58.6887C31.0524 59.1447 30.9109 59.5332 30.6261 59.8522C30.4884 60.0076 30.3281 60.1283 30.1433 60.2121C29.9585 60.296 29.7623 60.3389 29.553 60.3389L29.5549 60.3369Z" fill="#F12D3B"/>
<path d="M36.3991 60.2714H34.4848C34.4471 60.2714 34.4169 60.2571 34.3943 60.2305C34.3717 60.204 34.3604 60.1671 34.3604 60.1181V55.2635C34.3604 55.1612 34.4018 55.1101 34.4848 55.1101H35.3694C35.4599 55.1101 35.507 55.1612 35.507 55.2635V56.9137H36.4199C36.8122 56.9137 37.1384 57.0855 37.4044 57.4311C37.5232 57.5865 37.6156 57.7644 37.6816 57.9668C37.7476 58.1693 37.7797 58.3738 37.7797 58.5824C37.7797 59.02 37.6533 59.4064 37.3987 59.7439C37.2723 59.9115 37.1215 60.0404 36.9498 60.1324C36.7782 60.2244 36.5953 60.2714 36.3991 60.2714ZM35.507 59.1692H36.1502C36.2878 59.1692 36.3991 59.1058 36.4878 58.9811C36.567 58.8645 36.6066 58.7337 36.6066 58.5885C36.6066 58.4433 36.567 58.3042 36.4878 58.1897C36.401 58.0691 36.2878 58.0098 36.1502 58.0098H35.507V59.1713V59.1692Z" fill="#F12D3B"/>
<path d="M39.3597 60.2714H38.4827C38.3979 60.2714 38.3545 60.2203 38.3545 60.1181V55.2635C38.3545 55.2185 38.3658 55.1837 38.3884 55.153C38.4111 55.1244 38.4431 55.1101 38.4827 55.1101H39.3767C39.4597 55.1101 39.5012 55.1592 39.5012 55.2553V56.9137H40.9968V55.2635C40.9968 55.2185 41.0081 55.1837 41.0326 55.153C41.0571 55.1224 41.0873 55.1101 41.1288 55.1101H42.0228C42.1039 55.1101 42.1454 55.1592 42.1454 55.2553V60.1181C42.1454 60.2203 42.0982 60.2714 42.0058 60.2714H41.1288C41.042 60.2714 40.9968 60.2203 40.9968 60.1181V58.1447H39.5012V60.1181C39.5012 60.2203 39.454 60.2714 39.3578 60.2714H39.3597Z" fill="#F12D3B"/>
<path d="M45.0557 60.3491C44.6389 60.3491 44.2542 60.2285 43.9052 59.9872C43.5639 59.75 43.2904 59.433 43.0886 59.0342C42.8811 58.6334 42.7793 58.1877 42.7793 57.6969C42.7793 57.2061 42.883 56.7644 43.0886 56.3513C43.2904 55.9465 43.5639 55.6274 43.9052 55.3964C44.2617 55.1551 44.6446 55.0344 45.0557 55.0344C45.4669 55.0344 45.8497 55.1551 46.2062 55.3964C46.5588 55.6397 46.8304 55.9587 47.0266 56.3513C47.234 56.7685 47.3359 57.2163 47.3359 57.6969C47.3359 58.1774 47.2321 58.6294 47.0266 59.0342C46.8323 59.4289 46.5588 59.7459 46.2062 59.9872C45.8629 60.2285 45.4782 60.3491 45.0557 60.3491ZM45.0557 59.067C45.382 59.067 45.6536 58.934 45.8686 58.6682C46.0798 58.4085 46.1854 58.0854 46.1854 57.6948C46.1854 57.3043 46.0798 56.9771 45.8686 56.7174C45.6498 56.4495 45.3782 56.3145 45.0557 56.3145C44.7332 56.3145 44.4616 56.4495 44.2485 56.7174C44.0354 56.9791 43.9298 57.3043 43.9298 57.6948C43.9298 58.0854 44.0354 58.4065 44.2485 58.6682C44.4616 58.934 44.7313 59.067 45.0557 59.067Z" fill="#F12D3B"/>
<path d="M50.0938 58.7604H48.0607C47.974 58.7604 47.9287 58.7052 47.9287 58.5927V57.8873C47.9287 57.785 47.9721 57.7339 48.0607 57.7339H50.0938C50.1316 57.7339 50.1636 57.7482 50.1881 57.7748C50.2127 57.8034 50.2259 57.8402 50.2259 57.8852V58.5907C50.2259 58.6316 50.2127 58.6705 50.1863 58.7052C50.1598 58.74 50.1297 58.7584 50.0938 58.7584V58.7604Z" fill="#F12D3B"/>
<path d="M51.6228 61.3532H50.8364C50.7703 61.3532 50.7383 61.3184 50.7383 61.2489V59.1611C50.7383 59.0588 50.7817 59.0077 50.8703 59.0077H51.3079C51.4625 58.6621 51.5738 58.3779 51.6379 58.1529C51.7247 57.8319 51.7869 57.4638 51.8227 57.0548C51.8623 56.5845 51.885 55.9771 51.8887 55.2328C51.8887 55.151 51.9208 55.1101 51.9868 55.1101H54.6517C54.68 55.1101 54.7045 55.1203 54.7253 55.1428C54.746 55.1653 54.7574 55.1919 54.7574 55.2246V59.0056H55.127C55.1647 59.0056 55.1968 59.02 55.2213 59.0465C55.2458 59.0752 55.259 59.112 55.259 59.157V61.2387C55.259 61.3123 55.2251 61.3491 55.1553 61.3491H54.3028C54.2387 61.3491 54.2066 61.3123 54.2066 61.2387V60.2694H51.7303V61.2469C51.7303 61.3164 51.6964 61.3511 51.6266 61.3511L51.6228 61.3532ZM52.5149 59.0077H53.5993V56.3657H52.9468C52.9468 56.7706 52.9091 57.2061 52.8374 57.6683C52.7601 58.1386 52.6526 58.5844 52.5149 59.0056V59.0077Z" fill="#F12D3B"/>
<path d="M58.9893 60.2714H55.966C55.8793 60.2714 55.834 60.2203 55.834 60.1181V55.2635C55.834 55.1612 55.8774 55.1101 55.966 55.1101H58.9327C59.0194 55.1101 59.0647 55.1612 59.0647 55.2635V56.1571C59.0647 56.2573 59.0213 56.3064 58.9327 56.3064H56.9882V57.1652H58.4631C58.5611 57.1652 58.6083 57.2184 58.6083 57.3247V58.0404C58.6083 58.1427 58.5593 58.1938 58.4631 58.1938H56.9882V59.0793H58.9893C59.076 59.0793 59.1213 59.1304 59.1213 59.2326V60.1181C59.1213 60.2203 59.0779 60.2714 58.9893 60.2714Z" fill="#F12D3B"/>
<path d="M61.9881 60.2714H59.8361C59.7494 60.2714 59.7041 60.2203 59.7041 60.1181V55.2635C59.7041 55.1612 59.7475 55.1101 59.8361 55.1101H61.8164C62.1672 55.1101 62.469 55.2553 62.716 55.5436C62.9669 55.836 63.0914 56.1898 63.0914 56.607C63.0914 56.9587 63.0027 57.2552 62.8235 57.4924C62.9688 57.6478 63.0819 57.8319 63.1649 58.0466C63.2479 58.2613 63.2894 58.4821 63.2894 58.7091C63.2894 59.1283 63.1611 59.4944 62.9046 59.8032C62.7839 59.9483 62.6425 60.0629 62.4841 60.1447C62.3256 60.2264 62.1597 60.2673 61.9899 60.2673L61.9881 60.2714ZM60.8583 57.1427H61.4901C61.6259 57.1427 61.7372 57.0957 61.824 56.9996C61.9088 56.9076 61.9522 56.7869 61.9522 56.6376C61.9522 56.4986 61.9107 56.38 61.8277 56.2839C61.741 56.1837 61.6316 56.1346 61.4996 56.1346H60.8583V57.1427ZM60.8583 59.2388H61.658C61.7844 59.2388 61.8919 59.1815 61.9805 59.0649C62.071 58.9423 62.1182 58.8073 62.1182 58.658C62.1182 58.5087 62.0748 58.3779 61.9862 58.2613C61.8919 58.1386 61.7844 58.0773 61.658 58.0773H60.8583V59.2388Z" fill="#F12D3B"/>
<path d="M66.8584 60.2714H63.8351C63.7484 60.2714 63.7031 60.2203 63.7031 60.1181V55.2635C63.7031 55.1612 63.7465 55.1101 63.8351 55.1101H66.8018C66.8886 55.1101 66.9338 55.1612 66.9338 55.2635V56.1571C66.9338 56.2573 66.8905 56.3064 66.8018 56.3064H64.8574V57.1652H66.3322C66.4303 57.1652 66.4774 57.2184 66.4774 57.3247V58.0404C66.4774 58.1427 66.4284 58.1938 66.3322 58.1938H64.8574V59.0793H66.8584C66.9452 59.0793 66.9904 59.1304 66.9904 59.2326V60.1181C66.9904 60.2203 66.947 60.2714 66.8584 60.2714Z" fill="#F12D3B"/>
<path d="M67.3488 60.3369C67.2621 60.3369 67.2168 60.2796 67.2168 60.1631V59.2244C67.2168 59.1242 67.2564 59.0752 67.3337 59.0752C67.4243 59.0752 67.5091 59.0363 67.5846 58.9607C67.6562 58.8891 67.6921 58.7971 67.6921 58.6866V55.2839C67.6921 55.2348 67.7034 55.1939 67.7279 55.1612C67.7524 55.1285 67.7826 55.1101 67.8241 55.1101H71.1887C71.234 55.1101 71.2698 55.1224 71.2981 55.149C71.3245 55.1735 71.3377 55.2103 71.3377 55.2573V60.1201C71.3377 60.1692 71.3245 60.206 71.3 60.2326C71.2755 60.2592 71.2415 60.2735 71.1963 60.2735H70.3136C70.225 60.2735 70.1797 60.2224 70.1797 60.1201V56.3493H68.8463V58.6887C68.8463 59.1447 68.7049 59.5332 68.4201 59.8522C68.2824 60.0076 68.1221 60.1283 67.9373 60.2121C67.7524 60.296 67.5563 60.3389 67.3469 60.3389L67.3488 60.3369Z" fill="#F12D3B"/>
<path d="M74.2207 60.3494C73.8039 60.3494 73.4192 60.2287 73.0703 59.9874C72.7289 59.7502 72.4554 59.4332 72.2536 59.0345C72.0462 58.6337 71.9443 58.1879 71.9443 57.6971C71.9443 57.2064 72.0481 56.7647 72.2536 56.3516C72.4554 55.9467 72.7289 55.6277 73.0703 55.3966C73.4267 55.1553 73.8096 55.0347 74.2207 55.0347C74.6319 55.0347 75.0147 55.1553 75.3712 55.3966C75.7239 55.64 75.9955 55.959 76.1916 56.3516C76.3991 56.7687 76.5009 57.2166 76.5009 57.6971C76.5009 58.1777 76.3972 58.6296 76.1916 59.0345C75.9974 59.4292 75.7239 59.7461 75.3712 59.9874C75.0279 60.2287 74.6432 60.3494 74.2207 60.3494ZM74.2207 59.0672C74.547 59.0672 74.8186 58.9343 75.0336 58.6685C75.2448 58.4088 75.3505 58.0857 75.3505 57.6951C75.3505 57.3045 75.2448 56.9773 75.0336 56.7176C74.8148 56.4497 74.5432 56.3148 74.2207 56.3148C73.8982 56.3148 73.6266 56.4497 73.4135 56.7176C73.2004 56.9794 73.0948 57.3045 73.0948 57.6951C73.0948 58.0857 73.2004 58.4067 73.4135 58.6685C73.6266 58.9343 73.8963 59.0672 74.2207 59.0672Z" fill="#F12D3B"/>
<path d="M78.0813 60.2716H77.1779C77.0912 60.2716 77.0459 60.2225 77.0459 60.1264V55.2718C77.0459 55.1655 77.0893 55.1123 77.1779 55.1123H80.6236C80.6595 55.1123 80.6915 55.1266 80.7198 55.1573C80.7481 55.188 80.7632 55.2227 80.7632 55.2657V60.1203C80.7632 60.2225 80.7161 60.2736 80.6236 60.2736H79.7202C79.6335 60.2736 79.5882 60.2225 79.5882 60.1203V56.3433H78.219V60.1284C78.219 60.2266 78.1718 60.2736 78.0794 60.2736L78.0813 60.2716Z" fill="#F12D3B"/>
<path d="M84.751 60.2714H81.7277C81.641 60.2714 81.5957 60.2203 81.5957 60.1181V55.2635C81.5957 55.1612 81.6391 55.1101 81.7277 55.1101H84.6944C84.7812 55.1101 84.8264 55.1612 84.8264 55.2635V56.1571C84.8264 56.2573 84.783 56.3064 84.6944 56.3064H82.7499V57.1652H84.2248C84.3229 57.1652 84.37 57.2184 84.37 57.3247V58.0404C84.37 58.1427 84.321 58.1938 84.2248 58.1938H82.7499V59.0793H84.751C84.8377 59.0793 84.883 59.1304 84.883 59.2326V60.1181C84.883 60.2203 84.8396 60.2714 84.751 60.2714Z" fill="#F12D3B"/>
<path d="M86.4875 60.2714H85.603C85.52 60.2714 85.4785 60.2203 85.4785 60.1181V55.2635C85.4785 55.2144 85.4898 55.1776 85.5125 55.151C85.5351 55.1244 85.5653 55.1101 85.603 55.1101H87.5173C87.7776 55.1101 88.019 55.1919 88.2415 55.3575C88.4414 55.5109 88.6036 55.7195 88.7243 55.9874C88.8394 56.2409 88.8978 56.5109 88.8978 56.8012C88.8978 57.0098 88.8658 57.2143 88.7998 57.4127C88.7338 57.611 88.6413 57.791 88.5225 57.9484C88.2566 58.2961 87.9284 58.4699 87.538 58.4699H86.6252V60.1201C86.6252 60.2224 86.5799 60.2735 86.4875 60.2735V60.2714ZM86.6252 57.3738H87.2683C87.406 57.3738 87.5173 57.3145 87.6059 57.1939C87.6851 57.0773 87.7247 56.9444 87.7247 56.7951C87.7247 56.6458 87.6851 56.517 87.6059 56.3984C87.5173 56.2757 87.4041 56.2144 87.2683 56.2144H86.6252V57.3759V57.3738Z" fill="#F12D3B"/>
<path d="M91.44 60.3492C91.027 60.3492 90.6422 60.2286 90.2858 59.9852C89.9444 59.7541 89.669 59.4331 89.4635 59.0262C89.2541 58.611 89.1504 58.1632 89.1504 57.6806C89.1504 57.198 89.2541 56.7522 89.4635 56.3392C89.6672 55.9384 89.9425 55.6214 90.2858 55.3903C90.6403 55.1511 91.0232 55.0325 91.44 55.0325C91.689 55.0325 91.9304 55.0795 92.168 55.1715C92.3623 55.2513 92.5509 55.3658 92.7338 55.5151C92.7715 55.5498 92.7904 55.5887 92.7904 55.6337C92.7904 55.6582 92.7847 55.6807 92.7753 55.6991L92.2566 56.5641C92.2359 56.5989 92.2095 56.6152 92.1737 56.6152C92.1397 56.6152 92.1058 56.5989 92.0718 56.5661C91.8851 56.3923 91.6739 56.3064 91.44 56.3064C91.1118 56.3064 90.8365 56.4394 90.6139 56.7032C90.3952 56.9649 90.2858 57.29 90.2858 57.6806C90.2858 58.0712 90.3952 58.3963 90.6139 58.6642C90.8384 58.9321 91.1137 59.0671 91.44 59.0671C91.6512 59.0671 91.8587 58.9832 92.0624 58.8176C92.1114 58.7767 92.1529 58.7542 92.185 58.7542C92.2208 58.7542 92.251 58.7746 92.2736 58.8176L92.7621 59.656C92.7885 59.6928 92.8017 59.7276 92.8017 59.7562C92.8017 59.7971 92.7753 59.838 92.7206 59.8768C92.5395 60.0261 92.3547 60.1365 92.1623 60.2102C91.936 60.3022 91.6946 60.3492 91.4381 60.3492H91.44Z" fill="#F12D3B"/>
<path d="M94.4413 60.2715H93.5266C93.5001 60.2715 93.4756 60.2653 93.4511 60.251C93.4134 60.2347 93.3945 60.1958 93.3945 60.1365V55.2635C93.3945 55.1613 93.4379 55.1101 93.5228 55.1101H94.4375C94.5129 55.1101 94.5507 55.1633 94.5507 55.2676V57.1162C94.5959 57.1162 94.6525 57.0692 94.7204 56.9771C94.7619 56.926 94.8241 56.836 94.9052 56.7052L94.9769 56.5845L95.0184 56.5109L95.322 55.9445C95.4937 55.6255 95.7351 55.3944 96.0462 55.2533C96.2613 55.1531 96.5046 55.104 96.7761 55.104C96.8063 55.104 96.8289 55.1101 96.844 55.1245C96.8742 55.149 96.8893 55.1899 96.8893 55.2431V56.1612C96.8893 56.2594 96.8478 56.3064 96.7648 56.3064C96.663 56.3064 96.5517 56.3596 96.4272 56.4659C96.3122 56.5661 96.216 56.6806 96.1405 56.8095L95.6332 57.6499L97.3061 60.1038C97.3212 60.1283 97.3306 60.1529 97.3306 60.1774C97.3306 60.1938 97.3269 60.206 97.3212 60.2163C97.308 60.2531 97.2835 60.2715 97.2533 60.2715H96.1387C96.0896 60.2715 96.05 60.2612 96.0217 60.2428C95.9934 60.2244 95.9633 60.1917 95.9312 60.1426L94.8675 58.5088C94.8071 58.5538 94.7393 58.5824 94.6619 58.5987C94.6355 58.6049 94.6129 58.609 94.5903 58.609L94.5507 58.6131V60.1426C94.5507 60.1754 94.5412 60.204 94.5205 60.2306C94.4997 60.2572 94.4733 60.2715 94.4394 60.2715H94.4413Z" fill="#F12D3B"/>
<path d="M98.3428 60.2714H97.4545C97.3885 60.2714 97.3564 60.2449 97.3564 60.1917C97.3564 60.1774 97.3621 60.1528 97.3715 60.1181L98.9878 55.2635C99.0237 55.1612 99.0859 55.1101 99.1727 55.1101H99.9025C99.9874 55.1101 100.048 55.1612 100.082 55.2635L101.709 60.1181C101.719 60.1528 101.724 60.1774 101.724 60.1917C101.724 60.2449 101.692 60.2714 101.626 60.2714H100.738C100.651 60.2714 100.593 60.2203 100.563 60.1181L100.353 59.4371H98.7257L98.5239 60.1181C98.4937 60.2203 98.4352 60.2714 98.3447 60.2714H98.3428ZM99.0576 58.3226H100.008L99.5291 56.7419L99.0576 58.3226Z" fill="#F12D3B"/>
<path d="M102.911 60.2714H101.838C101.777 60.2714 101.749 60.2408 101.749 60.1815C101.749 60.1671 101.755 60.1467 101.764 60.1181L102.617 58.2654C102.394 58.0957 102.219 57.8871 102.092 57.6396C101.956 57.384 101.89 57.1202 101.89 56.8442C101.89 56.6274 101.924 56.4127 101.994 56.2041C102.064 55.9956 102.16 55.8095 102.285 55.6479C102.562 55.288 102.903 55.1101 103.305 55.1101H105.285C105.323 55.1101 105.353 55.1244 105.378 55.1551C105.402 55.1858 105.414 55.2205 105.414 55.2635V60.1181C105.414 60.2203 105.37 60.2714 105.285 60.2714H104.393C104.306 60.2714 104.261 60.2203 104.261 60.1181V58.5537H103.782L103.075 60.1242C103.048 60.1815 103.026 60.2203 103.005 60.2408C102.984 60.2612 102.954 60.2694 102.915 60.2694L102.911 60.2714ZM103.597 57.4433H104.259V56.1857H103.597C103.448 56.1857 103.322 56.2532 103.216 56.3882C103.116 56.515 103.067 56.6601 103.067 56.8196C103.067 56.9791 103.116 57.1305 103.216 57.2511C103.318 57.3799 103.445 57.4454 103.597 57.4454V57.4433Z" fill="#F12D3B"/>
<path d="M108.989 60.2715H108.074C108.048 60.2715 108.023 60.2653 107.999 60.251C107.961 60.2347 107.942 60.1958 107.942 60.1365V55.2635C107.942 55.1613 107.986 55.1101 108.071 55.1101H108.985C109.061 55.1101 109.099 55.1633 109.099 55.2676V57.1162C109.144 57.1162 109.2 57.0692 109.268 56.9771C109.31 56.926 109.372 56.836 109.453 56.7052L109.525 56.5845L109.566 56.5109L109.87 55.9445C110.042 55.6255 110.283 55.3944 110.594 55.2533C110.809 55.1531 111.052 55.104 111.324 55.104C111.354 55.104 111.377 55.1101 111.392 55.1245C111.422 55.149 111.437 55.1899 111.437 55.2431V56.1612C111.437 56.2594 111.396 56.3064 111.313 56.3064C111.211 56.3064 111.1 56.3596 110.975 56.4659C110.86 56.5661 110.764 56.6806 110.688 56.8095L110.181 57.6499L111.854 60.1038C111.869 60.1283 111.878 60.1529 111.878 60.1774C111.878 60.1938 111.875 60.206 111.869 60.2163C111.856 60.2531 111.831 60.2715 111.801 60.2715H110.687C110.637 60.2715 110.598 60.2612 110.57 60.2428C110.541 60.2244 110.511 60.1917 110.479 60.1426L109.415 58.5088C109.355 58.5538 109.287 58.5824 109.21 58.5987C109.183 58.6049 109.161 58.609 109.138 58.609L109.099 58.6131V60.1426C109.099 60.1754 109.089 60.204 109.068 60.2306C109.048 60.2572 109.021 60.2715 108.987 60.2715H108.989Z" fill="#F12D3B"/>
<path d="M114.042 60.3491C113.625 60.3491 113.24 60.2285 112.892 59.9872C112.55 59.75 112.277 59.433 112.075 59.0342C111.867 58.6334 111.766 58.1877 111.766 57.6969C111.766 57.2061 111.869 56.7644 112.075 56.3513C112.277 55.9465 112.55 55.6274 112.892 55.3964C113.248 55.1551 113.631 55.0344 114.042 55.0344C114.453 55.0344 114.836 55.1551 115.192 55.3964C115.545 55.6397 115.817 55.9587 116.013 56.3513C116.22 56.7685 116.322 57.2163 116.322 57.6969C116.322 58.1774 116.218 58.6294 116.013 59.0342C115.819 59.4289 115.545 59.7459 115.192 59.9872C114.849 60.2285 114.464 60.3491 114.042 60.3491ZM114.042 59.067C114.368 59.067 114.64 58.934 114.855 58.6682C115.066 58.4085 115.172 58.0854 115.172 57.6948C115.172 57.3043 115.066 56.9771 114.855 56.7174C114.636 56.4495 114.365 56.3145 114.042 56.3145C113.72 56.3145 113.448 56.4495 113.235 56.7174C113.022 56.9791 112.916 57.3043 112.916 57.6948C112.916 58.0854 113.022 58.4065 113.235 58.6682C113.448 58.934 113.718 59.067 114.042 59.067Z" fill="#F12D3B"/>
<path d="M117.704 60.2714H116.857C116.814 60.2714 116.78 60.2571 116.756 60.2305C116.731 60.204 116.722 60.1671 116.725 60.1181L117.171 55.2635C117.18 55.1612 117.223 55.1101 117.303 55.1101H118.345C118.383 55.1101 118.41 55.1183 118.425 55.1367C118.44 55.1551 118.457 55.196 118.478 55.2635L119.292 58.384L120.103 55.2635C120.124 55.196 120.141 55.1531 120.156 55.1367C120.171 55.1203 120.198 55.1101 120.235 55.1101H121.278C121.356 55.1101 121.399 55.1612 121.41 55.2635L121.855 60.1181C121.859 60.1671 121.85 60.204 121.825 60.2305C121.801 60.2571 121.767 60.2714 121.723 60.2714H120.877C120.799 60.2714 120.756 60.2203 120.744 60.1181L120.503 57.3943L119.805 60.1119C119.79 60.1794 119.773 60.2224 119.754 60.2428C119.735 60.2633 119.705 60.2714 119.658 60.2714H118.923C118.877 60.2714 118.845 60.2612 118.826 60.2408C118.808 60.2203 118.791 60.1774 118.777 60.1119L118.089 57.3247L117.838 60.1181C117.829 60.2203 117.785 60.2714 117.706 60.2714H117.704Z" fill="#F12D3B"/>
<path d="M123.476 60.2716H122.572C122.486 60.2716 122.44 60.2225 122.44 60.1264V55.2718C122.44 55.1655 122.484 55.1123 122.572 55.1123H126.018C126.054 55.1123 126.086 55.1266 126.114 55.1573C126.143 55.188 126.158 55.2227 126.158 55.2657V60.1203C126.158 60.2225 126.111 60.2736 126.018 60.2736H125.115C125.028 60.2736 124.983 60.2225 124.983 60.1203V56.3433H123.614V60.1284C123.614 60.2266 123.566 60.2736 123.474 60.2736L123.476 60.2716Z" fill="#F12D3B"/>
<path d="M127.617 60.2714H126.729C126.663 60.2714 126.631 60.2449 126.631 60.1917C126.631 60.1774 126.637 60.1528 126.646 60.1181L128.262 55.2635C128.298 55.1612 128.36 55.1101 128.447 55.1101H129.177C129.262 55.1101 129.322 55.1612 129.356 55.2635L130.984 60.1181C130.993 60.1528 130.999 60.1774 130.999 60.1917C130.999 60.2449 130.967 60.2714 130.901 60.2714H130.012C129.926 60.2714 129.867 60.2203 129.837 60.1181L129.628 59.4371H128L127.798 60.1181C127.768 60.2203 127.71 60.2714 127.619 60.2714H127.617ZM128.332 58.3226H129.283L128.804 56.7419L128.332 58.3226Z" fill="#F12D3B"/>
<path d="M132.419 60.2714H131.542C131.457 60.2714 131.414 60.2203 131.414 60.1181V55.2635C131.414 55.2185 131.425 55.1837 131.448 55.153C131.471 55.1224 131.503 55.1101 131.542 55.1101H132.436C132.519 55.1101 132.561 55.1592 132.561 55.2553V56.9137H134.056V55.2635C134.056 55.2185 134.068 55.1837 134.092 55.153C134.117 55.1244 134.149 55.1101 134.188 55.1101H135.082C135.163 55.1101 135.205 55.1592 135.205 55.2553V60.1181C135.205 60.2203 135.158 60.2714 135.065 60.2714H134.188C134.102 60.2714 134.056 60.2203 134.056 60.1181V58.1447H132.561V60.1181C132.561 60.2203 132.514 60.2714 132.417 60.2714H132.419Z" fill="#F12D3B"/>
<path d="M137.072 60.2714H136.199C136.101 60.2714 136.052 60.2203 136.052 60.1181V55.2635C136.052 55.2226 136.067 55.1858 136.099 55.1551C136.129 55.1244 136.163 55.1101 136.199 55.1101H137.027C137.068 55.1101 137.102 55.1244 137.125 55.153C137.149 55.1817 137.161 55.2185 137.161 55.2635V58.0813L138.654 55.2635C138.713 55.1612 138.783 55.1101 138.866 55.1101H139.831C139.871 55.1101 139.903 55.1244 139.926 55.153C139.948 55.1817 139.96 55.2185 139.96 55.2635V60.1181C139.96 60.2203 139.916 60.2714 139.831 60.2714H139C138.902 60.2714 138.854 60.2203 138.854 60.1181V57.1121L137.287 60.1181C137.234 60.2203 137.163 60.2714 137.072 60.2714Z" fill="#F12D3B"/>
<path d="M141.578 60.2714H140.505C140.444 60.2714 140.416 60.2408 140.416 60.1815C140.416 60.1671 140.422 60.1467 140.431 60.1181L141.284 58.2654C141.061 58.0957 140.886 57.8871 140.759 57.6396C140.623 57.384 140.557 57.1202 140.557 56.8442C140.557 56.6274 140.591 56.4127 140.661 56.2041C140.731 55.9956 140.827 55.8095 140.952 55.6479C141.231 55.288 141.57 55.1101 141.972 55.1101H143.952C143.99 55.1101 144.02 55.1244 144.045 55.1551C144.069 55.1858 144.081 55.2205 144.081 55.2635V60.1181C144.081 60.2203 144.037 60.2714 143.952 60.2714H143.06C142.973 60.2714 142.928 60.2203 142.928 60.1181V58.5537H142.449L141.742 60.1242C141.715 60.1815 141.693 60.2203 141.672 60.2408C141.651 60.2612 141.621 60.2694 141.582 60.2694L141.578 60.2714ZM142.264 57.4433H142.926V56.1857H142.264C142.115 56.1857 141.989 56.2532 141.883 56.3882C141.783 56.515 141.734 56.6601 141.734 56.8196C141.734 56.9791 141.783 57.1305 141.883 57.2511C141.985 57.3799 142.112 57.4454 142.264 57.4454V57.4433Z" fill="#F12D3B"/>
</g>
<defs>
<clipPath id="clip0_121_1321">
<rect width="144" height="94" fill="white" transform="translate(0.421875)"/>
</clipPath>
</defs>
</svg>
