<svg width="52" height="33" viewBox="0 0 52 33" fill="none" xmlns="http://www.w3.org/2000/svg">
<g clip-path="url(#clip0_309_168)">
<path fill-rule="evenodd" clip-rule="evenodd" d="M3.05859 33.0005L6.91882 23.2199H8.26527L12.167 33.0005H10.2764L9.27187 30.4778H5.98032L4.94716 33.0005H3.05859ZM6.42778 28.9035H8.69093L7.60669 25.8517L7.56514 25.4892L7.52564 25.8517L6.42846 28.9035H6.42778ZM14.0556 33.0005V24.9737H12.3502V23.2178H17.5065V24.9737H15.7746V33.0005H14.0556ZM21.7236 26.0865L21.6841 25.7404L21.6419 26.0865L19.5797 33.0005H17.6781L21.1284 23.2199H22.4748L25.9673 33.0005H23.9316L21.7236 26.0865ZM26.1369 33.0005L29.9971 23.2199H31.3435L35.246 33.0005H33.3554L32.3508 30.4778H29.0593L28.0261 33.0005H26.1375H26.1369ZM29.506 28.9035H31.7692L30.685 25.8517L30.6434 25.4892L30.6039 25.8517L29.5067 28.9035H29.506ZM36.1954 33.0005V23.2199H37.9137V27.1339H41.2189V23.2199H42.9508V33.0005H41.2189V28.9035H37.9137V33.0005H36.1954ZM45.6743 33.0005V24.9737H43.969V23.2178H49.1252V24.9737H47.3933V33.0005H45.6743Z" fill="#F12D3B"/>
<path fill-rule="evenodd" clip-rule="evenodd" d="M5.4678 16.902H0.311523L26.1556 0L52.0003 16.902H46.844C47.2479 15.9429 46.9155 15.2423 46.0894 14.7146C39.445 10.2515 32.8006 5.78835 26.1556 1.32523C19.5112 5.78835 12.8668 10.2515 6.22173 14.7146C5.39561 15.2415 5.06325 15.9422 5.46712 16.902H5.4678Z" fill="#F12D3B"/>
<path fill-rule="evenodd" clip-rule="evenodd" d="M26.1548 1.32617L6.22168 14.7148L26.1548 2.85025L46.0887 14.7148L26.1548 1.32617Z" fill="#F12D3B"/>
<path fill-rule="evenodd" clip-rule="evenodd" d="M31.0608 11.0031H32.4441V12.4611H31.0608V11.0031ZM26.3186 7.48828C26.9425 7.52705 27.5098 7.7898 27.9491 8.20043L26.3186 9.91906V7.48828ZM28.1793 8.44308L26.3861 10.3333H28.8597C28.8597 9.60821 28.6022 8.94632 28.1793 8.44308ZM25.9257 10.3333H23.4521C23.4521 9.60175 23.7136 8.93555 24.1427 8.43087L25.9264 10.3326H25.9257V10.3333ZM24.3735 8.1911L25.9931 9.91762V7.48972C25.374 7.52848 24.8115 7.78692 24.3735 8.1911ZM23.4521 15.2465H24.8353V16.7046H23.4521V15.2465ZM23.4521 13.1252H24.8353V14.5832H23.4521V13.1252ZM23.4521 11.0038H24.8353V12.4618H23.4521V11.0038ZM25.4326 15.2458H26.8158V16.7038H25.4326V15.2458ZM25.4326 13.1244H26.8158V14.5825H25.4326V13.1244ZM25.4326 11.0031H26.8158V12.4611H25.4326V11.0031ZM27.4131 15.2451H28.7963V16.7031H27.4131V15.2451ZM27.4131 13.1237H28.7963V14.5818H27.4131V13.1237ZM27.4131 11.0024H28.7963V12.4604H27.4131V11.0024ZM19.867 15.2444H21.2502V16.7024H19.867V15.2444ZM19.867 13.123H21.2502V14.581H19.867V13.123ZM17.9805 15.2444H19.3637V16.7024H17.9805V15.2444ZM17.9805 13.123H19.3637V14.581H17.9805V13.123ZM19.867 11.0016H21.2502V12.4597H19.867V11.0016ZM17.9805 11.0016H19.3637V12.4597H17.9805V11.0016ZM32.9467 15.2437H34.3299V16.7017H32.9467V15.2437ZM32.9467 13.1223H34.3299V14.5803H32.9467V13.1223ZM31.0602 15.2437H32.4434V16.7017H31.0602V15.2437ZM31.0602 13.1223H32.4434V14.5803H31.0602V13.1223ZM32.9467 11.0009H34.3299V12.459H32.9467V11.0009Z" fill="#F12D3B"/>
<path d="M0.826802 21.1868C0.677651 21.1868 0.538715 21.1445 0.409996 21.059C0.286725 20.9779 0.18729 20.8652 0.113055 20.7224C0.0374581 20.5766 0 20.4194 0 20.25C0 20.0806 0.0374581 19.9241 0.113055 19.779C0.186609 19.6383 0.286044 19.5271 0.409996 19.4459C0.538034 19.362 0.676289 19.3203 0.826802 19.3203C0.916702 19.3203 1.00388 19.3368 1.08969 19.3691C1.15984 19.3971 1.22794 19.4373 1.29401 19.4897C1.30763 19.5019 1.31444 19.5156 1.31444 19.5314C1.31444 19.54 1.3124 19.5479 1.30899 19.5543L1.1217 19.858C1.11421 19.8702 1.10467 19.876 1.09173 19.876C1.07947 19.876 1.06721 19.8702 1.05496 19.8587C0.987531 19.7977 0.911253 19.7676 0.826802 19.7676C0.708298 19.7676 0.608864 19.8142 0.5285 19.9068C0.449497 19.9987 0.409996 20.1129 0.409996 20.25C0.409996 20.3871 0.449497 20.5012 0.5285 20.5953C0.609545 20.6893 0.708979 20.7367 0.826802 20.7367C0.90308 20.7367 0.977997 20.7073 1.05155 20.6491C1.06926 20.6348 1.08424 20.6269 1.09582 20.6269C1.10876 20.6269 1.11966 20.6341 1.12783 20.6491L1.30422 20.9435C1.31376 20.9564 1.31852 20.9686 1.31852 20.9786C1.31852 20.993 1.30899 21.0074 1.28924 21.021C1.22386 21.0734 1.15711 21.1122 1.08765 21.138C1.00592 21.1703 0.918745 21.1868 0.826121 21.1868H0.826802Z" fill="#F12D3B"/>
<path d="M2.23448 21.1594H1.9246C1.89327 21.1594 1.87692 21.1414 1.87692 21.1055V19.7645H1.49689C1.46556 19.7645 1.44922 19.7465 1.44922 19.7107V19.4005C1.44922 19.3646 1.46488 19.3467 1.49689 19.3467H2.6649C2.69623 19.3467 2.71258 19.3646 2.71258 19.4005V19.7107C2.71258 19.7465 2.69691 19.7645 2.6649 19.7645H2.28283V21.1055C2.28283 21.1414 2.26649 21.1594 2.23448 21.1594Z" fill="#F12D3B"/>
<path d="M3.28233 21.1596H2.96292C2.93295 21.1596 2.91797 21.1417 2.91797 21.1058V19.4015C2.91797 19.3843 2.92206 19.3713 2.93023 19.362C2.9384 19.3527 2.9493 19.3477 2.96292 19.3477H3.65419C3.74818 19.3477 3.83535 19.3764 3.91572 19.4345C3.98791 19.4884 4.04648 19.5616 4.09007 19.6556C4.13161 19.7447 4.15272 19.8394 4.15272 19.9414C4.15272 20.0146 4.14115 20.0864 4.11731 20.156C4.09347 20.2256 4.0601 20.2888 4.01719 20.3441C3.92116 20.4661 3.80266 20.5272 3.66168 20.5272H3.33205V21.1065C3.33205 21.1424 3.31571 21.1603 3.28233 21.1603V21.1596ZM3.33205 20.1424H3.56429C3.61401 20.1424 3.65419 20.1215 3.6862 20.0792C3.7148 20.0383 3.72911 19.9916 3.72911 19.9392C3.72911 19.8868 3.7148 19.8416 3.6862 19.7999C3.65419 19.7569 3.61333 19.7353 3.56429 19.7353H3.33205V20.1431V20.1424Z" fill="#F12D3B"/>
<path d="M5.07692 21.1871C4.9264 21.1871 4.78747 21.1447 4.66147 21.06C4.5382 20.9767 4.43945 20.8655 4.36658 20.7255C4.29166 20.5848 4.25488 20.4283 4.25488 20.256C4.25488 20.0837 4.29234 19.9286 4.36658 19.7836C4.43945 19.6415 4.5382 19.5295 4.66147 19.4484C4.79019 19.3636 4.92845 19.3213 5.07692 19.3213C5.22539 19.3213 5.36364 19.3636 5.49236 19.4484C5.61972 19.5338 5.71779 19.6458 5.78862 19.7836C5.86354 19.9301 5.90031 20.0873 5.90031 20.256C5.90031 20.4247 5.86286 20.5833 5.78862 20.7255C5.71847 20.864 5.61972 20.9753 5.49236 21.06C5.36841 21.1447 5.22947 21.1871 5.07692 21.1871ZM5.07692 20.737C5.19474 20.737 5.29281 20.6903 5.37045 20.597C5.44673 20.5058 5.48487 20.3924 5.48487 20.2553C5.48487 20.1181 5.44673 20.0033 5.37045 19.9121C5.29145 19.8181 5.19338 19.7707 5.07692 19.7707C4.96046 19.7707 4.86238 19.8181 4.78543 19.9121C4.70847 20.004 4.67033 20.1181 4.67033 20.2553C4.67033 20.3924 4.70847 20.5051 4.78543 20.597C4.86238 20.6903 4.95978 20.737 5.07692 20.737Z" fill="#F12D3B"/>
<path d="M6.48008 21.1596H6.16475C6.12933 21.1596 6.1123 21.1417 6.1123 21.1058V19.4015C6.1123 19.3871 6.11775 19.3742 6.12865 19.3634C6.13955 19.3527 6.15181 19.3477 6.16475 19.3477H6.46373C6.47871 19.3477 6.49097 19.3527 6.49914 19.3627C6.508 19.3728 6.51208 19.3857 6.51208 19.4015V20.3908L7.05148 19.4015C7.07259 19.3656 7.09779 19.3477 7.12776 19.3477H7.47646C7.49076 19.3477 7.50234 19.3527 7.51051 19.3627C7.51869 19.3728 7.52277 19.3857 7.52277 19.4015V21.1058C7.52277 21.1417 7.50711 21.1596 7.47646 21.1596H7.17611C7.1407 21.1596 7.12367 21.1417 7.12367 21.1058V20.0505L6.55772 21.1058C6.53865 21.1417 6.51277 21.1596 6.48008 21.1596Z" fill="#F12D3B"/>
<path d="M8.52354 21.1594H8.21366C8.18233 21.1594 8.16598 21.1414 8.16598 21.1055V19.7645H7.78595C7.75463 19.7645 7.73828 19.7465 7.73828 19.7107V19.4005C7.73828 19.3646 7.75395 19.3467 7.78595 19.3467H8.95397C8.98529 19.3467 9.00164 19.3646 9.00164 19.4005V19.7107C9.00164 19.7465 8.98598 19.7645 8.95397 19.7645H8.57189V21.1055C8.57189 21.1414 8.55555 21.1594 8.52354 21.1594Z" fill="#F12D3B"/>
<path d="M10.3435 21.1596H9.25178C9.22045 21.1596 9.2041 21.1417 9.2041 21.1058V19.4015C9.2041 19.3656 9.21977 19.3477 9.25178 19.3477H10.3231C10.3544 19.3477 10.3708 19.3656 10.3708 19.4015V19.7152C10.3708 19.7504 10.3551 19.7676 10.3231 19.7676H9.62091V20.0691H10.1535C10.1889 20.0691 10.2059 20.0878 10.2059 20.1251V20.3764C10.2059 20.4123 10.1882 20.4302 10.1535 20.4302H9.62091V20.7411H10.3435C10.3748 20.7411 10.3912 20.759 10.3912 20.7949V21.1058C10.3912 21.1417 10.3755 21.1596 10.3435 21.1596Z" fill="#F12D3B"/>
<path d="M10.5203 21.1826C10.489 21.1826 10.4727 21.1625 10.4727 21.1216V20.7921C10.4727 20.7569 10.487 20.7396 10.5149 20.7396C10.5476 20.7396 10.5782 20.726 10.6055 20.6994C10.6313 20.6743 10.6443 20.642 10.6443 20.6032V19.4087C10.6443 19.3914 10.6484 19.3771 10.6572 19.3656C10.6661 19.3541 10.677 19.3477 10.692 19.3477H11.907C11.9233 19.3477 11.9362 19.352 11.9465 19.3613C11.956 19.3699 11.9608 19.3828 11.9608 19.3993V21.1065C11.9608 21.1237 11.956 21.1366 11.9471 21.146C11.9383 21.1553 11.926 21.1603 11.9097 21.1603H11.591C11.5589 21.1603 11.5426 21.1424 11.5426 21.1065V19.7827H11.0611V20.604C11.0611 20.7641 11.01 20.9005 10.9072 21.0124C10.8575 21.067 10.7996 21.1094 10.7328 21.1388C10.6661 21.1682 10.5952 21.1833 10.5196 21.1833L10.5203 21.1826Z" fill="#F12D3B"/>
<path d="M12.9911 21.1596H12.2998C12.2862 21.1596 12.2753 21.1546 12.2671 21.1453C12.259 21.1359 12.2549 21.123 12.2549 21.1058V19.4015C12.2549 19.3656 12.2699 19.3477 12.2998 19.3477H12.6192C12.6519 19.3477 12.669 19.3656 12.669 19.4015V19.9808H12.9986C13.1403 19.9808 13.2581 20.0411 13.3541 20.1625C13.397 20.217 13.4304 20.2795 13.4542 20.3505C13.4781 20.4216 13.4896 20.4934 13.4896 20.5666C13.4896 20.7203 13.444 20.8559 13.3521 20.9744C13.3064 21.0333 13.2519 21.0785 13.19 21.1108C13.128 21.1431 13.0619 21.1596 12.9911 21.1596ZM12.669 20.7727H12.9012C12.9509 20.7727 12.9911 20.7504 13.0231 20.7066C13.0517 20.6657 13.066 20.6198 13.066 20.5688C13.066 20.5178 13.0517 20.469 13.0231 20.4288C12.9918 20.3864 12.9509 20.3656 12.9012 20.3656H12.669V20.7734V20.7727Z" fill="#F12D3B"/>
<path d="M14.0612 21.1596H13.7446C13.7139 21.1596 13.6982 21.1417 13.6982 21.1058V19.4015C13.6982 19.3857 13.7023 19.3735 13.7105 19.3627C13.7187 19.3527 13.7303 19.3477 13.7446 19.3477H14.0674C14.0973 19.3477 14.1123 19.3649 14.1123 19.3986V19.9808H14.6524V19.4015C14.6524 19.3857 14.6565 19.3735 14.6653 19.3627C14.6742 19.352 14.6851 19.3477 14.7001 19.3477H15.0229C15.0522 19.3477 15.0672 19.3649 15.0672 19.3986V21.1058C15.0672 21.1417 15.0501 21.1596 15.0168 21.1596H14.7001C14.6687 21.1596 14.6524 21.1417 14.6524 21.1058V20.413H14.1123V21.1058C14.1123 21.1417 14.0953 21.1596 14.0606 21.1596H14.0612Z" fill="#F12D3B"/>
<path d="M16.1179 21.1871C15.9674 21.1871 15.8285 21.1447 15.7025 21.06C15.5792 20.9767 15.4805 20.8655 15.4076 20.7255C15.3327 20.5848 15.2959 20.4283 15.2959 20.256C15.2959 20.0837 15.3334 19.9286 15.4076 19.7836C15.4805 19.6415 15.5792 19.5295 15.7025 19.4484C15.8312 19.3636 15.9695 19.3213 16.1179 19.3213C16.2664 19.3213 16.4047 19.3636 16.5334 19.4484C16.6607 19.5338 16.7588 19.6458 16.8296 19.7836C16.9046 19.9301 16.9413 20.0873 16.9413 20.256C16.9413 20.4247 16.9039 20.5833 16.8296 20.7255C16.7595 20.864 16.6607 20.9753 16.5334 21.06C16.4094 21.1447 16.2705 21.1871 16.1179 21.1871ZM16.1179 20.737C16.2358 20.737 16.3338 20.6903 16.4115 20.597C16.4877 20.5058 16.5259 20.3924 16.5259 20.2553C16.5259 20.1181 16.4877 20.0033 16.4115 19.9121C16.3325 19.8181 16.2344 19.7707 16.1179 19.7707C16.0015 19.7707 15.9034 19.8181 15.8264 19.9121C15.7495 20.004 15.7113 20.1181 15.7113 20.2553C15.7113 20.3924 15.7495 20.5051 15.8264 20.597C15.9034 20.6903 16.0008 20.737 16.1179 20.737Z" fill="#F12D3B"/>
<path d="M17.9371 20.6289H17.2029C17.1716 20.6289 17.1553 20.6096 17.1553 20.5701V20.3224C17.1553 20.2865 17.1709 20.2686 17.2029 20.2686H17.9371C17.9507 20.2686 17.9623 20.2736 17.9712 20.2829C17.98 20.293 17.9848 20.3059 17.9848 20.3217V20.5694C17.9848 20.5837 17.98 20.5973 17.9705 20.6096C17.961 20.6218 17.9501 20.6282 17.9371 20.6282V20.6289Z" fill="#F12D3B"/>
<path d="M18.4893 21.5394H18.2053C18.1815 21.5394 18.1699 21.5272 18.1699 21.5028V20.7698C18.1699 20.7339 18.1856 20.716 18.2176 20.716H18.3756C18.4314 20.5946 18.4716 20.4948 18.4948 20.4159C18.5261 20.3032 18.5486 20.1739 18.5615 20.0304C18.5758 19.8653 18.584 19.652 18.5854 19.3907C18.5854 19.362 18.5969 19.3477 18.6208 19.3477H19.5831C19.5933 19.3477 19.6022 19.3512 19.6097 19.3591C19.6172 19.367 19.6213 19.3764 19.6213 19.3879V20.7152H19.7547C19.7684 20.7152 19.7799 20.7203 19.7888 20.7296C19.7976 20.7396 19.8024 20.7526 19.8024 20.7684V21.4992C19.8024 21.525 19.7902 21.5379 19.765 21.5379H19.4571C19.434 21.5379 19.4224 21.525 19.4224 21.4992V21.1589H18.5282V21.502C18.5282 21.5265 18.5159 21.5387 18.4907 21.5387L18.4893 21.5394ZM18.8115 20.716H19.2031V19.7884H18.9674C18.9674 19.9306 18.9538 20.0835 18.9279 20.2457C18.9 20.4109 18.8612 20.5674 18.8115 20.7152V20.716Z" fill="#F12D3B"/>
<path d="M21.1501 21.1596H20.0584C20.0271 21.1596 20.0107 21.1417 20.0107 21.1058V19.4015C20.0107 19.3656 20.0264 19.3477 20.0584 19.3477H21.1297C21.161 19.3477 21.1774 19.3656 21.1774 19.4015V19.7152C21.1774 19.7504 21.1617 19.7676 21.1297 19.7676H20.4275V20.0691H20.9601C20.9955 20.0691 21.0126 20.0878 21.0126 20.1251V20.3764C21.0126 20.4123 20.9949 20.4302 20.9601 20.4302H20.4275V20.7411H21.1501C21.1815 20.7411 21.1978 20.759 21.1978 20.7949V21.1058C21.1978 21.1417 21.1822 21.1596 21.1501 21.1596Z" fill="#F12D3B"/>
<path d="M22.232 21.1596H21.4549C21.4236 21.1596 21.4072 21.1417 21.4072 21.1058V19.4015C21.4072 19.3656 21.4229 19.3477 21.4549 19.3477H22.17C22.2967 19.3477 22.4057 19.3986 22.4949 19.4998C22.5855 19.6025 22.6304 19.7267 22.6304 19.8732C22.6304 19.9966 22.5984 20.1007 22.5337 20.184C22.5861 20.2386 22.627 20.3032 22.657 20.3785C22.6869 20.4539 22.7019 20.5315 22.7019 20.6111C22.7019 20.7583 22.6556 20.8868 22.563 20.9952C22.5194 21.0462 22.4683 21.0864 22.4111 21.1151C22.3539 21.1438 22.294 21.1582 22.2327 21.1582L22.232 21.1596ZM21.824 20.0612H22.0522C22.1012 20.0612 22.1414 20.0447 22.1727 20.011C22.2034 19.9787 22.219 19.9363 22.219 19.8839C22.219 19.8351 22.2041 19.7935 22.1741 19.7597C22.1428 19.7245 22.1033 19.7073 22.0556 19.7073H21.824V20.0612ZM21.824 20.7971H22.1128C22.1584 20.7971 22.1973 20.777 22.2293 20.7361C22.262 20.693 22.279 20.6456 22.279 20.5932C22.279 20.5408 22.2633 20.4948 22.2313 20.4539C22.1973 20.4109 22.1584 20.3893 22.1128 20.3893H21.824V20.7971Z" fill="#F12D3B"/>
<path d="M23.991 21.1596H22.8992C22.8679 21.1596 22.8516 21.1417 22.8516 21.1058V19.4015C22.8516 19.3656 22.8672 19.3477 22.8992 19.3477H23.9705C24.0019 19.3477 24.0182 19.3656 24.0182 19.4015V19.7152C24.0182 19.7504 24.0025 19.7676 23.9705 19.7676H23.2684V20.0691H23.801C23.8364 20.0691 23.8534 20.0878 23.8534 20.1251V20.3764C23.8534 20.4123 23.8357 20.4302 23.801 20.4302H23.2684V20.7411H23.991C24.0223 20.7411 24.0386 20.759 24.0386 20.7949V21.1058C24.0386 21.1417 24.023 21.1596 23.991 21.1596Z" fill="#F12D3B"/>
<path d="M24.1678 21.1826C24.1365 21.1826 24.1201 21.1625 24.1201 21.1216V20.7921C24.1201 20.7569 24.1344 20.7396 24.1623 20.7396C24.195 20.7396 24.2257 20.726 24.2529 20.6994C24.2788 20.6743 24.2917 20.642 24.2917 20.6032V19.4087C24.2917 19.3914 24.2958 19.3771 24.3047 19.3656C24.3135 19.3541 24.3244 19.3477 24.3394 19.3477H25.5544C25.5708 19.3477 25.5837 19.352 25.5939 19.3613C25.6035 19.3699 25.6082 19.3828 25.6082 19.3993V21.1065C25.6082 21.1237 25.6035 21.1366 25.5946 21.146C25.5857 21.1553 25.5735 21.1603 25.5571 21.1603H25.2384C25.2064 21.1603 25.1901 21.1424 25.1901 21.1065V19.7827H24.7085V20.604C24.7085 20.7641 24.6575 20.9005 24.5546 21.0124C24.5049 21.067 24.447 21.1094 24.3803 21.1388C24.3135 21.1682 24.2427 21.1833 24.1671 21.1833L24.1678 21.1826Z" fill="#F12D3B"/>
<path d="M26.6502 21.1871C26.4996 21.1871 26.3607 21.1447 26.2347 21.06C26.1114 20.9767 26.0127 20.8655 25.9398 20.7255C25.8649 20.5848 25.8281 20.4283 25.8281 20.256C25.8281 20.0837 25.8656 19.9286 25.9398 19.7836C26.0127 19.6415 26.1114 19.5295 26.2347 19.4484C26.3634 19.3636 26.5017 19.3213 26.6502 19.3213C26.7986 19.3213 26.9369 19.3636 27.0656 19.4484C27.193 19.5338 27.291 19.6458 27.3619 19.7836C27.4368 19.9301 27.4736 20.0873 27.4736 20.256C27.4736 20.4247 27.4361 20.5833 27.3619 20.7255C27.2917 20.864 27.193 20.9753 27.0656 21.06C26.9417 21.1447 26.8027 21.1871 26.6502 21.1871ZM26.6502 20.737C26.768 20.737 26.8661 20.6903 26.9437 20.597C27.02 20.5058 27.0581 20.3924 27.0581 20.2553C27.0581 20.1181 27.02 20.0033 26.9437 19.9121C26.8647 19.8181 26.7666 19.7707 26.6502 19.7707C26.5337 19.7707 26.4356 19.8181 26.3587 19.9121C26.2817 20.004 26.2436 20.1181 26.2436 20.2553C26.2436 20.3924 26.2817 20.5051 26.3587 20.597C26.4356 20.6903 26.533 20.737 26.6502 20.737Z" fill="#F12D3B"/>
<path d="M28.0438 21.1599H27.7176C27.6863 21.1599 27.6699 21.1426 27.6699 21.1089V19.4046C27.6699 19.3673 27.6856 19.3486 27.7176 19.3486H28.9619C28.9748 19.3486 28.9864 19.3537 28.9966 19.3644C29.0068 19.3752 29.0123 19.3874 29.0123 19.4025V21.1067C29.0123 21.1426 28.9953 21.1606 28.9619 21.1606H28.6357C28.6043 21.1606 28.588 21.1426 28.588 21.1067V19.7808H28.0935V21.1096C28.0935 21.1441 28.0765 21.1606 28.0431 21.1606L28.0438 21.1599Z" fill="#F12D3B"/>
<path d="M30.4519 21.1596H29.3602C29.3288 21.1596 29.3125 21.1417 29.3125 21.1058V19.4015C29.3125 19.3656 29.3282 19.3477 29.3602 19.3477H30.4315C30.4628 19.3477 30.4791 19.3656 30.4791 19.4015V19.7152C30.4791 19.7504 30.4635 19.7676 30.4315 19.7676H29.7293V20.0691H30.2619C30.2973 20.0691 30.3143 20.0878 30.3143 20.1251V20.3764C30.3143 20.4123 30.2966 20.4302 30.2619 20.4302H29.7293V20.7411H30.4519C30.4832 20.7411 30.4996 20.759 30.4996 20.7949V21.1058C30.4996 21.1417 30.4839 21.1596 30.4519 21.1596Z" fill="#F12D3B"/>
<path d="M31.0792 21.1596H30.7598C30.7298 21.1596 30.7148 21.1417 30.7148 21.1058V19.4015C30.7148 19.3843 30.7189 19.3713 30.7271 19.362C30.7353 19.3527 30.7462 19.3477 30.7598 19.3477H31.4511C31.5451 19.3477 31.6322 19.3764 31.7126 19.4345C31.7848 19.4884 31.8434 19.5616 31.8869 19.6556C31.9285 19.7447 31.9496 19.8394 31.9496 19.9414C31.9496 20.0146 31.938 20.0864 31.9142 20.156C31.8903 20.2256 31.857 20.2888 31.8141 20.3441C31.718 20.4661 31.5995 20.5272 31.4586 20.5272H31.1289V21.1065C31.1289 21.1424 31.1126 21.1603 31.0792 21.1603V21.1596ZM31.1289 20.1424H31.3612C31.4109 20.1424 31.4511 20.1215 31.4831 20.0792C31.5117 20.0383 31.526 19.9916 31.526 19.9392C31.526 19.8868 31.5117 19.8416 31.4831 19.7999C31.4511 19.7569 31.4102 19.7353 31.3612 19.7353H31.1289V20.1431V20.1424Z" fill="#F12D3B"/>
<path d="M32.8678 21.1868C32.7187 21.1868 32.5797 21.1445 32.451 21.059C32.3277 20.9779 32.2283 20.8652 32.1541 20.7224C32.0785 20.5766 32.041 20.4194 32.041 20.25C32.041 20.0806 32.0785 19.9241 32.1541 19.779C32.2276 19.6383 32.3271 19.5271 32.451 19.4459C32.5791 19.362 32.7173 19.3203 32.8678 19.3203C32.9577 19.3203 33.0449 19.3368 33.1307 19.3691C33.2009 19.3971 33.269 19.4373 33.335 19.4897C33.3486 19.5019 33.3555 19.5156 33.3555 19.5314C33.3555 19.54 33.3534 19.5479 33.35 19.5543L33.1627 19.858C33.1552 19.8702 33.1457 19.876 33.1327 19.876C33.1205 19.876 33.1082 19.8702 33.096 19.8587C33.0285 19.7977 32.9523 19.7676 32.8678 19.7676C32.7493 19.7676 32.6499 19.8142 32.5695 19.9068C32.4905 19.9987 32.451 20.1129 32.451 20.25C32.451 20.3871 32.4905 20.5012 32.5695 20.5953C32.6506 20.6893 32.75 20.7367 32.8678 20.7367C32.9441 20.7367 33.019 20.7073 33.0926 20.6491C33.1103 20.6348 33.1253 20.6269 33.1368 20.6269C33.1498 20.6269 33.1607 20.6341 33.1688 20.6491L33.3452 20.9435C33.3548 20.9564 33.3595 20.9686 33.3595 20.9786C33.3595 20.993 33.35 21.0074 33.3303 21.021C33.2649 21.0734 33.1981 21.1122 33.1287 21.138C33.0469 21.1703 32.9598 21.1868 32.8671 21.1868H32.8678Z" fill="#F12D3B"/>
<path d="M33.9512 21.1598H33.6209C33.6114 21.1598 33.6025 21.1577 33.5937 21.1526C33.5801 21.1469 33.5732 21.1332 33.5732 21.1124V19.4017C33.5732 19.3658 33.5889 19.3479 33.6196 19.3479H33.9499C33.9771 19.3479 33.9907 19.3665 33.9907 19.4031V20.0521C34.0071 20.0521 34.0275 20.0356 34.052 20.0033C34.067 19.9853 34.0895 19.9538 34.1188 19.9078L34.1446 19.8655L34.1596 19.8396L34.2693 19.6408C34.3313 19.5288 34.4184 19.4476 34.5308 19.3981C34.6084 19.3629 34.6963 19.3457 34.7944 19.3457C34.8053 19.3457 34.8134 19.3479 34.8189 19.3529C34.8298 19.3615 34.8352 19.3759 34.8352 19.3945V19.7169C34.8352 19.7513 34.8203 19.7678 34.7903 19.7678C34.7535 19.7678 34.7133 19.7865 34.6684 19.8238C34.6268 19.859 34.5921 19.8992 34.5649 19.9444L34.3817 20.2395L34.9858 21.1009C34.9912 21.1096 34.9946 21.1182 34.9946 21.1268C34.9946 21.1325 34.9932 21.1368 34.9912 21.1404C34.9864 21.1534 34.9776 21.1598 34.9667 21.1598H34.5642C34.5465 21.1598 34.5322 21.1562 34.522 21.1498C34.5117 21.1433 34.5008 21.1318 34.4893 21.1146L34.1051 20.541C34.0834 20.5568 34.0588 20.5668 34.0309 20.5726C34.0214 20.5747 34.0132 20.5762 34.005 20.5762L33.9907 20.5776V21.1146C33.9907 21.1261 33.9873 21.1361 33.9798 21.1455C33.9723 21.1548 33.9628 21.1598 33.9505 21.1598H33.9512Z" fill="#F12D3B"/>
<path d="M35.3601 21.1596H35.0393C35.0155 21.1596 35.0039 21.1503 35.0039 21.1316C35.0039 21.1266 35.006 21.118 35.0094 21.1058L35.593 19.4015C35.606 19.3656 35.6284 19.3477 35.6598 19.3477H35.9233C35.954 19.3477 35.9758 19.3656 35.988 19.4015L36.5758 21.1058C36.5792 21.118 36.5812 21.1266 36.5812 21.1316C36.5812 21.1503 36.5697 21.1596 36.5458 21.1596H36.225C36.1937 21.1596 36.1726 21.1417 36.1617 21.1058L36.0861 20.8667H35.4984L35.4255 21.1058C35.4146 21.1417 35.3935 21.1596 35.3608 21.1596H35.3601ZM35.6182 20.4755H35.9615L35.7885 19.9205L35.6182 20.4755Z" fill="#F12D3B"/>
<path d="M37.0094 21.1596H36.6219C36.6001 21.1596 36.5898 21.1488 36.5898 21.128C36.5898 21.123 36.5919 21.1158 36.5953 21.1058L36.9031 20.4554C36.8228 20.3958 36.7594 20.3226 36.7138 20.2357C36.6648 20.146 36.6409 20.0533 36.6409 19.9564C36.6409 19.8803 36.6532 19.805 36.6784 19.7317C36.7036 19.6585 36.7383 19.5932 36.7833 19.5365C36.8834 19.4101 37.0067 19.3477 37.1517 19.3477H37.8668C37.8804 19.3477 37.8913 19.3527 37.9002 19.3634C37.909 19.3742 37.9131 19.3864 37.9131 19.4015V21.1058C37.9131 21.1417 37.8975 21.1596 37.8668 21.1596H37.5447C37.5134 21.1596 37.497 21.1417 37.497 21.1058V20.5566H37.324L37.0686 21.1079C37.0591 21.128 37.0509 21.1417 37.0434 21.1488C37.0359 21.156 37.025 21.1589 37.0107 21.1589L37.0094 21.1596ZM37.2573 20.1668H37.4963V19.7253H37.2573C37.2035 19.7253 37.1578 19.749 37.1197 19.7963C37.0836 19.8408 37.0659 19.8918 37.0659 19.9478C37.0659 20.0038 37.0836 20.0569 37.1197 20.0993C37.1565 20.1445 37.2021 20.1675 37.2573 20.1675V20.1668Z" fill="#F12D3B"/>
<path d="M39.2051 21.1598H38.8748C38.8653 21.1598 38.8564 21.1577 38.8476 21.1526C38.834 21.1469 38.8271 21.1332 38.8271 21.1124V19.4017C38.8271 19.3658 38.8428 19.3479 38.8735 19.3479H39.2038C39.231 19.3479 39.2446 19.3665 39.2446 19.4031V20.0521C39.261 20.0521 39.2814 20.0356 39.3059 20.0033C39.3209 19.9853 39.3434 19.9538 39.3727 19.9078L39.3986 19.8655L39.4135 19.8396L39.5232 19.6408C39.5852 19.5288 39.6723 19.4476 39.7847 19.3981C39.8624 19.3629 39.9502 19.3457 40.0483 19.3457C40.0592 19.3457 40.0674 19.3479 40.0728 19.3529C40.0837 19.3615 40.0891 19.3759 40.0891 19.3945V19.7169C40.0891 19.7513 40.0742 19.7678 40.0442 19.7678C40.0074 19.7678 39.9672 19.7865 39.9223 19.8238C39.8807 19.859 39.846 19.8992 39.8188 19.9444L39.6356 20.2395L40.2397 21.1009C40.2451 21.1096 40.2485 21.1182 40.2485 21.1268C40.2485 21.1325 40.2472 21.1368 40.2451 21.1404C40.2403 21.1534 40.2315 21.1598 40.2206 21.1598H39.8181C39.8004 21.1598 39.7861 21.1562 39.7759 21.1498C39.7656 21.1433 39.7547 21.1318 39.7432 21.1146L39.3591 20.541C39.3373 20.5568 39.3127 20.5668 39.2848 20.5726C39.2753 20.5747 39.2671 20.5762 39.2589 20.5762L39.2446 20.5776V21.1146C39.2446 21.1261 39.2412 21.1361 39.2337 21.1455C39.2262 21.1548 39.2167 21.1598 39.2045 21.1598H39.2051Z" fill="#F12D3B"/>
<path d="M41.03 21.1871C40.8795 21.1871 40.7406 21.1447 40.6146 21.06C40.4913 20.9767 40.3926 20.8655 40.3197 20.7255C40.2448 20.5848 40.208 20.4283 40.208 20.256C40.208 20.0837 40.2455 19.9286 40.3197 19.7836C40.3926 19.6415 40.4913 19.5295 40.6146 19.4484C40.7433 19.3636 40.8816 19.3213 41.03 19.3213C41.1785 19.3213 41.3168 19.3636 41.4455 19.4484C41.5728 19.5338 41.6709 19.6458 41.7417 19.7836C41.8167 19.9301 41.8534 20.0873 41.8534 20.256C41.8534 20.4247 41.816 20.5833 41.7417 20.7255C41.6716 20.864 41.5728 20.9753 41.4455 21.06C41.3215 21.1447 41.1826 21.1871 41.03 21.1871ZM41.03 20.737C41.1479 20.737 41.2459 20.6903 41.3236 20.597C41.3999 20.5058 41.438 20.3924 41.438 20.2553C41.438 20.1181 41.3999 20.0033 41.3236 19.9121C41.2446 19.8181 41.1465 19.7707 41.03 19.7707C40.9136 19.7707 40.8155 19.8181 40.7385 19.9121C40.6616 20.004 40.6235 20.1181 40.6235 20.2553C40.6235 20.3924 40.6616 20.5051 40.7385 20.597C40.8155 20.6903 40.9129 20.737 41.03 20.737Z" fill="#F12D3B"/>
<path d="M42.3518 21.1596H42.046C42.0303 21.1596 42.0181 21.1546 42.0092 21.1453C42.0004 21.1359 41.997 21.123 41.9983 21.1058L42.1591 19.4015C42.1625 19.3656 42.1781 19.3477 42.2067 19.3477H42.5834C42.597 19.3477 42.6065 19.3505 42.612 19.357C42.6174 19.3635 42.6235 19.3778 42.631 19.4015L42.9253 20.497L43.2181 19.4015C43.2256 19.3778 43.2317 19.3627 43.2372 19.357C43.2426 19.3512 43.2522 19.3477 43.2658 19.3477H43.6424C43.6703 19.3477 43.686 19.3656 43.6901 19.4015L43.8508 21.1058C43.8522 21.123 43.8488 21.1359 43.8399 21.1453C43.8311 21.1546 43.8188 21.1596 43.8031 21.1596H43.4973C43.4694 21.1596 43.4538 21.1417 43.4497 21.1058L43.3625 20.1495L43.1105 21.1036C43.1051 21.1273 43.0989 21.1424 43.0921 21.1496C43.0853 21.1567 43.0744 21.1596 43.0574 21.1596H42.7918C42.7754 21.1596 42.7638 21.156 42.757 21.1488C42.7502 21.1417 42.7441 21.1266 42.7393 21.1036L42.4907 20.1251L42.4002 21.1058C42.3968 21.1417 42.3811 21.1596 42.3525 21.1596H42.3518Z" fill="#F12D3B"/>
<path d="M44.4364 21.1599H44.1102C44.0788 21.1599 44.0625 21.1426 44.0625 21.1089V19.4046C44.0625 19.3673 44.0782 19.3486 44.1102 19.3486H45.3545C45.3674 19.3486 45.379 19.3537 45.3892 19.3644C45.3994 19.3752 45.4049 19.3874 45.4049 19.4025V21.1067C45.4049 21.1426 45.3878 21.1606 45.3545 21.1606H45.0282C44.9969 21.1606 44.9806 21.1426 44.9806 21.1067V19.7808H44.4861V21.1096C44.4861 21.1441 44.4691 21.1606 44.4357 21.1606L44.4364 21.1599Z" fill="#F12D3B"/>
<path d="M45.9314 21.1596H45.6106C45.5868 21.1596 45.5752 21.1503 45.5752 21.1316C45.5752 21.1266 45.5772 21.118 45.5806 21.1058L46.1643 19.4015C46.1773 19.3656 46.1997 19.3477 46.2311 19.3477H46.4946C46.5253 19.3477 46.5471 19.3656 46.5593 19.4015L47.1471 21.1058C47.1505 21.118 47.1525 21.1266 47.1525 21.1316C47.1525 21.1503 47.1409 21.1596 47.1171 21.1596H46.7963C46.765 21.1596 46.7439 21.1417 46.733 21.1058L46.6574 20.8667H46.0696L45.9968 21.1058C45.9859 21.1417 45.9648 21.1596 45.9321 21.1596H45.9314ZM46.1895 20.4755H46.5328L46.3598 19.9205L46.1895 20.4755Z" fill="#F12D3B"/>
<path d="M47.6657 21.1596H47.349C47.3184 21.1596 47.3027 21.1417 47.3027 21.1058V19.4015C47.3027 19.3857 47.3068 19.3735 47.315 19.3627C47.3232 19.352 47.3347 19.3477 47.349 19.3477H47.6719C47.7018 19.3477 47.7168 19.3649 47.7168 19.3986V19.9808H48.2569V19.4015C48.2569 19.3857 48.261 19.3735 48.2698 19.3627C48.2787 19.3527 48.2903 19.3477 48.3046 19.3477H48.6274C48.6567 19.3477 48.6717 19.3649 48.6717 19.3986V21.1058C48.6717 21.1417 48.6546 21.1596 48.6213 21.1596H48.3046C48.2732 21.1596 48.2569 21.1417 48.2569 21.1058V20.413H47.7168V21.1058C47.7168 21.1417 47.6998 21.1596 47.6651 21.1596H47.6657Z" fill="#F12D3B"/>
<path d="M49.346 21.1596H49.0307C48.9952 21.1596 48.9775 21.1417 48.9775 21.1058V19.4015C48.9775 19.3871 48.983 19.3742 48.9946 19.3634C49.0055 19.3527 49.0177 19.3477 49.0307 19.3477H49.3296C49.3446 19.3477 49.3569 19.3527 49.3651 19.3627C49.3739 19.3728 49.378 19.3857 49.378 19.4015V20.3908L49.9174 19.4015C49.9385 19.3656 49.9637 19.3477 49.9937 19.3477H50.3424C50.3567 19.3477 50.3683 19.3527 50.3764 19.3627C50.3846 19.3728 50.3887 19.3857 50.3887 19.4015V21.1058C50.3887 21.1417 50.373 21.1596 50.3424 21.1596H50.042C50.0066 21.1596 49.9896 21.1417 49.9896 21.1058V20.0505L49.4236 21.1058C49.4046 21.1417 49.3787 21.1596 49.346 21.1596Z" fill="#F12D3B"/>
<path d="M50.9723 21.1596H50.5847C50.5629 21.1596 50.5527 21.1488 50.5527 21.128C50.5527 21.123 50.5548 21.1158 50.5582 21.1058L50.866 20.4554C50.7857 20.3958 50.7223 20.3226 50.6767 20.2357C50.6276 20.146 50.6038 20.0533 50.6038 19.9564C50.6038 19.8803 50.6161 19.805 50.6413 19.7317C50.6665 19.6585 50.7012 19.5932 50.7462 19.5365C50.8469 19.4101 50.9695 19.3477 51.1146 19.3477H51.8297C51.8433 19.3477 51.8542 19.3527 51.8631 19.3634C51.8719 19.3742 51.876 19.3864 51.876 19.4015V21.1058C51.876 21.1417 51.8604 21.1596 51.8297 21.1596H51.5076C51.4762 21.1596 51.4599 21.1417 51.4599 21.1058V20.5566H51.2869L51.0315 21.1079C51.022 21.128 51.0138 21.1417 51.0063 21.1488C50.9988 21.156 50.9879 21.1589 50.9736 21.1589L50.9723 21.1596ZM51.2202 20.1668H51.4592V19.7253H51.2202C51.1664 19.7253 51.1207 19.749 51.0826 19.7963C51.0465 19.8408 51.0288 19.8918 51.0288 19.9478C51.0288 20.0038 51.0465 20.0569 51.0826 20.0993C51.1194 20.1445 51.165 20.1675 51.2202 20.1675V20.1668Z" fill="#F12D3B"/>
</g>
<defs>
<clipPath id="clip0_309_168">
<rect width="52" height="33" fill="white"/>
</clipPath>
</defs>
</svg>
