<svg width="74" height="48" viewBox="0 0 74 48" fill="none" xmlns="http://www.w3.org/2000/svg">
<g clip-path="url(#clip0_121_1094)">
<path fill-rule="evenodd" clip-rule="evenodd" d="M4.31445 47.9999L9.76023 33.7736H11.6597L17.1641 47.9999H14.4969L13.0798 44.3306H8.43626L6.97873 47.9999H4.31445ZM9.0675 42.0406H12.2602L10.7306 37.6017L10.672 37.0744L10.6163 37.6017L9.06846 42.0406H9.0675ZM19.8284 47.9999V36.3246H17.4226V33.7705H24.6967V36.3246H22.2534V47.9999H19.8284ZM30.646 37.9431L30.5902 37.4398L30.5307 37.9431L27.6214 47.9999H24.9388L29.8062 33.7736H31.7057L36.6327 47.9999H33.7608L30.646 37.9431ZM36.8719 47.9999L42.3177 33.7736H44.2172L49.7225 47.9999H47.0553L45.6382 44.3306H40.9947L39.5371 47.9999H36.8729H36.8719ZM41.6249 42.0406H44.8177L43.2881 37.6017L43.2295 37.0744L43.1737 37.6017L41.6259 42.0406H41.6249ZM51.0619 47.9999V33.7736H53.4859V39.4666H58.1487V33.7736H60.592V47.9999H58.1487V42.0406H53.4859V47.9999H51.0619ZM64.4342 47.9999V36.3246H62.0283V33.7705H69.3025V36.3246H66.8592V47.9999H64.4342Z" fill="#F12D3B"/>
<path fill-rule="evenodd" clip-rule="evenodd" d="M7.71362 24.5848H0.439453L36.8987 0L73.3589 24.5848H66.0847C66.6544 23.1897 66.1856 22.1706 65.0201 21.4031C55.6466 14.9112 46.2731 8.41942 36.8987 1.9276C27.5252 8.41942 18.1517 14.9112 8.77722 21.4031C7.61178 22.1695 7.14291 23.1887 7.71266 24.5848H7.71362Z" fill="#F12D3B"/>
<path fill-rule="evenodd" clip-rule="evenodd" d="M36.8978 1.92871L8.77734 21.4031L36.8978 4.14556L65.0193 21.4031L36.8978 1.92871Z" fill="#F12D3B"/>
<path fill-rule="evenodd" clip-rule="evenodd" d="M43.8182 16.0045H45.7696V18.1253H43.8182V16.0045ZM37.1282 10.8921C38.0083 10.9485 38.8087 11.3307 39.4284 11.9279L37.1282 14.4278V10.8921ZM39.7531 12.2809L37.2233 15.0303H40.7129C40.7129 13.9756 40.3498 13.0129 39.7531 12.2809ZM36.5738 15.0303H33.0842C33.0842 13.9662 33.4532 12.9972 34.0585 12.2631L36.5748 15.0292H36.5738V15.0303ZM34.3842 11.9144L36.669 14.4257V10.8942C35.7956 10.9506 35.002 11.3265 34.3842 11.9144ZM33.0842 22.1768H35.0356V24.2976H33.0842V22.1768ZM33.0842 19.0912H35.0356V21.212H33.0842V19.0912ZM33.0842 16.0056H35.0356V18.1263H33.0842V16.0056ZM35.8782 22.1758H37.8296V24.2965H35.8782V22.1758ZM35.8782 19.0901H37.8296V21.2109H35.8782V19.0901ZM35.8782 16.0045H37.8296V18.1253H35.8782V16.0045ZM38.6722 22.1747H40.6236V24.2955H38.6722V22.1747ZM38.6722 19.0891H40.6236V21.2099H38.6722V19.0891ZM38.6722 16.0035H40.6236V18.1243H38.6722V16.0035ZM28.0266 22.1737H29.978V24.2945H28.0266V22.1737ZM28.0266 19.0881H29.978V21.2088H28.0266V19.0881ZM25.3652 22.1737H27.3166V24.2945H25.3652V22.1737ZM25.3652 19.0881H27.3166V21.2088H25.3652V19.0881ZM28.0266 16.0024H29.978V18.1232H28.0266V16.0024ZM25.3652 16.0024H27.3166V18.1232H25.3652V16.0024ZM46.4787 22.1726H48.43V24.2934H46.4787V22.1726ZM46.4787 19.087H48.43V21.2078H46.4787V19.087ZM43.8173 22.1726H45.7686V24.2934H43.8173V22.1726ZM43.8173 19.087H45.7686V21.2078H43.8173V19.087ZM46.4787 16.0014H48.43V18.1222H46.4787V16.0014Z" fill="#F12D3B"/>
<path d="M1.1664 30.8165C0.955989 30.8165 0.759987 30.7549 0.578398 30.6306C0.404494 30.5126 0.264218 30.3487 0.159492 30.1409C0.0528436 29.9289 0 29.7002 0 29.4538C0 29.2074 0.0528436 28.9797 0.159492 28.7688C0.263257 28.5641 0.403533 28.4023 0.578398 28.2843C0.759027 28.1621 0.954068 28.1016 1.1664 28.1016C1.29323 28.1016 1.41621 28.1256 1.53727 28.1726C1.63623 28.2133 1.73231 28.2718 1.82551 28.348C1.84472 28.3657 1.85433 28.3856 1.85433 28.4086C1.85433 28.4211 1.85145 28.4326 1.84664 28.442L1.58243 28.8837C1.57186 28.9014 1.55841 28.9098 1.54015 28.9098C1.52286 28.9098 1.50556 28.9014 1.48827 28.8847C1.39315 28.796 1.28554 28.7521 1.1664 28.7521C0.999225 28.7521 0.858949 28.82 0.745576 28.9547C0.634124 29.0883 0.578398 29.2544 0.578398 29.4538C0.578398 29.6533 0.634124 29.8193 0.745576 29.9561C0.85991 30.0929 1.00019 30.1618 1.1664 30.1618C1.27401 30.1618 1.3797 30.119 1.48346 30.0344C1.50845 30.0135 1.52958 30.002 1.54592 30.002C1.56417 30.002 1.57954 30.0125 1.59107 30.0344L1.83992 30.4625C1.85337 30.4813 1.8601 30.4991 1.8601 30.5137C1.8601 30.5346 1.84664 30.5554 1.81878 30.5753C1.72655 30.6515 1.63239 30.7079 1.53439 30.7455C1.41909 30.7925 1.29611 30.8165 1.16544 30.8165H1.1664Z" fill="#F12D3B"/>
<path d="M3.15174 30.7768H2.71458C2.67038 30.7768 2.64732 30.7506 2.64732 30.6984V28.7479H2.1112C2.067 28.7479 2.04395 28.7218 2.04395 28.6695V28.2185C2.04395 28.1662 2.06604 28.1401 2.1112 28.1401H3.75896C3.80316 28.1401 3.82622 28.1662 3.82622 28.2185V28.6695C3.82622 28.7218 3.80412 28.7479 3.75896 28.7479H3.21996V30.6984C3.21996 30.7506 3.1969 30.7768 3.15174 30.7768Z" fill="#F12D3B"/>
<path d="M4.63024 30.7767H4.17962C4.13735 30.7767 4.11621 30.7506 4.11621 30.6984V28.2194C4.11621 28.1944 4.12198 28.1756 4.13351 28.162C4.14503 28.1484 4.16041 28.1411 4.17962 28.1411H5.15483C5.28742 28.1411 5.4104 28.1829 5.52377 28.2675C5.62562 28.3458 5.70825 28.4523 5.76974 28.5891C5.82834 28.7186 5.85813 28.8564 5.85813 29.0047C5.85813 29.1112 5.8418 29.2156 5.80817 29.3169C5.77454 29.4182 5.72746 29.5101 5.66693 29.5905C5.53146 29.768 5.36428 29.8567 5.1654 29.8567H4.70037V30.6994C4.70037 30.7516 4.67731 30.7777 4.63024 30.7777V30.7767ZM4.70037 29.297H5.028C5.09814 29.297 5.15483 29.2668 5.19999 29.2052C5.24034 29.1456 5.26052 29.0778 5.26052 29.0015C5.26052 28.9253 5.24034 28.8595 5.19999 28.799C5.15483 28.7363 5.09718 28.705 5.028 28.705H4.70037V29.2981V29.297Z" fill="#F12D3B"/>
<path d="M7.16163 30.8164C6.9493 30.8164 6.75329 30.7548 6.57555 30.6316C6.40164 30.5105 6.26233 30.3486 6.15952 30.145C6.05384 29.9403 6.00195 29.7127 6.00195 29.4621C6.00195 29.2115 6.0548 28.9859 6.15952 28.775C6.26233 28.5683 6.40164 28.4054 6.57555 28.2874C6.75714 28.1641 6.95218 28.1025 7.16163 28.1025C7.37108 28.1025 7.56612 28.1641 7.74771 28.2874C7.92738 28.4116 8.06574 28.5745 8.16566 28.775C8.27135 28.988 8.32323 29.2167 8.32323 29.4621C8.32323 29.7075 8.27039 29.9383 8.16566 30.145C8.0667 30.3465 7.92738 30.5084 7.74771 30.6316C7.57285 30.7548 7.37685 30.8164 7.16163 30.8164ZM7.16163 30.1617C7.32785 30.1617 7.4662 30.0938 7.57573 29.9581C7.68334 29.8255 7.73715 29.6605 7.73715 29.4611C7.73715 29.2616 7.68334 29.0945 7.57573 28.9619C7.46428 28.8251 7.32593 28.7562 7.16163 28.7562C6.99733 28.7562 6.85898 28.8251 6.75041 28.9619C6.64184 29.0956 6.58804 29.2616 6.58804 29.4611C6.58804 29.6605 6.64184 29.8244 6.75041 29.9581C6.85898 30.0938 6.99637 30.1617 7.16163 30.1617Z" fill="#F12D3B"/>
<path d="M9.14188 30.7767H8.69703C8.64707 30.7767 8.62305 30.7506 8.62305 30.6984V28.2194C8.62305 28.1985 8.63073 28.1797 8.64611 28.1641C8.66148 28.1484 8.67877 28.1411 8.69703 28.1411H9.11882C9.13995 28.1411 9.15725 28.1484 9.16878 28.163C9.18127 28.1777 9.18703 28.1965 9.18703 28.2194V29.6583L9.94798 28.2194C9.97777 28.1672 10.0133 28.1411 10.0556 28.1411H10.5475C10.5677 28.1411 10.584 28.1484 10.5956 28.163C10.6071 28.1777 10.6128 28.1965 10.6128 28.2194V30.6984C10.6128 30.7506 10.5908 30.7767 10.5475 30.7767H10.1238C10.0738 30.7767 10.0498 30.7506 10.0498 30.6984V29.1634L9.25141 30.6984C9.2245 30.7506 9.18799 30.7767 9.14188 30.7767Z" fill="#F12D3B"/>
<path d="M12.0248 30.7768H11.5876C11.5434 30.7768 11.5204 30.7506 11.5204 30.6984V28.7479H10.9842C10.9401 28.7479 10.917 28.7218 10.917 28.6695V28.2185C10.917 28.1662 10.9391 28.1401 10.9842 28.1401H12.632C12.6762 28.1401 12.6993 28.1662 12.6993 28.2185V28.6695C12.6993 28.7218 12.6772 28.7479 12.632 28.7479H12.093V30.6984C12.093 30.7506 12.0699 30.7768 12.0248 30.7768Z" fill="#F12D3B"/>
<path d="M14.5928 30.7767H13.0526C13.0084 30.7767 12.9854 30.7506 12.9854 30.6984V28.2194C12.9854 28.1672 13.0075 28.1411 13.0526 28.1411H14.5639C14.6081 28.1411 14.6312 28.1672 14.6312 28.2194V28.6757C14.6312 28.7269 14.6091 28.752 14.5639 28.752H13.5734V29.1905H14.3247C14.3747 29.1905 14.3987 29.2177 14.3987 29.272V29.6375C14.3987 29.6897 14.3737 29.7158 14.3247 29.7158H13.5734V30.1679H14.5928C14.637 30.1679 14.66 30.194 14.66 30.2462V30.6984C14.66 30.7506 14.6379 30.7767 14.5928 30.7767Z" fill="#F12D3B"/>
<path d="M14.8417 30.8101C14.7975 30.8101 14.7744 30.7809 14.7744 30.7213V30.2421C14.7744 30.1909 14.7946 30.1658 14.834 30.1658C14.8801 30.1658 14.9233 30.146 14.9618 30.1073C14.9983 30.0708 15.0165 30.0238 15.0165 29.9674V28.2299C15.0165 28.2048 15.0223 28.1839 15.0348 28.1672C15.0473 28.1505 15.0627 28.1411 15.0838 28.1411H16.7978C16.8209 28.1411 16.8392 28.1474 16.8536 28.161C16.867 28.1735 16.8737 28.1923 16.8737 28.2163V30.6994C16.8737 30.7245 16.867 30.7433 16.8545 30.7568C16.842 30.7704 16.8247 30.7777 16.8017 30.7777H16.352C16.3069 30.7777 16.2838 30.7516 16.2838 30.6994V28.7739H15.6045V29.9685C15.6045 30.2013 15.5325 30.3997 15.3874 30.5626C15.3173 30.642 15.2356 30.7036 15.1414 30.7464C15.0473 30.7892 14.9474 30.8111 14.8407 30.8111L14.8417 30.8101Z" fill="#F12D3B"/>
<path d="M18.3277 30.7767H17.3525C17.3333 30.7767 17.3179 30.7694 17.3064 30.7558C17.2948 30.7422 17.2891 30.7234 17.2891 30.6984V28.2194C17.2891 28.1672 17.3102 28.1411 17.3525 28.1411H17.8031C17.8492 28.1411 17.8732 28.1672 17.8732 28.2194V29.0621H18.3382C18.5381 29.0621 18.7043 29.1498 18.8398 29.3263C18.9003 29.4056 18.9474 29.4965 18.981 29.5999C19.0146 29.7032 19.031 29.8077 19.031 29.9142C19.031 30.1376 18.9666 30.335 18.8369 30.5073C18.7725 30.5929 18.6957 30.6587 18.6082 30.7057C18.5208 30.7527 18.4276 30.7767 18.3277 30.7767ZM17.8732 30.2139H18.2009C18.271 30.2139 18.3277 30.1815 18.3728 30.1178C18.4132 30.0583 18.4334 29.9914 18.4334 29.9173C18.4334 29.8432 18.4132 29.7722 18.3728 29.7137C18.3286 29.6521 18.271 29.6218 18.2009 29.6218H17.8732V30.2149V30.2139Z" fill="#F12D3B"/>
<path d="M19.8363 30.7767H19.3896C19.3463 30.7767 19.3242 30.7506 19.3242 30.6984V28.2194C19.3242 28.1965 19.33 28.1787 19.3415 28.163C19.353 28.1484 19.3694 28.1411 19.3896 28.1411H19.845C19.8872 28.1411 19.9084 28.1662 19.9084 28.2153V29.0621H20.6703V28.2194C20.6703 28.1965 20.6761 28.1787 20.6885 28.163C20.701 28.1474 20.7164 28.1411 20.7375 28.1411H21.193C21.2343 28.1411 21.2554 28.1662 21.2554 28.2153V30.6984C21.2554 30.7506 21.2314 30.7767 21.1843 30.7767H20.7375C20.6933 30.7767 20.6703 30.7506 20.6703 30.6984V29.6907H19.9084V30.6984C19.9084 30.7506 19.8844 30.7767 19.8354 30.7767H19.8363Z" fill="#F12D3B"/>
<path d="M22.7378 30.8164C22.5255 30.8164 22.3295 30.7548 22.1517 30.6316C21.9778 30.5105 21.8385 30.3486 21.7357 30.145C21.63 29.9403 21.5781 29.7127 21.5781 29.4621C21.5781 29.2115 21.631 28.9859 21.7357 28.775C21.8385 28.5683 21.9778 28.4054 22.1517 28.2874C22.3333 28.1641 22.5284 28.1025 22.7378 28.1025C22.9473 28.1025 23.1423 28.1641 23.3239 28.2874C23.5036 28.4116 23.6419 28.5745 23.7418 28.775C23.8475 28.988 23.8994 29.2167 23.8994 29.4621C23.8994 29.7075 23.8466 29.9383 23.7418 30.145C23.6429 30.3465 23.5036 30.5084 23.3239 30.6316C23.149 30.7548 22.953 30.8164 22.7378 30.8164ZM22.7378 30.1617C22.904 30.1617 23.0424 30.0938 23.1519 29.9581C23.2595 29.8255 23.3133 29.6605 23.3133 29.4611C23.3133 29.2616 23.2595 29.0945 23.1519 28.9619C23.0405 28.8251 22.9021 28.7562 22.7378 28.7562C22.5735 28.7562 22.4352 28.8251 22.3266 28.9619C22.218 29.0956 22.1642 29.2616 22.1642 29.4611C22.1642 29.6605 22.218 29.8244 22.3266 29.9581C22.4352 30.0938 22.5725 30.1617 22.7378 30.1617Z" fill="#F12D3B"/>
<path d="M25.3042 30.0051H24.2684C24.2242 30.0051 24.2012 29.977 24.2012 29.9195V29.5593C24.2012 29.5071 24.2233 29.481 24.2684 29.481H25.3042C25.3234 29.481 25.3397 29.4883 25.3522 29.5018C25.3647 29.5165 25.3714 29.5353 25.3714 29.5582V29.9185C25.3714 29.9394 25.3647 29.9592 25.3512 29.977C25.3378 29.9947 25.3224 30.0041 25.3042 30.0041V30.0051Z" fill="#F12D3B"/>
<path d="M26.0834 31.3291H25.6828C25.6491 31.3291 25.6328 31.3113 25.6328 31.2758V30.2097C25.6328 30.1575 25.6549 30.1314 25.7001 30.1314H25.923C26.0018 29.9549 26.0584 29.8098 26.0911 29.6949C26.1353 29.531 26.167 29.343 26.1853 29.1342C26.2054 28.894 26.217 28.5839 26.2189 28.2038C26.2189 28.162 26.2352 28.1411 26.2689 28.1411H27.6265C27.6409 28.1411 27.6534 28.1463 27.6639 28.1578C27.6745 28.1693 27.6803 28.1829 27.6803 28.1996V30.1303H27.8686C27.8878 30.1303 27.9041 30.1376 27.9166 30.1512C27.9291 30.1658 27.9358 30.1846 27.9358 30.2076V31.2706C27.9358 31.3082 27.9185 31.327 27.883 31.327H27.4487C27.416 31.327 27.3997 31.3082 27.3997 31.2706V30.7756H26.1382V31.2748C26.1382 31.3103 26.1209 31.328 26.0853 31.328L26.0834 31.3291ZM26.5379 30.1314H27.0903V28.7823H26.7579C26.7579 28.989 26.7387 29.2114 26.7022 29.4474C26.6628 29.6876 26.608 29.9152 26.5379 30.1303V30.1314Z" fill="#F12D3B"/>
<path d="M29.8369 30.7767H28.2967C28.2526 30.7767 28.2295 30.7506 28.2295 30.6984V28.2194C28.2295 28.1672 28.2516 28.1411 28.2967 28.1411H29.8081C29.8523 28.1411 29.8753 28.1672 29.8753 28.2194V28.6757C29.8753 28.7269 29.8532 28.752 29.8081 28.752H28.8175V29.1905H29.5688C29.6188 29.1905 29.6428 29.2177 29.6428 29.272V29.6375C29.6428 29.6897 29.6178 29.7158 29.5688 29.7158H28.8175V30.1679H29.8369C29.8811 30.1679 29.9042 30.194 29.9042 30.2462V30.6984C29.9042 30.7506 29.8821 30.7767 29.8369 30.7767Z" fill="#F12D3B"/>
<path d="M31.3637 30.7767H30.2675C30.2233 30.7767 30.2002 30.7506 30.2002 30.6984V28.2194C30.2002 28.1672 30.2223 28.1411 30.2675 28.1411H31.2763C31.455 28.1411 31.6087 28.2153 31.7346 28.3625C31.8624 28.5118 31.9258 28.6925 31.9258 28.9055C31.9258 29.0851 31.8806 29.2365 31.7893 29.3576C31.8633 29.437 31.921 29.5309 31.9633 29.6406C32.0055 29.7502 32.0267 29.863 32.0267 29.9789C32.0267 30.193 31.9613 30.3799 31.8307 30.5376C31.7692 30.6117 31.6971 30.6702 31.6164 30.7119C31.5357 30.7537 31.4512 30.7746 31.3647 30.7746L31.3637 30.7767ZM30.7882 29.1791H31.1101C31.1792 29.1791 31.2359 29.155 31.2801 29.106C31.3234 29.059 31.3455 28.9974 31.3455 28.9211C31.3455 28.8501 31.3243 28.7896 31.282 28.7405C31.2379 28.6893 31.1821 28.6643 31.1149 28.6643H30.7882V29.1791ZM30.7882 30.2494H31.1956C31.26 30.2494 31.3147 30.2201 31.3599 30.1606C31.406 30.098 31.43 30.029 31.43 29.9528C31.43 29.8766 31.4079 29.8098 31.3628 29.7502C31.3147 29.6876 31.26 29.6563 31.1956 29.6563H30.7882V30.2494Z" fill="#F12D3B"/>
<path d="M33.8447 30.7767H32.3046C32.2604 30.7767 32.2373 30.7506 32.2373 30.6984V28.2194C32.2373 28.1672 32.2594 28.1411 32.3046 28.1411H33.8159C33.8601 28.1411 33.8831 28.1672 33.8831 28.2194V28.6757C33.8831 28.7269 33.861 28.752 33.8159 28.752H32.8253V29.1905H33.5767C33.6266 29.1905 33.6506 29.2177 33.6506 29.272V29.6375C33.6506 29.6897 33.6257 29.7158 33.5767 29.7158H32.8253V30.1679H33.8447C33.8889 30.1679 33.912 30.194 33.912 30.2462V30.6984C33.912 30.7506 33.8899 30.7767 33.8447 30.7767Z" fill="#F12D3B"/>
<path d="M34.0946 30.8101C34.0504 30.8101 34.0273 30.7809 34.0273 30.7213V30.2421C34.0273 30.1909 34.0475 30.1658 34.0869 30.1658C34.133 30.1658 34.1763 30.146 34.2147 30.1073C34.2512 30.0708 34.2695 30.0238 34.2695 29.9674V28.2299C34.2695 28.2048 34.2752 28.1839 34.2877 28.1672C34.3002 28.1505 34.3156 28.1411 34.3367 28.1411H36.0508C36.0738 28.1411 36.0921 28.1474 36.1065 28.161C36.12 28.1735 36.1267 28.1923 36.1267 28.2163V30.6994C36.1267 30.7245 36.12 30.7433 36.1075 30.7568C36.095 30.7704 36.0777 30.7777 36.0546 30.7777H35.605C35.5598 30.7777 35.5367 30.7516 35.5367 30.6994V28.7739H34.8575V29.9685C34.8575 30.2013 34.7854 30.3997 34.6403 30.5626C34.5702 30.642 34.4885 30.7036 34.3944 30.7464C34.3002 30.7892 34.2003 30.8111 34.0936 30.8111L34.0946 30.8101Z" fill="#F12D3B"/>
<path d="M37.5962 30.8164C37.3839 30.8164 37.1879 30.7548 37.0101 30.6316C36.8362 30.5105 36.6969 30.3486 36.5941 30.145C36.4884 29.9403 36.4365 29.7127 36.4365 29.4621C36.4365 29.2115 36.4894 28.9859 36.5941 28.775C36.6969 28.5683 36.8362 28.4054 37.0101 28.2874C37.1917 28.1641 37.3867 28.1025 37.5962 28.1025C37.8057 28.1025 38.0007 28.1641 38.1823 28.2874C38.362 28.4116 38.5003 28.5745 38.6002 28.775C38.7059 28.988 38.7578 29.2167 38.7578 29.4621C38.7578 29.7075 38.705 29.9383 38.6002 30.145C38.5013 30.3465 38.362 30.5084 38.1823 30.6316C38.0074 30.7548 37.8114 30.8164 37.5962 30.8164ZM37.5962 30.1617C37.7624 30.1617 37.9008 30.0938 38.0103 29.9581C38.1179 29.8255 38.1717 29.6605 38.1717 29.4611C38.1717 29.2616 38.1179 29.0945 38.0103 28.9619C37.8988 28.8251 37.7605 28.7562 37.5962 28.7562C37.4319 28.7562 37.2935 28.8251 37.185 28.9619C37.0764 29.0956 37.0226 29.2616 37.0226 29.4611C37.0226 29.6605 37.0764 29.8244 37.185 29.9581C37.2935 30.0938 37.4309 30.1617 37.5962 30.1617Z" fill="#F12D3B"/>
<path d="M39.5626 30.7766H39.1024C39.0582 30.7766 39.0352 30.7516 39.0352 30.7025V28.2235C39.0352 28.1692 39.0573 28.1421 39.1024 28.1421H40.8578C40.876 28.1421 40.8924 28.1494 40.9068 28.1651C40.9212 28.1807 40.9289 28.1985 40.9289 28.2204V30.6993C40.9289 30.7516 40.9049 30.7777 40.8578 30.7777H40.3976C40.3534 30.7777 40.3303 30.7516 40.3303 30.6993V28.7707H39.6328V30.7035C39.6328 30.7536 39.6088 30.7777 39.5617 30.7777L39.5626 30.7766Z" fill="#F12D3B"/>
<path d="M42.9599 30.7767H41.4198C41.3756 30.7767 41.3525 30.7506 41.3525 30.6984V28.2194C41.3525 28.1672 41.3746 28.1411 41.4198 28.1411H42.9311C42.9753 28.1411 42.9984 28.1672 42.9984 28.2194V28.6757C42.9984 28.7269 42.9763 28.752 42.9311 28.752H41.9405V29.1905H42.6919C42.7418 29.1905 42.7659 29.2177 42.7659 29.272V29.6375C42.7659 29.6897 42.7409 29.7158 42.6919 29.7158H41.9405V30.1679H42.9599C43.0041 30.1679 43.0272 30.194 43.0272 30.2462V30.6984C43.0272 30.7506 43.0051 30.7767 42.9599 30.7767Z" fill="#F12D3B"/>
<path d="M43.8451 30.7767H43.3945C43.3522 30.7767 43.3311 30.7506 43.3311 30.6984V28.2194C43.3311 28.1944 43.3368 28.1756 43.3484 28.162C43.3599 28.1484 43.3753 28.1411 43.3945 28.1411H44.3697C44.5023 28.1411 44.6252 28.1829 44.7386 28.2675C44.8405 28.3458 44.9231 28.4523 44.9846 28.5891C45.0432 28.7186 45.073 28.8564 45.073 29.0047C45.073 29.1112 45.0566 29.2156 45.023 29.3169C44.9894 29.4182 44.9423 29.5101 44.8818 29.5905C44.7463 29.768 44.5791 29.8567 44.3802 29.8567H43.9152V30.6994C43.9152 30.7516 43.8922 30.7777 43.8451 30.7777V30.7767ZM43.9152 29.297H44.2428C44.313 29.297 44.3697 29.2668 44.4148 29.2052C44.4552 29.1456 44.4754 29.0778 44.4754 29.0015C44.4754 28.9253 44.4552 28.8595 44.4148 28.799C44.3697 28.7363 44.312 28.705 44.2428 28.705H43.9152V29.2981V29.297Z" fill="#F12D3B"/>
<path d="M46.3676 30.8165C46.1572 30.8165 45.9612 30.7549 45.7796 30.6306C45.6057 30.5126 45.4654 30.3487 45.3607 30.1409C45.254 29.9289 45.2012 29.7002 45.2012 29.4538C45.2012 29.2074 45.254 28.9797 45.3607 28.7688C45.4644 28.5641 45.6047 28.4023 45.7796 28.2843C45.9602 28.1621 46.1552 28.1016 46.3676 28.1016C46.4944 28.1016 46.6174 28.1256 46.7384 28.1726C46.8374 28.2133 46.9335 28.2718 47.0267 28.348C47.0459 28.3657 47.0555 28.3856 47.0555 28.4086C47.0555 28.4211 47.0526 28.4326 47.0478 28.442L46.7836 28.8837C46.773 28.9014 46.7596 28.9098 46.7413 28.9098C46.724 28.9098 46.7067 28.9014 46.6894 28.8847C46.5943 28.796 46.4867 28.7521 46.3676 28.7521C46.2004 28.7521 46.0601 28.82 45.9467 28.9547C45.8353 29.0883 45.7796 29.2544 45.7796 29.4538C45.7796 29.6533 45.8353 29.8193 45.9467 29.9561C46.0611 30.0929 46.2014 30.1618 46.3676 30.1618C46.4752 30.1618 46.5809 30.119 46.6846 30.0344C46.7096 30.0135 46.7308 30.002 46.7471 30.002C46.7653 30.002 46.7807 30.0125 46.7922 30.0344L47.0411 30.4625C47.0545 30.4813 47.0613 30.4991 47.0613 30.5137C47.0613 30.5346 47.0478 30.5554 47.02 30.5753C46.9277 30.6515 46.8336 30.7079 46.7356 30.7455C46.6203 30.7925 46.4973 30.8165 46.3666 30.8165H46.3676Z" fill="#F12D3B"/>
<path d="M47.8965 30.7769H47.4305C47.4171 30.7769 47.4046 30.7738 47.3921 30.7664C47.3729 30.7581 47.3633 30.7383 47.3633 30.708V28.2196C47.3633 28.1674 47.3854 28.1413 47.4286 28.1413H47.8946C47.933 28.1413 47.9522 28.1685 47.9522 28.2217V29.1657C47.9753 29.1657 48.0041 29.1417 48.0387 29.0947C48.0599 29.0686 48.0916 29.0226 48.1329 28.9558L48.1694 28.8942L48.1905 28.8566L48.3452 28.5674C48.4326 28.4045 48.5556 28.2865 48.7142 28.2144C48.8237 28.1632 48.9476 28.1382 49.086 28.1382C49.1014 28.1382 49.1129 28.1413 49.1206 28.1486C49.1359 28.1612 49.1436 28.182 49.1436 28.2092V28.678C49.1436 28.7282 49.1225 28.7522 49.0802 28.7522C49.0283 28.7522 48.9717 28.7793 48.9082 28.8336C48.8496 28.8848 48.8006 28.9433 48.7622 29.009L48.5037 29.4382L49.356 30.6913C49.3637 30.7038 49.3685 30.7163 49.3685 30.7289C49.3685 30.7372 49.3665 30.7435 49.3637 30.7487C49.3569 30.7675 49.3444 30.7769 49.3291 30.7769H48.7612C48.7363 30.7769 48.7161 30.7717 48.7017 30.7623C48.6873 30.7529 48.6719 30.7362 48.6555 30.7111L48.1137 29.8768C48.0829 29.8998 48.0483 29.9144 48.0089 29.9227C47.9955 29.9259 47.984 29.9279 47.9724 29.9279L47.9522 29.93V30.7111C47.9522 30.7278 47.9474 30.7424 47.9369 30.756C47.9263 30.7696 47.9129 30.7769 47.8956 30.7769H47.8965Z" fill="#F12D3B"/>
<path d="M49.8843 30.7767H49.4318C49.3982 30.7767 49.3818 30.7631 49.3818 30.736C49.3818 30.7287 49.3847 30.7161 49.3895 30.6984L50.2129 28.2194C50.2312 28.1672 50.2629 28.1411 50.3071 28.1411H50.6789C50.7221 28.1411 50.7529 28.1672 50.7702 28.2194L51.5993 30.6984C51.6042 30.7161 51.607 30.7287 51.607 30.736C51.607 30.7631 51.5907 30.7767 51.5571 30.7767H51.1045C51.0603 30.7767 51.0306 30.7506 51.0152 30.6984L50.9085 30.3507H50.0794L49.9766 30.6984C49.9612 30.7506 49.9314 30.7767 49.8853 30.7767H49.8843ZM50.2485 29.7816H50.7327L50.4887 28.9744L50.2485 29.7816Z" fill="#F12D3B"/>
<path d="M52.211 30.7767H51.6643C51.6335 30.7767 51.6191 30.761 51.6191 30.7307C51.6191 30.7234 51.622 30.713 51.6268 30.6984L52.0611 29.7523C51.9477 29.6657 51.8584 29.5591 51.794 29.4328C51.7248 29.3023 51.6912 29.1676 51.6912 29.0266C51.6912 28.9159 51.7085 28.8063 51.744 28.6998C51.7796 28.5933 51.8286 28.4982 51.892 28.4157C52.0332 28.232 52.2071 28.1411 52.4118 28.1411H53.4206C53.4398 28.1411 53.4552 28.1484 53.4677 28.1641C53.4802 28.1797 53.486 28.1975 53.486 28.2194V30.6984C53.486 30.7506 53.4639 30.7767 53.4206 30.7767H52.9662C52.922 30.7767 52.8989 30.7506 52.8989 30.6984V29.8996H52.6549L52.2946 30.7015C52.2811 30.7307 52.2696 30.7506 52.259 30.761C52.2485 30.7715 52.2331 30.7756 52.2129 30.7756L52.211 30.7767ZM52.5607 29.3326H52.898V28.6904H52.5607C52.4848 28.6904 52.4204 28.7248 52.3666 28.7937C52.3157 28.8585 52.2907 28.9326 52.2907 29.0141C52.2907 29.0955 52.3157 29.1728 52.3666 29.2344C52.4185 29.3002 52.4829 29.3336 52.5607 29.3336V29.3326Z" fill="#F12D3B"/>
<path d="M55.3077 30.7769H54.8417C54.8282 30.7769 54.8157 30.7738 54.8032 30.7664C54.784 30.7581 54.7744 30.7383 54.7744 30.708V28.2196C54.7744 28.1674 54.7965 28.1413 54.8398 28.1413H55.3057C55.3442 28.1413 55.3634 28.1685 55.3634 28.2217V29.1657C55.3864 29.1657 55.4153 29.1417 55.4499 29.0947C55.471 29.0686 55.5027 29.0226 55.544 28.9558L55.5805 28.8942L55.6017 28.8566L55.7563 28.5674C55.8438 28.4045 55.9668 28.2865 56.1253 28.2144C56.2348 28.1632 56.3588 28.1382 56.4971 28.1382C56.5125 28.1382 56.524 28.1413 56.5317 28.1486C56.5471 28.1612 56.5548 28.182 56.5548 28.2092V28.678C56.5548 28.7282 56.5336 28.7522 56.4914 28.7522C56.4395 28.7522 56.3828 28.7793 56.3194 28.8336C56.2608 28.8848 56.2118 28.9433 56.1733 29.009L55.9149 29.4382L56.7671 30.6913C56.7748 30.7038 56.7796 30.7163 56.7796 30.7289C56.7796 30.7372 56.7777 30.7435 56.7748 30.7487C56.7681 30.7675 56.7556 30.7769 56.7402 30.7769H56.1724C56.1474 30.7769 56.1272 30.7717 56.1128 30.7623C56.0984 30.7529 56.083 30.7362 56.0667 30.7111L55.5248 29.8768C55.494 29.8998 55.4595 29.9144 55.4201 29.9227C55.4066 29.9259 55.3951 29.9279 55.3836 29.9279L55.3634 29.93V30.7111C55.3634 30.7278 55.3586 30.7424 55.348 30.756C55.3374 30.7696 55.324 30.7769 55.3067 30.7769H55.3077Z" fill="#F12D3B"/>
<path d="M57.8823 30.8164C57.67 30.8164 57.474 30.7548 57.2963 30.6316C57.1223 30.5105 56.983 30.3486 56.8802 30.145C56.7745 29.9403 56.7227 29.7127 56.7227 29.4621C56.7227 29.2115 56.7755 28.9859 56.8802 28.775C56.983 28.5683 57.1223 28.4054 57.2963 28.2874C57.4778 28.1641 57.6729 28.1025 57.8823 28.1025C58.0918 28.1025 58.2868 28.1641 58.4684 28.2874C58.6481 28.4116 58.7864 28.5745 58.8864 28.775C58.9921 28.988 59.0439 29.2167 59.0439 29.4621C59.0439 29.7075 58.9911 29.9383 58.8864 30.145C58.7874 30.3465 58.6481 30.5084 58.4684 30.6316C58.2936 30.7548 58.0976 30.8164 57.8823 30.8164ZM57.8823 30.1617C58.0486 30.1617 58.1869 30.0938 58.2964 29.9581C58.404 29.8255 58.4578 29.6605 58.4578 29.4611C58.4578 29.2616 58.404 29.0945 58.2964 28.9619C58.185 28.8251 58.0466 28.7562 57.8823 28.7562C57.718 28.7562 57.5797 28.8251 57.4711 28.9619C57.3625 29.0956 57.3087 29.2616 57.3087 29.4611C57.3087 29.6605 57.3625 29.8244 57.4711 29.9581C57.5797 30.0938 57.7171 30.1617 57.8823 30.1617Z" fill="#F12D3B"/>
<path d="M59.7481 30.7767H59.3167C59.2946 30.7767 59.2773 30.7694 59.2648 30.7558C59.2523 30.7422 59.2475 30.7234 59.2494 30.6984L59.4762 28.2194C59.481 28.1672 59.5031 28.1411 59.5434 28.1411H60.0748C60.094 28.1411 60.1074 28.1453 60.1151 28.1547C60.1228 28.1641 60.1314 28.185 60.142 28.2194L60.5571 29.8129L60.9702 28.2194C60.9808 28.185 60.9894 28.163 60.9971 28.1547C61.0048 28.1463 61.0183 28.1411 61.0375 28.1411H61.5688C61.6082 28.1411 61.6303 28.1672 61.636 28.2194L61.8628 30.6984C61.8647 30.7234 61.8599 30.7422 61.8474 30.7558C61.8349 30.7694 61.8176 30.7767 61.7955 30.7767H61.3641C61.3247 30.7767 61.3026 30.7506 61.2969 30.6984L61.1739 29.3075L60.8184 30.6952C60.8107 30.7297 60.8021 30.7516 60.7925 30.7621C60.7829 30.7725 60.7675 30.7767 60.7435 30.7767H60.3688C60.3457 30.7767 60.3294 30.7715 60.3198 30.761C60.3101 30.7506 60.3015 30.7287 60.2948 30.6952L59.9441 29.272L59.8163 30.6984C59.8115 30.7506 59.7894 30.7767 59.749 30.7767H59.7481Z" fill="#F12D3B"/>
<path d="M62.6876 30.7766H62.2274C62.1832 30.7766 62.1602 30.7516 62.1602 30.7025V28.2235C62.1602 28.1692 62.1823 28.1421 62.2274 28.1421H63.9828C64.001 28.1421 64.0174 28.1494 64.0318 28.1651C64.0462 28.1807 64.0539 28.1985 64.0539 28.2204V30.6993C64.0539 30.7516 64.0299 30.7777 63.9828 30.7777H63.5226C63.4784 30.7777 63.4553 30.7516 63.4553 30.6993V28.7707H62.7578V30.7035C62.7578 30.7536 62.7338 30.7777 62.6867 30.7777L62.6876 30.7766Z" fill="#F12D3B"/>
<path d="M64.7974 30.7767H64.3449C64.3113 30.7767 64.2949 30.7631 64.2949 30.736C64.2949 30.7287 64.2978 30.7161 64.3026 30.6984L65.126 28.2194C65.1443 28.1672 65.176 28.1411 65.2202 28.1411H65.592C65.6352 28.1411 65.666 28.1672 65.6833 28.2194L66.5124 30.6984C66.5172 30.7161 66.5201 30.7287 66.5201 30.736C66.5201 30.7631 66.5038 30.7767 66.4702 30.7767H66.0176C65.9734 30.7767 65.9436 30.7506 65.9283 30.6984L65.8216 30.3507H64.9925L64.8897 30.6984C64.8743 30.7506 64.8445 30.7767 64.7984 30.7767H64.7974ZM65.1616 29.7816H65.6458L65.4018 28.9744L65.1616 29.7816Z" fill="#F12D3B"/>
<path d="M67.2435 30.7767H66.7968C66.7535 30.7767 66.7314 30.7506 66.7314 30.6984V28.2194C66.7314 28.1965 66.7372 28.1787 66.7487 28.163C66.7603 28.1474 66.7766 28.1411 66.7968 28.1411H67.2522C67.2945 28.1411 67.3156 28.1662 67.3156 28.2153V29.0621H68.0775V28.2194C68.0775 28.1965 68.0833 28.1787 68.0958 28.163C68.1083 28.1484 68.1246 28.1411 68.1448 28.1411H68.6002C68.6415 28.1411 68.6626 28.1662 68.6626 28.2153V30.6984C68.6626 30.7506 68.6386 30.7767 68.5915 30.7767H68.1448C68.1006 30.7767 68.0775 30.7506 68.0775 30.6984V29.6907H67.3156V30.6984C67.3156 30.7506 67.2916 30.7767 67.2426 30.7767H67.2435Z" fill="#F12D3B"/>
<path d="M69.6145 30.7767H69.1697C69.1197 30.7767 69.0947 30.7506 69.0947 30.6984V28.2194C69.0947 28.1985 69.1024 28.1797 69.1187 28.1641C69.1341 28.1484 69.1514 28.1411 69.1697 28.1411H69.5915C69.6126 28.1411 69.6299 28.1484 69.6414 28.163C69.6539 28.1777 69.6597 28.1965 69.6597 28.2194V29.6583L70.4206 28.2194C70.4504 28.1672 70.486 28.1411 70.5282 28.1411H71.0202C71.0403 28.1411 71.0567 28.1484 71.0682 28.163C71.0797 28.1777 71.0855 28.1965 71.0855 28.2194V30.6984C71.0855 30.7506 71.0634 30.7767 71.0202 30.7767H70.5964C70.5465 30.7767 70.5225 30.7506 70.5225 30.6984V29.1634L69.724 30.6984C69.6971 30.7506 69.6606 30.7767 69.6145 30.7767Z" fill="#F12D3B"/>
<path d="M71.9092 30.7767H71.3625C71.3318 30.7767 71.3174 30.761 71.3174 30.7307C71.3174 30.7234 71.3203 30.713 71.3251 30.6984L71.7593 29.7523C71.646 29.6657 71.5566 29.5591 71.4922 29.4328C71.4231 29.3023 71.3894 29.1676 71.3894 29.0266C71.3894 28.9159 71.4067 28.8063 71.4423 28.6998C71.4778 28.5933 71.5268 28.4982 71.5902 28.4157C71.7324 28.232 71.9054 28.1411 72.11 28.1411H73.1189C73.1381 28.1411 73.1535 28.1484 73.1659 28.1641C73.1784 28.1797 73.1842 28.1975 73.1842 28.2194V30.6984C73.1842 30.7506 73.1621 30.7767 73.1189 30.7767H72.6644C72.6202 30.7767 72.5972 30.7506 72.5972 30.6984V29.8996H72.3531L71.9928 30.7015C71.9794 30.7307 71.9678 30.7506 71.9573 30.761C71.9467 30.7715 71.9313 30.7756 71.9112 30.7756L71.9092 30.7767ZM72.259 29.3326H72.5962V28.6904H72.259C72.1831 28.6904 72.1187 28.7248 72.0649 28.7937C72.014 28.8585 71.989 28.9326 71.989 29.0141C71.989 29.0955 72.014 29.1728 72.0649 29.2344C72.1168 29.3002 72.1811 29.3336 72.259 29.3336V29.3326Z" fill="#F12D3B"/>
</g>
<defs>
<clipPath id="clip0_121_1094">
<rect width="73.3585" height="48" fill="white"/>
</clipPath>
</defs>
</svg>
