<svg width="62" height="63" viewBox="0 0 62 63" fill="none" xmlns="http://www.w3.org/2000/svg">
<circle cx="31.2143" cy="31.2143" r="30.2143" fill="#F12D3B"/>
<path d="M44.2875 27.8601C43.9011 27.3962 43.4177 27.0228 42.8712 26.7662C42.3248 26.5096 41.7287 26.3761 41.125 26.3751H34.855L35.625 24.4088C35.9453 23.5479 36.0519 22.6221 35.9358 21.711C35.8197 20.7998 35.4843 19.9303 34.9584 19.1773C34.4324 18.4242 33.7317 17.8099 32.9162 17.3872C32.1007 16.9644 31.1948 16.7458 30.2762 16.7501C30.0118 16.7506 29.753 16.8274 29.5311 16.9713C29.3092 17.1152 29.1334 17.3201 29.025 17.5613L25.1062 26.3751H21.875C20.781 26.3751 19.7318 26.8097 18.9582 27.5832C18.1846 28.3568 17.75 29.406 17.75 30.5001V40.1251C17.75 41.2191 18.1846 42.2683 18.9582 43.0419C19.7318 43.8155 20.781 44.2501 21.875 44.2501H39.3787C40.3437 44.2497 41.2781 43.9111 42.0192 43.2931C42.7603 42.6751 43.2613 41.8168 43.435 40.8676L45.1813 31.2426C45.2893 30.6477 45.2652 30.0364 45.1107 29.4519C44.9563 28.8673 44.6752 28.3239 44.2875 27.8601ZM24.625 41.5001H21.875C21.5103 41.5001 21.1606 41.3552 20.9027 41.0973C20.6449 40.8395 20.5 40.4897 20.5 40.1251V30.5001C20.5 30.1354 20.6449 29.7857 20.9027 29.5278C21.1606 29.2699 21.5103 29.1251 21.875 29.1251H24.625V41.5001ZM42.5 30.7476L40.7537 40.3726C40.6952 40.6929 40.5248 40.982 40.273 41.1885C40.0212 41.395 39.7043 41.5054 39.3787 41.5001H27.375V28.0388L31.115 19.6238C31.5 19.736 31.8575 19.9269 32.165 20.1842C32.4725 20.4416 32.7234 20.7599 32.9017 21.1191C33.08 21.4783 33.1819 21.8705 33.201 22.2711C33.22 22.6717 33.1559 23.0718 33.0125 23.4463L32.2837 25.4126C32.1285 25.8282 32.076 26.2752 32.131 26.7154C32.1859 27.1557 32.3465 27.5761 32.5991 27.9408C32.8517 28.3056 33.1888 28.6038 33.5816 28.81C33.9744 29.0162 34.4113 29.1243 34.855 29.1251H41.125C41.327 29.1247 41.5266 29.1689 41.7096 29.2545C41.8926 29.34 42.0545 29.4648 42.1838 29.6201C42.3162 29.7731 42.4132 29.9536 42.4679 30.1485C42.5226 30.3434 42.5335 30.5479 42.5 30.7476Z" fill="white"/>
</svg>
