<svg width="62" height="63" viewBox="0 0 62 63" fill="none" xmlns="http://www.w3.org/2000/svg">
<circle cx="31.2143" cy="31.2143" r="30.2143" fill="#F12D3B"/>
<path d="M21.083 39.5001H27.0897C27.2761 39.5012 27.4609 39.4654 27.6335 39.3949C27.8061 39.3244 27.9631 39.2205 28.0955 39.0892L37.8988 29.2717L41.9222 25.3334C42.055 25.2017 42.1604 25.045 42.2323 24.8724C42.3042 24.6998 42.3412 24.5146 42.3412 24.3276C42.3412 24.1406 42.3042 23.9554 42.2323 23.7828C42.1604 23.6101 42.055 23.4534 41.9222 23.3217L35.9155 17.2442C35.7838 17.1115 35.6271 17.0061 35.4545 16.9341C35.2819 16.8622 35.0967 16.8252 34.9097 16.8252C34.7227 16.8252 34.5375 16.8622 34.3649 16.9341C34.1922 17.0061 34.0355 17.1115 33.9038 17.2442L29.9088 21.2534L20.0772 31.0709C19.9459 31.2033 19.842 31.3603 19.7715 31.5329C19.701 31.7055 19.6653 31.8903 19.6663 32.0767V38.0834C19.6663 38.4591 19.8156 38.8195 20.0813 39.0851C20.347 39.3508 20.7073 39.5001 21.083 39.5001ZM34.9097 20.2476L38.9188 24.2567L36.9072 26.2684L32.898 22.2592L34.9097 20.2476ZM22.4997 32.6576L30.9005 24.2567L34.9097 28.2659L26.5088 36.6667H22.4997V32.6576ZM43.7497 42.3334H18.2497C17.874 42.3334 17.5136 42.4827 17.2479 42.7483C16.9823 43.014 16.833 43.3744 16.833 43.7501C16.833 44.1258 16.9823 44.4861 17.2479 44.7518C17.5136 45.0175 17.874 45.1667 18.2497 45.1667H43.7497C44.1254 45.1667 44.4857 45.0175 44.7514 44.7518C45.0171 44.4861 45.1663 44.1258 45.1663 43.7501C45.1663 43.3744 45.0171 43.014 44.7514 42.7483C44.4857 42.4827 44.1254 42.3334 43.7497 42.3334Z" fill="white"/>
</svg>
