<svg width="25" height="26" viewBox="0 0 25 26" fill="none" xmlns="http://www.w3.org/2000/svg">
<path fill-rule="evenodd" clip-rule="evenodd" d="M18.1357 24.2953C16.4557 24.2335 11.6945 23.5755 6.7082 18.5904C1.72303 13.604 1.0662 8.84402 1.0032 7.16285C0.909866 4.60085 2.8722 2.11235 5.13903 1.14052C5.412 1.02265 5.71093 0.977769 6.00648 1.01029C6.30204 1.04281 6.58405 1.15161 6.82487 1.32602C8.69153 2.68635 9.97953 4.74435 11.0855 6.36252C11.3289 6.71804 11.4329 7.15066 11.3778 7.57795C11.3228 8.00524 11.1124 8.39733 10.7869 8.67952L8.5107 10.37C8.40073 10.4494 8.32332 10.5661 8.29285 10.6982C8.26239 10.8304 8.28093 10.9691 8.34503 11.0887C8.8607 12.0255 9.7777 13.4209 10.8277 14.4709C11.8789 15.5209 13.3395 16.4985 14.3417 17.0725C14.4674 17.1431 14.6153 17.1628 14.755 17.1276C14.8947 17.0925 15.0157 17.0051 15.093 16.8835L16.5747 14.6284C16.8471 14.2665 17.2489 14.0241 17.6961 13.9519C18.1432 13.8797 18.6009 13.9833 18.9734 14.241C20.6149 15.3774 22.5305 16.6432 23.9329 18.4387C24.1214 18.6812 24.2414 18.97 24.2802 19.2748C24.319 19.5795 24.2752 19.8891 24.1534 20.1712C23.1769 22.4497 20.7059 24.3899 18.1357 24.2953Z" fill="#E52F35"/>
</svg>
