<svg width="60" height="60" viewBox="0 0 60 60" fill="none" xmlns="http://www.w3.org/2000/svg">
<circle cx="30" cy="30" r="30" fill="#AFB4C5"/>
<path d="M38.4753 37.1105H42.571C43.3251 37.1105 43.9363 36.4993 43.9363 35.7453V31.1459C43.9363 30.583 43.5909 30.0778 43.0665 29.8736L37.11 27.5538L33.0143 20.7275H22.0923L19.3618 27.5538H17.9966C17.2426 27.5538 16.6313 28.165 16.6313 28.919V35.7453C16.6313 36.4993 17.2426 37.1105 17.9966 37.1105H22.0923M38.4753 37.1105C38.4753 38.6186 37.2529 39.841 35.7448 39.841C34.2367 39.841 33.0143 38.6186 33.0143 37.1105M38.4753 37.1105C38.4753 35.6024 37.2529 34.38 35.7448 34.38C34.2367 34.38 33.0143 35.6024 33.0143 37.1105M22.0923 37.1105C22.0923 38.6186 23.3148 39.841 24.8228 39.841C26.3308 39.841 27.5533 38.6186 27.5533 37.1105M22.0923 37.1105C22.0923 35.6024 23.3148 34.38 24.8228 34.38C26.3308 34.38 27.5533 35.6024 27.5533 37.1105M27.5533 37.1105H33.0143" stroke="white" stroke-width="2.76106" stroke-linecap="round" stroke-linejoin="round"/>
</svg>
