<svg width="64" height="64" viewBox="0 0 64 64" fill="none" xmlns="http://www.w3.org/2000/svg">
<circle cx="32.2144" cy="32.2144" r="30.2143" transform="rotate(180 32.2144 32.2144)" fill="#F12D3B"/>
<path d="M43.9782 30.6279C44.5196 29.9124 44.8193 29.0359 44.8193 28.1239C44.8193 26.6769 44.0104 25.3073 42.7085 24.5435C42.3733 24.3469 41.9917 24.2434 41.6031 24.2438H33.8752L34.0686 20.2831C34.1137 19.326 33.7753 18.4172 33.1179 17.7243C32.7952 17.3828 32.406 17.1111 31.9742 16.926C31.5424 16.7408 31.0772 16.6462 30.6074 16.648C28.9316 16.648 27.4492 17.7759 27.0045 19.3905L24.2362 29.4129H20.0693C19.4989 29.4129 19.0381 29.8738 19.0381 30.4442V42.1746C19.0381 42.745 19.4989 43.2059 20.0693 43.2059H39.4472C39.7437 43.2059 40.0337 43.1479 40.3012 43.0319C41.8352 42.3777 42.8245 40.8791 42.8245 39.2162C42.8245 38.8102 42.7665 38.4106 42.6505 38.0239C43.1919 37.3084 43.4916 36.4319 43.4916 35.5198C43.4916 35.1138 43.4336 34.7142 43.3176 34.3275C43.859 33.612 44.1587 32.7355 44.1587 31.8235C44.1522 31.4174 44.0942 31.0146 43.9782 30.6279ZM21.3584 40.8856V31.7332H23.9687V40.8856H21.3584ZM41.8674 29.5096L41.1616 30.1219L41.6096 30.9405C41.7571 31.2101 41.8337 31.5129 41.8319 31.8202C41.8319 32.352 41.5999 32.8579 41.2003 33.206L40.4945 33.8183L40.9425 34.6368C41.0901 34.9065 41.1666 35.2092 41.1648 35.5166C41.1648 36.0484 40.9328 36.5543 40.5332 36.9024L39.8274 37.5147L40.2754 38.3332C40.423 38.6029 40.4995 38.9056 40.4978 39.213C40.4978 39.9349 40.0724 40.5859 39.4149 40.8823H26.0312V31.6301L29.2378 20.0124C29.3205 19.7147 29.498 19.4519 29.7434 19.2641C29.9888 19.0763 30.2887 18.9736 30.5978 18.9715C30.8427 18.9715 31.0844 19.0424 31.2777 19.1874C31.5968 19.4259 31.7676 19.7868 31.7482 20.1703L31.4389 26.5641L41.5709 26.5641C42.1445 26.9154 42.499 27.5083 42.499 28.1239C42.499 28.6556 42.267 29.1583 41.8674 29.5096Z" fill="white"/>
</svg>
