<svg width="25" height="28" viewBox="0 0 25 28" fill="none" xmlns="http://www.w3.org/2000/svg">
<path d="M14.6932 13.6874C14.7363 13.6875 14.7784 13.6748 14.8144 13.651C14.8503 13.6271 14.8783 13.5932 14.895 13.5535C14.9117 13.5138 14.9163 13.47 14.9083 13.4277C14.9002 13.3853 14.8798 13.3463 14.8496 13.3156L10.5621 8.95588C10.5316 8.92495 10.4927 8.90377 10.4501 8.89507C10.4076 8.88636 10.3634 8.89051 10.3232 8.90699C10.2831 8.92347 10.2487 8.95154 10.2245 8.98761C10.2004 9.02368 10.1875 9.06613 10.1875 9.10956V13.0312C10.1875 13.2052 10.2566 13.3722 10.3797 13.4952C10.5028 13.6183 10.6697 13.6874 10.8438 13.6874H14.6932Z" fill="#E52F35"/>
<path d="M9.14844 14.7265C8.92382 14.5049 8.74534 14.241 8.62331 13.95C8.50129 13.659 8.43813 13.3467 8.4375 13.0312V7.99995H4.5C3.57259 8.00269 2.68394 8.37232 2.02815 9.0281C1.37237 9.68389 1.00274 10.5725 1 11.4999V23.7499C1 24.6782 1.36875 25.5684 2.02513 26.2248C2.6815 26.8812 3.57174 27.2499 4.5 27.2499H12.375C13.3033 27.2499 14.1935 26.8812 14.8499 26.2248C15.5063 25.5684 15.875 24.6782 15.875 23.7499V15.4374H10.8438C10.5282 15.437 10.2159 15.3739 9.92484 15.2519C9.63383 15.1299 9.36993 14.9513 9.14844 14.7265ZM18.7188 6.68745H22.5682C22.6113 6.68748 22.6534 6.67479 22.6894 6.65096C22.7253 6.62713 22.7533 6.59323 22.77 6.5535C22.7867 6.51378 22.7913 6.47001 22.7833 6.42768C22.7752 6.38535 22.7548 6.34635 22.7246 6.31557L18.4371 1.95588C18.4066 1.92495 18.3677 1.90377 18.3251 1.89507C18.2826 1.88636 18.2384 1.89051 18.1982 1.90699C18.1581 1.92347 18.1237 1.95154 18.0995 1.98761C18.0754 2.02368 18.0625 2.06613 18.0625 2.10956V6.0312C18.0625 6.20525 18.1316 6.37216 18.2547 6.49524C18.3778 6.61831 18.5447 6.68745 18.7188 6.68745Z" fill="#E52F35"/>
<path d="M18.7188 8.4375C18.0821 8.43264 17.4729 8.17756 17.0226 7.72735C16.5724 7.27714 16.3174 6.66792 16.3125 6.03125V1H10.4062C9.53632 1.00101 8.70231 1.34704 8.08717 1.96217C7.47204 2.57731 7.12601 3.41132 7.125 4.28125V6.25H9.42844C9.72245 6.25118 10.0133 6.31043 10.2844 6.42437C10.5554 6.5383 10.8013 6.70467 11.0078 6.91391L16.9775 12.9842C17.394 13.4068 17.6265 13.9769 17.6245 14.5702V22H20.5256C22.3035 22 23.7495 20.5278 23.7495 18.7188V8.4375H18.7188Z" fill="#E52F35"/>
</svg>
