<svg width="60" height="60" viewBox="0 0 60 60" fill="none" xmlns="http://www.w3.org/2000/svg">
<circle cx="30" cy="30" r="30" fill="#E52F35"/>
<path d="M23.2545 31.503C23.0556 31.503 22.8648 31.582 22.7242 31.7227C22.5835 31.8633 22.5045 32.0541 22.5045 32.253V36.753C22.5045 36.9519 22.5835 37.1427 22.7242 37.2833C22.8648 37.424 23.0556 37.503 23.2545 37.503C23.4534 37.503 23.6442 37.424 23.7848 37.2833C23.9255 37.1427 24.0045 36.9519 24.0045 36.753V36.003H24.75C25.3467 36.003 25.919 35.7659 26.341 35.344C26.7629 34.922 27 34.3497 27 33.753C27 33.1563 26.7629 32.584 26.341 32.162C25.919 31.7401 25.3467 31.503 24.75 31.503H23.2545V31.503ZM24.75 34.503H24.0045V33.003H24.75C24.9489 33.003 25.1397 33.082 25.2803 33.2227C25.421 33.3633 25.5 33.5541 25.5 33.753C25.5 33.9519 25.421 34.1427 25.2803 34.2833C25.1397 34.424 24.9489 34.503 24.75 34.503ZM34.497 32.253C34.497 32.0541 34.576 31.8633 34.7167 31.7227C34.8573 31.582 35.0481 31.503 35.247 31.503H37.5045C37.7034 31.503 37.8942 31.582 38.0348 31.7227C38.1755 31.8633 38.2545 32.0541 38.2545 32.253C38.2545 32.4519 38.1755 32.6427 38.0348 32.7833C37.8942 32.924 37.7034 33.003 37.5045 33.003H35.9955L35.994 34.506H37.5045C37.7034 34.506 37.8942 34.585 38.0348 34.7257C38.1755 34.8663 38.2545 35.0571 38.2545 35.256C38.2545 35.4549 38.1755 35.6457 38.0348 35.7863C37.8942 35.927 37.7034 36.006 37.5045 36.006H35.994L35.997 36.7515C35.9972 36.85 35.978 36.9476 35.9405 37.0386C35.903 37.1297 35.8479 37.2125 35.7784 37.2823C35.638 37.4232 35.4474 37.5026 35.2485 37.503C35.0496 37.5034 34.8587 37.4248 34.7177 37.2844C34.5768 37.144 34.4974 36.9534 34.497 36.7545L34.4925 35.2575V35.2545L34.497 32.2515V32.253ZM29.25 31.503C29.0511 31.503 28.8603 31.582 28.7197 31.7227C28.579 31.8633 28.5 32.0541 28.5 32.253V36.753C28.5 36.9519 28.579 37.1427 28.7197 37.2833C28.8603 37.424 29.0511 37.503 29.25 37.503H29.997C30.7926 37.503 31.5557 37.1869 32.1183 36.6243C32.6809 36.0617 32.997 35.2986 32.997 34.503C32.997 33.7074 32.6809 32.9443 32.1183 32.3817C31.5557 31.8191 30.7926 31.503 29.997 31.503H29.25V31.503ZM30 36.003V33.003C30.3978 33.003 30.7794 33.161 31.0607 33.4423C31.342 33.7236 31.5 34.1052 31.5 34.503C31.5 34.9008 31.342 35.2824 31.0607 35.5637C30.7794 35.845 30.3978 36.003 30 36.003ZM42 42V40.254C42.8865 39.8325 43.5 38.928 43.5 37.881V31.125C43.5 30.078 42.8865 29.175 42 28.752V26.742C41.9998 25.9464 41.6836 25.1835 41.121 24.621L32.3775 15.879C32.3543 15.8574 32.3298 15.8374 32.304 15.819C32.2854 15.8047 32.2674 15.7897 32.25 15.774C32.1468 15.6766 32.037 15.5864 31.9215 15.504C31.8831 15.4792 31.843 15.4572 31.8015 15.438L31.7295 15.402L31.6545 15.3585C31.5735 15.312 31.491 15.264 31.4055 15.228C31.1068 15.1087 30.7907 15.0388 30.4695 15.021C30.4398 15.0191 30.4103 15.0156 30.381 15.0105C30.3403 15.0042 30.2992 15.0007 30.258 15H21C20.2044 15 19.4413 15.3161 18.8787 15.8787C18.3161 16.4413 18 17.2044 18 18V28.752C17.1135 29.1735 16.5 30.078 16.5 31.125V37.881C16.5 38.928 17.1135 39.831 18 40.254V42C18 42.7956 18.3161 43.5587 18.8787 44.1213C19.4413 44.6839 20.2044 45 21 45H39C39.7956 45 40.5587 44.6839 41.1213 44.1213C41.6839 43.5587 42 42.7956 42 42ZM39 42.75H21C20.8011 42.75 20.6103 42.671 20.4697 42.5303C20.329 42.3897 20.25 42.1989 20.25 42V40.506H39.75V42C39.75 42.1989 39.671 42.3897 39.5303 42.5303C39.3897 42.671 39.1989 42.75 39 42.75ZM39.75 27V28.5H20.25V18C20.25 17.8011 20.329 17.6103 20.4697 17.4697C20.6103 17.329 20.8011 17.25 21 17.25H30V24C30 24.7956 30.3161 25.5587 30.8787 26.1213C31.4413 26.6839 32.2044 27 33 27H39.75ZM38.067 24.75H33C32.8011 24.75 32.6103 24.671 32.4697 24.5303C32.329 24.3897 32.25 24.1989 32.25 24V18.9315L38.067 24.75ZM19.125 30.75H40.875C40.9745 30.75 41.0698 30.7895 41.1402 30.8598C41.2105 30.9302 41.25 31.0255 41.25 31.125V37.881C41.25 37.9805 41.2105 38.0758 41.1402 38.1462C41.0698 38.2165 40.9745 38.256 40.875 38.256H19.125C19.0255 38.256 18.9302 38.2165 18.8598 38.1462C18.7895 38.0758 18.75 37.9805 18.75 37.881V31.125C18.75 31.0255 18.7895 30.9302 18.8598 30.8598C18.9302 30.7895 19.0255 30.75 19.125 30.75Z" fill="white"/>
</svg>
