<svg width="62" height="63" viewBox="0 0 62 63" fill="none" xmlns="http://www.w3.org/2000/svg">
<circle cx="31.2143" cy="31.2143" r="30.2143" fill="#F12D3B"/>
<path d="M30.5002 26.0002C29.4124 26.0002 28.349 26.3227 27.4445 26.9271C26.5401 27.5314 25.8351 28.3904 25.4188 29.3954C25.0025 30.4004 24.8936 31.5063 25.1058 32.5732C25.3181 33.6401 25.8419 34.6201 26.6111 35.3892C27.3803 36.1584 28.3603 36.6823 29.4272 36.8945C30.4941 37.1067 31.5999 36.9978 32.6049 36.5815C33.6099 36.1652 34.4689 35.4603 35.0732 34.5558C35.6776 33.6513 36.0002 32.588 36.0002 31.5002C36.0002 30.0415 35.4207 28.6425 34.3892 27.6111C33.3578 26.5796 31.9589 26.0002 30.5002 26.0002ZM30.5002 34.2502C29.9563 34.2502 29.4246 34.0889 28.9723 33.7867C28.5201 33.4845 28.1676 33.055 27.9595 32.5525C27.7514 32.05 27.6969 31.4971 27.803 30.9637C27.9091 30.4302 28.171 29.9402 28.5556 29.5556C28.9402 29.171 29.4302 28.9091 29.9637 28.803C30.4971 28.6969 31.05 28.7514 31.5525 28.9595C32.055 29.1676 32.4845 29.5201 32.7867 29.9723C33.0889 30.4246 33.2502 30.9563 33.2502 31.5002C33.2502 32.2295 32.9604 32.929 32.4447 33.4447C31.929 33.9604 31.2295 34.2502 30.5002 34.2502ZM43.8514 30.5239L40.6202 27.3752V22.7552C40.6202 22.3905 40.4753 22.0408 40.2174 21.7829C39.9596 21.525 39.6098 21.3802 39.2452 21.3802H34.6939L31.4764 18.1489C31.3486 18.02 31.1965 17.9177 31.029 17.8479C30.8614 17.7781 30.6817 17.7422 30.5002 17.7422C30.3186 17.7422 30.1389 17.7781 29.9714 17.8479C29.8038 17.9177 29.6517 18.02 29.5239 18.1489L26.3752 21.3802H21.7552C21.3905 21.3802 21.0408 21.525 20.7829 21.7829C20.525 22.0408 20.3802 22.3905 20.3802 22.7552V27.3752L17.1489 30.5239C17.02 30.6517 16.9177 30.8038 16.8479 30.9714C16.7781 31.1389 16.7422 31.3186 16.7422 31.5002C16.7422 31.6817 16.7781 31.8614 16.8479 32.029C16.9177 32.1965 17.02 32.3486 17.1489 32.4764L20.3802 35.6939V40.2452C20.3802 40.6098 20.525 40.9596 20.7829 41.2174C21.0408 41.4753 21.3905 41.6202 21.7552 41.6202H26.3752L29.5927 44.8514C29.7205 44.9803 29.8726 45.0826 30.0401 45.1524C30.2077 45.2222 30.3874 45.2581 30.5689 45.2581C30.7504 45.2581 30.9301 45.2222 31.0977 45.1524C31.2653 45.0826 31.4173 44.9803 31.5452 44.8514L34.7627 41.6202H39.3139C39.6786 41.6202 40.0283 41.4753 40.2862 41.2174C40.544 40.9596 40.6889 40.6098 40.6889 40.2452V35.6939L43.9202 32.4764C44.0446 32.3441 44.1417 32.1884 44.2056 32.0184C44.2696 31.8484 44.2993 31.6674 44.2929 31.4858C44.2865 31.3043 44.2442 31.1258 44.1684 30.9607C44.0926 30.7956 43.9849 30.6471 43.8514 30.5239ZM38.2827 34.1539C38.1527 34.2813 38.0494 34.4331 37.9786 34.6007C37.9078 34.7683 37.8709 34.9482 37.8702 35.1302V38.8702H34.1302C33.9482 38.8709 33.7683 38.9078 33.6007 38.9786C33.4331 39.0494 33.2813 39.1527 33.1539 39.2827L30.5002 41.9364L27.8464 39.2827C27.7191 39.1527 27.5672 39.0494 27.3996 38.9786C27.232 38.9078 27.0521 38.8709 26.8702 38.8702H23.1302V35.1302C23.1294 34.9482 23.0926 34.7683 23.0217 34.6007C22.9509 34.4331 22.8476 34.2813 22.7177 34.1539L20.0639 31.5002L22.7177 28.8464C22.8476 28.7191 22.9509 28.5672 23.0217 28.3996C23.0926 28.232 23.1294 28.0521 23.1302 27.8702V24.1302H26.8702C27.0521 24.1294 27.232 24.0926 27.3996 24.0217C27.5672 23.9509 27.7191 23.8476 27.8464 23.7177L30.5002 21.0639L33.1539 23.7177C33.2813 23.8476 33.4331 23.9509 33.6007 24.0217C33.7683 24.0926 33.9482 24.1294 34.1302 24.1302H37.8702V27.8702C37.8709 28.0521 37.9078 28.232 37.9786 28.3996C38.0494 28.5672 38.1527 28.7191 38.2827 28.8464L40.9364 31.5002L38.2827 34.1539Z" fill="white"/>
</svg>
