<svg width="53" height="53" viewBox="0 0 53 53" fill="none" xmlns="http://www.w3.org/2000/svg">
<rect x="0.920898" y="1" width="50.8247" height="51" rx="6" fill="#5BB5DC"/>
<path d="M17.1522 25.8379C19.0893 24.5452 21.2516 23.4662 23.2719 22.3817C26.7477 20.6054 30.2373 18.8599 33.7621 17.2349C34.4479 16.958 35.6801 16.6872 35.8009 17.9186C35.7348 19.6616 35.4626 21.3944 35.2759 23.1272C34.8021 26.9377 34.2544 30.7352 33.7204 34.5333C33.5364 35.7984 32.2283 36.4533 31.3914 35.6437C29.4757 34.0758 27.5459 32.5225 25.651 30.9231C25.4622 30.7638 25.2713 30.594 25.1785 30.365C24.869 29.6012 25.3936 28.6602 25.9011 28.1606C27.4214 26.3454 29.026 24.7807 30.4932 22.9278C30.7563 22.5955 31.2757 21.9492 30.8671 21.8369C30.6068 21.7654 29.9276 22.327 29.6441 22.5468C27.3762 24.4403 25.1638 26.4495 22.7726 28.1137C21.5513 28.9283 20.1277 28.2322 18.9069 27.7776C17.8123 27.2285 16.2084 26.6752 17.1522 25.8379Z" fill="white"/>
</svg>
