<svg width="62" height="63" viewBox="0 0 62 63" fill="none" xmlns="http://www.w3.org/2000/svg">
<ellipse cx="31.2927" cy="31.2143" rx="30.2927" ry="30.2143" fill="#F12D3B"/>
<path d="M46.9862 23.6188C46.7392 23.4761 46.459 23.401 46.1737 23.401C45.8885 23.401 45.6083 23.4761 45.3613 23.6188L39.625 26.4463C39.5787 25.1846 39.0447 23.99 38.1355 23.1141C37.2262 22.2382 36.0125 21.7492 34.75 21.75H20.125C18.8321 21.75 17.5921 22.2636 16.6779 23.1779C15.7636 24.0921 15.25 25.3321 15.25 26.625V36.375C15.25 37.6679 15.7636 38.9079 16.6779 39.8221C17.5921 40.7364 18.8321 41.25 20.125 41.25H34.75C36.0125 41.2509 37.2262 40.7618 38.1355 39.8859C39.0447 39.01 39.5787 37.8155 39.625 36.5538L45.41 39.4462C45.6315 39.5598 45.8761 39.621 46.125 39.625C46.4292 39.626 46.7276 39.5415 46.9862 39.3813C47.2204 39.2349 47.4135 39.0313 47.5471 38.7896C47.6807 38.5479 47.7506 38.2762 47.75 38V25C47.7506 24.7238 47.6807 24.4521 47.5471 24.2104C47.4135 23.9687 47.2204 23.7651 46.9862 23.6188ZM36.375 36.375C36.375 36.806 36.2038 37.2193 35.899 37.524C35.5943 37.8288 35.181 38 34.75 38H20.125C19.694 38 19.2807 37.8288 18.976 37.524C18.6712 37.2193 18.5 36.806 18.5 36.375V26.625C18.5 26.194 18.6712 25.7807 18.976 25.476C19.2807 25.1712 19.694 25 20.125 25H34.75C35.181 25 35.5943 25.1712 35.899 25.476C36.2038 25.7807 36.375 26.194 36.375 26.625V36.375ZM44.5 35.3675L39.625 32.93V30.07L44.5 27.6325V35.3675Z" fill="white"/>
</svg>
