<svg width="53" height="53" viewBox="0 0 53 53" fill="none" xmlns="http://www.w3.org/2000/svg">
<rect x="1.33984" y="1" width="50.8247" height="51" rx="6" fill="#D5D7E1"/>
<path fill-rule="evenodd" clip-rule="evenodd" d="M37.6966 20.9715C37.8591 20.4235 37.6966 20.0249 36.9768 20.0249H34.5851C34.0226 20.0249 33.7423 20.3277 33.5752 20.6713C33.5508 20.7215 33.5304 20.773 33.5097 20.8248C33.31 21.3238 32.1517 24.1259 30.5913 26.0035C30.0341 26.6014 29.7786 26.8007 29.4768 26.8007C29.3142 26.8007 29.1053 26.6014 29.1053 26.0534V20.9466C29.1053 20.2989 28.9196 20 28.4087 20H24.6471C24.2756 20 24.0435 20.2989 24.0435 20.5979C24.0435 21.2207 24.9025 21.3701 24.9954 23.1139V26.9004C24.9954 27.7225 24.8561 27.8719 24.5543 27.8719C23.7416 27.8719 21.7679 24.6584 20.5837 20.9965C20.3515 20.274 20.1193 20 19.5156 20H17.1008C16.4042 20 16.2881 20.3488 16.2881 20.7225C16.2881 21.395 17.1008 24.7829 20.0729 29.2669C22.0466 32.3309 24.8561 33.9751 27.3871 33.9751C28.9196 33.9751 29.1053 33.6014 29.1053 32.9787V30.662C29.1053 29.9146 29.2446 29.7901 29.7322 29.7901C30.0805 29.7901 30.7074 29.9893 32.1238 31.4591C33.7492 33.2028 34.0278 34 34.9334 34H37.325C38.0216 34 38.3467 33.6263 38.161 32.9039C37.952 32.1815 37.1625 31.1353 36.1408 29.8897C35.5835 29.1922 34.7476 28.42 34.4922 28.0462C34.1729 27.5895 34.8605 26.3147 35.1549 25.8415C36.0309 24.4335 37.4883 22.0028 37.6966 20.9715Z" fill="white"/>
</svg>
