<svg width="53" height="53" viewBox="0 0 53 53" fill="none" xmlns="http://www.w3.org/2000/svg">
<rect x="1.12988" y="1" width="50.8247" height="51" rx="6" fill="#D5D7E1"/>
<path d="M16.2485 36.8334L17.7081 31.4514C16.7463 29.797 16.241 27.9154 16.2442 26.0001C16.2442 20.0168 21.0776 15.1667 27.0403 15.1667C33.0029 15.1667 37.8364 20.0168 37.8364 26.0001C37.8364 31.9833 33.0029 36.8334 27.0403 36.8334C25.1323 36.8365 23.258 36.3298 21.6098 35.3655L16.2485 36.8334ZM23.1439 20.9171C23.0045 20.9258 22.8683 20.9626 22.7434 21.0254C22.6263 21.092 22.5194 21.1752 22.426 21.2724C22.2965 21.3948 22.223 21.501 22.1442 21.6039C21.7452 22.125 21.5306 22.7646 21.5342 23.4217C21.5364 23.9526 21.6746 24.4693 21.8905 24.9525C22.3321 25.9297 23.0587 26.9642 24.0184 27.923C24.2495 28.1537 24.4751 28.3856 24.718 28.6012C25.9092 29.6536 27.3288 30.4125 28.8637 30.8177L29.478 30.9119C29.6777 30.9227 29.8775 30.9076 30.0783 30.8978C30.3927 30.8815 30.6997 30.7961 30.9776 30.6476C31.119 30.5745 31.257 30.495 31.3911 30.4092C31.3911 30.4092 31.4375 30.3789 31.526 30.3117C31.6718 30.2034 31.7614 30.1265 31.8823 29.9997C31.9719 29.9066 32.0497 29.7972 32.109 29.6726C32.1932 29.496 32.2774 29.1591 32.312 28.8785C32.3379 28.664 32.3304 28.547 32.3271 28.4744C32.3228 28.3585 32.2267 28.2382 32.122 28.1873L31.4937 27.9046C31.4937 27.9046 30.5544 27.494 29.9811 27.2318C29.9207 27.2054 29.8559 27.1903 29.79 27.1874C29.7162 27.1798 29.6415 27.1881 29.5711 27.2119C29.5007 27.2356 29.4362 27.2742 29.3819 27.325V27.3228C29.3765 27.3228 29.3042 27.3846 28.5236 28.3336C28.4788 28.394 28.4171 28.4396 28.3464 28.4647C28.2756 28.4898 28.199 28.4932 28.1263 28.4744C28.056 28.4555 27.9871 28.4316 27.9201 28.4029C27.7863 28.3466 27.7398 28.3249 27.6481 28.2848L27.6427 28.2827C27.025 28.0121 26.4532 27.6466 25.9477 27.1993C25.8117 27.0802 25.6853 26.9502 25.5558 26.8245C25.1311 26.4163 24.7609 25.9546 24.4546 25.4508L24.3909 25.3479C24.3451 25.2788 24.3082 25.2042 24.2808 25.1258C24.2398 24.9666 24.3466 24.8387 24.3466 24.8387C24.3466 24.8387 24.609 24.5506 24.731 24.3946C24.8326 24.2649 24.9273 24.1301 25.0149 23.9905C25.1423 23.7847 25.1823 23.5734 25.1153 23.4098C24.813 22.6688 24.4999 21.9311 24.1782 21.1987C24.1145 21.0536 23.9256 20.9496 23.7539 20.929C23.6956 20.9225 23.6373 20.916 23.579 20.9117C23.434 20.9044 23.2888 20.9059 23.1439 20.916V20.9171Z" fill="white"/>
</svg>
