<svg width="53" height="53" viewBox="0 0 53 53" fill="none" xmlns="http://www.w3.org/2000/svg">
<rect x="1" y="1" width="51" height="51" rx="6.375" fill="#FA1B1B"/>
<path d="M39.532 19.7776C39.2192 18.576 38.2975 17.6297 37.1271 17.3085C35.0061 16.7249 26.5004 16.7249 26.5004 16.7249C26.5004 16.7249 17.9947 16.7249 15.8735 17.3085C14.7032 17.6297 13.7815 18.576 13.4687 19.7776C12.9004 21.9556 12.9004 26.4999 12.9004 26.4999C12.9004 26.4999 12.9004 31.044 13.4687 33.2221C13.7815 34.4238 14.7032 35.37 15.8735 35.6913C17.9947 36.2749 26.5004 36.2749 26.5004 36.2749C26.5004 36.2749 35.0061 36.2749 37.1271 35.6913C38.2975 35.37 39.2192 34.4238 39.532 33.2221C40.1004 31.044 40.1004 26.4999 40.1004 26.4999C40.1004 26.4999 40.1004 21.9556 39.532 19.7776" fill="white"/>
<path d="M23.9502 31.1746V22.6746L30.7502 26.9247L23.9502 31.1746Z" fill="#FA1B1B"/>
</svg>
